<?xml version="1.0" encoding="UTF-8" standalone="no"?>
<svg width="152px" height="218px" viewBox="0 0 152 218" version="1.1" xmlns="http://www.w3.org/2000/svg" xmlns:xlink="http://www.w3.org/1999/xlink" xmlns:sketch="http://www.bohemiancoding.com/sketch/ns">
    <!-- Generator: Sketch 3.2.1 (9977) - http://www.bohemiancoding.com/sketch -->
    <title>Slice 1</title>
    <desc>Created with Sketch.</desc>
    <defs></defs>
    <g id="Page-1" stroke="none" stroke-width="1" fill="none" fill-rule="evenodd" sketch:type="MSPage">
        <g id="body" sketch:type="MSLayerGroup" transform="translate(3.000000, 2.000000)" fill="#77BA9F">
            <path d="M117.326,122.275 C132.943,129.371 148.91,144.361 144.564,154.437 C140.062,164.873 120.839,158.449 120.839,158.449 C118.855,169.691 118.23,193.043 120.839,195.365 C123.462,197.687 127.833,200.179 127.833,205.392 C127.833,210.617 102.603,216.228 85.005,212.613 C80.755,208.845 80.058,200.336 74.327,200.193 C68.598,200.324 67.899,208.845 63.649,212.613 C46.042,216.228 20.809,210.617 20.809,205.392 C20.809,200.179 25.19,197.687 27.803,195.365 C30.416,193.043 29.801,169.691 27.803,158.449 C27.803,158.449 8.578,164.873 4.078,154.437 C-0.022,144.902 14.057,130.957 28.812,123.482 C22.087,118.127 16.388,111.578 11.605,104.445 C9.384,101.134 7.353,97.699 5.445,94.197 C3.787,91.16 2.338,87.943 0.629,84.91 C0.057,83.894 0.988,81.338 2.031,80.892 C4.597,79.792 6.898,78.087 8.418,75.712 C9.979,73.274 10.361,70.581 10.475,67.745 C10.602,64.536 11.08,61.347 11.821,58.222 C13.704,50.288 17.229,42.806 21.438,35.857 C24.233,31.244 28.536,27.703 32.668,24.328 C38.113,19.885 43.811,15.758 49.541,11.691 C54.74,8 60.119,4.496 65.17,0.595 C65.568,0.288 66.525,0.685 66.606,1.195 C66.887,2.996 67.126,4.806 67.229,6.625 C67.272,7.402 67.104,8.727 68.26,8.727 C69.194,8.727 69.694,7.219 70.176,6.581 C72.133,3.979 74.979,1.716 78.01,0.214 C78.84,-0.198 79.885,0.45 79.574,1.224 C78.756,3.257 78.205,5.706 79.691,7.193 C80.541,8.041 82.884,6.57 83.839,6.199 C85.134,5.693 86.433,5.199 87.739,4.724 C90.774,3.626 93.856,2.617 97.009,1.921 C99.679,1.331 103.046,0.624 105.685,1.683 C100.361,5.49 101.716,13.91 106.14,17.788 C108.859,20.171 112.679,21.374 116.07,19.706 C118.67,18.429 120.634,15.811 121.343,13.022 C126.316,16.915 129.443,22.069 130.54,28.278 C131.692,34.807 131.181,41.567 133.343,47.919 C138.577,63.294 142.847,73.03 146.474,77.755 C147.068,78.528 147.347,80.155 146.951,80.444 C145.574,81.446 144.439,82.805 143.439,84.157 C139.804,89.065 137.15,94.675 134.105,99.956 C131.794,103.964 129.353,107.901 126.626,111.642 C123.848,115.46 120.75,119.048 117.326,122.275 L117.326,122.275 Z M73.512,215.15 L73.504,215.15 L73.504,215.158 L73.512,215.158 L73.512,215.15 L73.512,215.15 Z" id="Shape" sketch:type="MSShapeGroup"></path>
        </g>
        <g id="fur" sketch:type="MSLayerGroup">
            <g id="Group" sketch:type="MSShapeGroup">
                <path d="M126.301,118.822 C138.524,103.988 143.813,86.82 150.535,83.086 C151.205,82.715 151.262,81.639 150.568,80.932 C145.716,75.993 140.103,60.895 136.396,49.994 C132.162,37.535 138.142,24.576 122.693,13.613 C122.693,17.849 117.459,24.826 110.482,20.59 C103.505,16.354 104.003,6.387 109.736,4.145 C105.119,-0.47 88.564,6.518 82.496,8.879 C80.967,7.344 82.82,3.332 83.898,1.33 C84.283,0.615 83.783,0.217 83.31,0.328 C80.005,1.115 74.367,4.51 71.408,8.484 C71.008,9.023 70.33,8.867 70.273,8.156 C70.072,5.677 69.589,2.718 69.324,1.187 C69.213,0.546 68.691,0.578 68.385,0.837 C61.723,6.427 29.463,26.784 23.272,36.786 C16.793,47.251 11.809,59.212 11.559,70.923 C11.373,79.632 4.577,82.415 1.102,83.271 C-0.097,83.566 -0.15,84.511 0.27,85.162 C4.008,90.955 10.325,107.443 24.141,121.164 C24.686,121.705 24.483,123.156 23.69,123.529 C17.741,126.324 7.508,135.494 5.161,141.939 C7.823,142.935 15.487,143.265 15.487,145.259 C15.487,147.251 11.311,150.411 13.473,153.9 C15.313,152.058 17.813,151.769 19.52,151.834 C20.661,151.875 20.67,152.969 20.411,153.434 C18.581,156.692 20.61,160.379 20.61,160.379 C21.901,159.092 23.52,158.719 24.817,158.666 C26.114,158.615 26.006,160.012 25.518,160.582 C17.395,170.084 18.965,180.914 21.946,188.117 C25.096,195.762 23.022,198.672 20.78,200.916 C26.358,204.316 34.102,203.105 37.813,199.152 C38.081,198.867 39.083,198.9 39.233,199.257 C40.055,201.216 38.7,203.753 37.596,205.353 C36.955,206.281 37.533,206.882 38.086,206.855 C42.033,206.671 45.445,205.751 47.262,203.042 C47.559,202.601 48.225,202.671 48.383,203.177 C49.551,206.878 52.639,208.98 55.143,209.704 C55.819,209.899 56.225,209.036 56.008,208.487 C55.176,206.397 55.795,203.772 56.36,202.133 C56.684,201.19 57.604,201.654 57.899,202.149 C60.434,206.385 62.53,208.45 67.295,209.995 C70.164,207.114 73.934,204.432 76.426,204.432 L76.436,204.432 C78.928,204.432 82.684,207.114 85.565,209.995 C90.504,208.391 92.575,206.227 95.243,201.655 C95.446,201.309 96.128,201.11 96.429,201.948 C97.013,203.579 97.722,206.35 96.831,208.526 C96.612,209.059 97.13,209.885 97.86,209.659 C100.423,208.87 103.53,206.665 104.577,202.809 C104.684,202.414 105.272,202.557 105.554,202.983 C107.331,205.682 110.665,206.631 114.54,206.844 C115.169,206.877 115.851,206.219 115.169,205.213 C114.124,203.672 112.921,201.35 113.536,199.481 C113.681,199.042 114.78,198.874 115.054,199.163 C118.777,203.108 126.511,204.311 132.083,200.915 C129.841,198.671 127.757,195.761 130.917,188.116 C133.868,180.981 135.437,170.292 127.565,160.852 C127.012,160.19 126.604,158.651 127.762,158.661 C129.1,158.669 130.864,158.999 132.242,160.378 C132.242,160.378 134.273,156.7 132.457,153.444 C132.195,152.975 132.107,151.899 133.135,151.842 C134.842,151.746 137.473,151.983 139.387,153.899 C141.551,150.411 137.375,147.251 137.375,145.258 C137.375,143.264 145.039,142.934 147.689,141.938 C145.279,135.295 132.662,123.911 126.482,121.108 C125.867,120.83 125.826,119.398 126.301,118.822 L126.301,118.822 Z M108.24,114.371 C93.914,114.371 89.129,109.289 85.092,105.752 C85.211,105.318 85.278,104.869 85.278,104.41 C85.278,100.853 81.544,97.969 76.94,97.969 C72.335,97.969 68.602,100.854 68.602,104.41 C68.602,105.201 68.795,105.953 69.133,106.654 C64.69,110.092 58.684,114.371 44.621,114.371 C25.392,114.371 18.955,87.619 26.928,75.478 C34.125,64.515 53.262,52.355 76.436,52.355 C99.61,52.355 118.735,64.515 125.932,75.478 C133.906,87.619 127.467,114.371 108.24,114.371 L108.24,114.371 Z M75.85,216.158 L75.844,216.158 L75.844,216.15 L75.85,216.15 L75.85,216.158 L75.85,216.158 Z" id="Shape" fill="#B2D3CB"></path>
                <path d="M76.432,144.181 C78.588,147.421 78.76,157.638 76.432,161.499 M39.094,157.638 C44.326,164.615 63.887,169.349 71.612,164.988 M81.252,164.988 C88.977,169.349 108.537,164.615 113.77,157.638 M38.727,128.755 C47.965,133.464 67.844,136.896 77.422,136.896 C87,136.896 106.879,133.464 116.119,128.755" id="Shape" stroke="#ABCAC3"></path>
            </g>
        </g>
        <g id="teeth" sketch:type="MSLayerGroup" transform="translate(58.000000, 111.000000)" fill="#FFFFFF">
            <path d="M36.23,1.197 C34.927,0.65 33.314,1.056 32.632,2.101 C32.116,2.876 31.329,3.521 30.183,4.068 C28.478,4.884 25.97,5.402 23.105,5.502 C20.242,5.606 17.042,5.305 13.986,4.641 C10.492,3.891 7.187,2.666 4.728,1.153 C3.56,0.438 1.886,0.616 0.988,1.551 C0.09,2.485 0.306,3.824 1.472,4.541 C2.716,5.301 4.072,5.975 5.503,6.572 C5.597,8.617 6.038,15.017 7.907,15.361 C10.098,15.761 13.038,11.375 14.436,9.119 C18.077,9.75 21.793,9.951 25.247,9.637 C25.679,10.145 31.073,16.461 32.169,15.948 C33.271,15.43 33.995,11.413 33.831,7.229 C35.263,6.411 36.503,5.37 37.351,4.075 C38.035,3.029 37.535,1.74 36.23,1.197 L36.23,1.197 Z" id="Shape" sketch:type="MSShapeGroup"></path>
        </g>
        <g id="eyes" sketch:type="MSLayerGroup" transform="translate(77.500000, 94.500000) rotate(-90.000000) translate(-77.500000, -94.500000) translate(59.500000, 49.500000)">
            <path d="M18.045,0.158 C27.799,0.158 35.707,8.068 35.707,17.82 C35.707,27.566 27.799,35.476 18.045,35.476 C8.297,35.476 0.389,27.566 0.389,17.82 C0.389,8.068 8.297,0.158 18.045,0.158 Z" id="Path" fill="#FFFFFF" sketch:type="MSShapeGroup"></path>
            <path d="M35.707,71.814 C35.707,62.062 27.801,54.154 18.045,54.154 C8.295,54.154 0.387,62.062 0.387,71.814 C0.387,81.564 8.295,89.476 18.045,89.476 C27.801,89.476 35.707,81.564 35.707,71.814 L35.707,71.814 Z" id="Path" fill="#FFFFFF" sketch:type="MSShapeGroup"></path>
            <circle id="Oval-1" fill="#000000" sketch:type="MSShapeGroup" cx="15" cy="63" r="4.5"></circle>
            <circle id="Oval-2" fill="#000000" sketch:type="MSShapeGroup" cx="15" cy="27" r="4.5"></circle>
        </g>
        <g id="nose" sketch:type="MSLayerGroup" transform="translate(68.000000, 97.000000)" fill="#DBEDE9">
            <path d="M17.277,6.996 C17.277,10.553 13.543,13.435 8.939,13.435 C4.334,13.435 0.601,10.552 0.601,6.996 C0.601,3.44 4.333,0.555 8.939,0.555 C13.543,0.554 17.277,3.439 17.277,6.996 L17.277,6.996 Z" id="Path" sketch:type="MSShapeGroup"></path>
        </g>
    </g>
</svg>