<?xml version="1.0" encoding="UTF-8" standalone="no"?>
<svg width="209px" height="217px" viewBox="0 0 209 217" version="1.1" xmlns="http://www.w3.org/2000/svg" xmlns:xlink="http://www.w3.org/1999/xlink" xmlns:sketch="http://www.bohemiancoding.com/sketch/ns">
    <!-- Generator: Sketch 3.2.1 (9977) - http://www.bohemiancoding.com/sketch -->
    <title>angel</title>
    <desc>Created with Sketch.</desc>
    <defs></defs>
    <g id="Page-1" stroke="none" stroke-width="1" fill="none" fill-rule="evenodd" sketch:type="MSPage">
        <g id="wings" sketch:type="MSLayerGroup" transform="translate(0.000000, 5.000000)" fill="#FFFFFF">
            <path d="M206.752,75.462 C206.485,78.784 203.743,82.933 194.801,89.864 C169.77,109.27 195.625,116.634 193.979,122.227 C192.856,126.049 186.554,144.606 158.8,144.659 C145.925,144.684 128.433,140.725 104.699,129.466 C81.295,140.57 63.96,144.573 51.136,144.659 C22.925,144.847 16.55,126.073 15.419,122.227 C13.773,116.633 39.628,109.27 14.597,89.864 C5.209,82.587 2.654,78.38 2.623,74.971 C2.572,69.293 9.536,65.842 3.573,54.119 C1.458,49.961 0.733,46.904 0.804,44.5 C1.054,36.066 11.108,35.705 5.219,24.182 C3.141,20.118 2.155,15.979 2.327,12.344 C2.637,5.834 6.662,0.944 14.795,0.99 C18.665,1.013 23.465,2.154 29.236,4.769 C58.017,17.816 84.509,92.367 104.697,92.367 C124.885,92.367 151.379,17.816 180.158,4.769 C185.94,2.148 190.747,1.009 194.62,0.99 C202.808,0.951 206.826,5.924 207.074,12.51 C207.21,16.106 206.221,20.18 204.176,24.182 C198.329,35.621 208.196,36.061 208.583,44.321 C208.697,46.751 207.991,49.856 205.822,54.12 C199.691,66.175 207.23,69.484 206.752,75.462 L206.752,75.462 Z" id="Path" sketch:type="MSShapeGroup"></path>
        </g>
        <g id="hair---back" sketch:type="MSLayerGroup" transform="translate(24.000000, 13.000000)" fill="#EEDDB8">
            <path d="M160.465,111.535 C161.295,111.437 162.403,112.713 162.151,113.531 C159.191,123.168 152.713,127.517 145.538,128.066 C141.233,128.396 136.677,127.357 132.477,125.273 C120.686,119.419 112.625,116.043 104.977,127 C101.153,132.479 94.818,135.633 87.985,135.965 C81.152,136.295 73.821,133.803 68.005,127.988 C56.372,116.355 47.839,117.377 35.501,126.506 C29.615,130.86 24.34,132.561 19.607,132.242 C11.72,131.709 5.342,125.562 0.167,116.734 C-0.321,115.902 0.567,114.089 1.415,113.939 C11.733,112.113 15.442,99.412 11.565,81.32 C1.696,25.09 42.657,0.056 77.741,0.056 C149.345,0.056 151.811,59.107 142.346,88.468 C137.828,102.488 151.34,112.607 160.465,111.535 L160.465,111.535 Z" id="Path" sketch:type="MSShapeGroup"></path>
        </g>
        <g id="body" sketch:type="MSLayerGroup" transform="translate(33.000000, 12.000000)" fill="#F1CEAE">
            <path d="M139.859,145.335 C135.398,155.669 116.359,149.304 116.359,149.304 C114.394,160.435 113.773,183.564 116.359,185.863 C118.955,188.162 123.287,190.629 123.287,195.793 C123.287,199.672 109.235,203.768 94.855,204.064 C90.062,204.164 85.232,203.841 80.875,202.949 C76.66,199.217 75.979,190.787 70.303,190.65 C64.629,190.777 63.938,199.216 59.723,202.949 C55.685,203.777 51.241,204.115 46.795,204.08 C32.054,203.967 17.301,199.766 17.301,195.793 C17.301,190.629 21.643,188.162 24.231,185.863 C26.817,183.564 26.204,160.435 24.231,149.304 C24.231,149.304 5.19,155.669 0.739,145.335 C-3.632,135.169 12.85,119.939 28.583,113.099 C15.042,101.402 6.483,84.107 6.483,64.812 C6.483,29.566 35.057,0.992 70.303,0.992 C105.551,0.992 134.125,29.566 134.125,64.812 C134.125,84.107 125.566,101.402 112.025,113.099 C127.75,119.958 144.232,135.169 139.859,145.335 L139.859,145.335 Z M72.677,216.986 L72.67,216.986 L72.67,216.992 L72.677,216.992 L72.677,216.986 L72.677,216.986 Z" id="Shape" sketch:type="MSShapeGroup"></path>
        </g>
        <g id="gown" sketch:type="MSLayerGroup" transform="translate(140.500000, 167.500000) rotate(-90.000000) translate(-140.500000, -167.500000) translate(97.000000, 59.000000)" fill="#CCDBD7">
            <path d="M19.566,141.542 C7.849,129.827 0.306,108.733 0.306,71.267 C0.306,33.808 7.849,12.716 19.566,0.99 C19.566,0.99 33.373,18.668 50.004,25.203 C50.004,25.203 49.256,22.951 48.684,19.814 C51.516,16.98 63.579,8.197 71.444,8.197 L71.454,8.185 C77.395,13.771 82.893,21.867 86.29,29.732 C82.114,34.5 78.64,39.918 76.044,45.8 L76.032,45.8 C76.032,45.8 58.544,48.861 58.544,71.275 C58.544,93.683 76.032,96.742 76.032,96.742 C78.63,102.625 82.104,108.023 86.28,112.81 C82.893,120.677 77.395,128.761 71.454,134.357 L71.444,134.347 C63.579,134.347 51.516,125.554 48.684,122.72 C49.256,119.591 50.004,117.331 50.004,117.331 C33.373,123.875 19.566,141.542 19.566,141.542 L19.566,141.542 Z M38.07,216.986 L38.063,216.986 L38.063,216.992 L38.07,216.992 L38.07,216.986 L38.07,216.986 Z" id="Shape" sketch:type="MSShapeGroup"></path>
        </g>
        <g id="eyes" sketch:type="MSLayerGroup" transform="translate(103.500000, 93.500000) rotate(-90.000000) translate(-103.500000, -93.500000) translate(85.500000, 48.500000)">
            <path d="M0.211,18.253 C0.211,27.907 8.043,35.739 17.701,35.739 C27.353,35.739 35.187,27.907 35.187,18.253 C35.187,8.595 27.353,0.765 17.701,0.765 C8.043,0.765 0.211,8.595 0.211,18.253 L0.211,18.253 Z M0.209,71.875 C0.209,81.529 8.041,89.363 17.699,89.363 C27.353,89.363 35.189,81.529 35.189,71.875 C35.189,62.215 27.353,54.387 17.699,54.387 C8.041,54.386 0.209,62.214 0.209,71.875 L0.209,71.875 Z" id="Shape" fill="#FFFFFF" sketch:type="MSShapeGroup"></path>
            <circle id="Oval-2" fill="#000000" sketch:type="MSShapeGroup" cx="18" cy="63" r="4.5"></circle>
            <circle id="Oval-2" fill="#000000" sketch:type="MSShapeGroup" cx="18" cy="10" r="4.5"></circle>
        </g>
        <g id="hair---front" sketch:type="MSLayerGroup" transform="translate(39.000000, 12.000000)" fill="#F7EACF">
            <path d="M133.48,79.564 C128.925,73.293 127.773,64.021 126.089,49.056 C124.07,31.128 99.513,0.988 64.091,0.992 C56.837,0.992 49.127,2.258 41.062,5.15 C-7.35,25.593 -5.393,76.088 10.65,89.767 C11.47,90.464 12.652,89.652 12.412,88.734 C3.426,54.347 32.234,55.291 36.377,30.175 C43.815,50.116 64.098,55.962 83.008,50.116 C101.918,44.27 111.889,55.962 114.641,66.964 C117.186,77.15 121.092,81.286 132.573,81.845 C133.492,81.89 134.084,80.398 133.48,79.564 L133.48,79.564 Z" id="Shape" sketch:type="MSShapeGroup"></path>
        </g>
        <g id="halo" sketch:type="MSLayerGroup" transform="translate(161.000000, 20.500000) rotate(-90.000000) translate(-161.000000, -20.500000) translate(142.000000, -88.000000)" fill="#E7D710">
            <path d="M37.523,51.255 C37.525,23.495 29.164,0.991 18.847,0.991 C8.534,0.991 0.171,23.495 0.169,51.255 C0.169,79.013 8.532,101.517 18.845,101.517 C29.162,101.517 37.523,79.013 37.523,51.255 L37.523,51.255 Z M7.896,51.255 C7.896,27.333 13.48,7.941 18.847,7.941 C24.218,7.941 30.019,27.334 30.019,51.255 C30.019,75.176 24.216,94.569 18.845,94.569 C13.479,94.57 7.896,75.177 7.896,51.255 L7.896,51.255 Z M18.85,216.992 L18.843,216.992 L18.843,216.986 L18.85,216.986 L18.85,216.992 L18.85,216.992 Z" id="Shape" sketch:type="MSShapeGroup"></path>
        </g>
        <path d="M126.513046,113.723748 C121.530506,129.859402 93.7247646,126.94476 87.5311506,120.975791" id="Path-14" stroke="#C7884F" stroke-width="2" sketch:type="MSShapeGroup"></path>
    </g>
</svg>