<?xml version="1.0" encoding="UTF-8" standalone="no"?>
<svg width="136px" height="217px" viewBox="0 0 136 217" version="1.1" xmlns="http://www.w3.org/2000/svg" xmlns:xlink="http://www.w3.org/1999/xlink" xmlns:sketch="http://www.bohemiancoding.com/sketch/ns">
    <!-- Generator: Sketch 3.2.1 (9977) - http://www.bohemiancoding.com/sketch -->
    <title>ball-ornament</title>
    <desc>Created with Sketch.</desc>
    <defs></defs>
    <g id="Page-1" stroke="none" stroke-width="1" fill="none" fill-rule="evenodd" sketch:type="MSPage">
        <g id="ball" sketch:type="MSLayerGroup" transform="translate(-0.328125, 64.812500)" fill="#D52048">
            <path d="M135.541,84.185 C135.541,121.417 105.355,151.617 68.119,151.617 C30.875,151.617 0.676,121.418 0.676,84.185 C0.676,53.499 21.17,27.615 49.207,19.439 C49.555,19.335 49.914,19.23 50.262,19.134 L50.262,4.841 L50.25,4.652 C50.461,3.195 56.75,0.507 68.109,0.507 C79.66,0.507 85.966,3.29 85.966,4.726 L85.966,19.029 L85.954,19.029 L85.954,19.134 C86.313,19.23 86.661,19.335 87.02,19.439 C115.059,27.605 135.541,53.5 135.541,84.185 L135.541,84.185 Z M70.453,216.5 L70.447,216.5 L70.447,216.506 L70.453,216.506 L70.453,216.5 L70.453,216.5 Z" id="Shape" sketch:type="MSShapeGroup"></path>
        </g>
        <g id="cap" sketch:type="MSLayerGroup" transform="translate(48.000000, 58.000000)" fill="#E4CB8D">
            <path d="M38.593,11.937 L38.593,27.294 L38.581,27.294 C38.581,28.972 36.124,30.89 32.78,31.439 C30.085,31.882 27.694,31.298 26.61,30.222 C26.249,29.865 25.86,29.949 25.52,30.384 C24.823,31.273 23.428,32.011 21.674,32.337 C20.143,32.599 18.358,32.47 17.676,32.337 C16.035,32.032 14.711,31.366 13.977,30.556 C13.541,30.076 13.102,29.865 12.739,30.222 C11.655,31.298 9.266,31.882 6.569,31.439 C3.225,30.89 0.778,28.972 0.778,27.304 L0.778,12.052 C0.778,12.011 0.757,11.978 0.757,11.937 C0.757,9.624 6.105,7.664 13.54,6.951 C13.534,6.855 13.524,6.76 13.524,6.664 C13.524,3.262 16.282,0.508 19.68,0.508 C23.08,0.508 25.834,3.262 25.834,6.664 C25.834,6.76 25.824,6.855 25.82,6.953 C33.245,7.664 38.593,9.626 38.593,11.937 L38.593,11.937 Z M17.356,216.5 L17.349,216.5 L17.349,216.506 L17.356,216.506 L17.356,216.5 L17.356,216.5 Z" id="Shape" sketch:type="MSShapeGroup"></path>
        </g>
        <g id="eyes" sketch:type="MSLayerGroup" transform="translate(128.000000, 168.500000) rotate(-90.000000) translate(-128.000000, -168.500000) translate(108.500000, 60.000000)">
            <path d="M38.029,19.197 C38.029,29.511 29.663,37.885 19.341,37.885 C9.024,37.885 0.653,29.512 0.653,19.197 C0.653,8.875 9.023,0.506 19.341,0.506 C29.663,0.505 38.029,8.875 38.029,19.197 L38.029,19.197 Z M19.341,58.707 C9.022,58.707 0.652,67.076 0.652,77.398 C0.652,87.714 9.022,96.089 19.341,96.089 C29.665,96.089 38.029,87.714 38.029,77.398 C38.029,67.076 29.665,58.707 19.341,58.707 L19.341,58.707 Z M19.344,216.5 L19.337,216.5 L19.337,216.506 L19.344,216.506 L19.344,216.5 L19.344,216.5 Z" id="Shape" fill="#FFFFFF" sketch:type="MSShapeGroup"></path>
            <circle id="Oval-2" fill="#000000" sketch:type="MSShapeGroup" cx="18.5" cy="19" r="4.5"></circle>
            <circle id="Oval-2" fill="#000000" sketch:type="MSShapeGroup" cx="18.5" cy="77" r="4.5"></circle>
        </g>
        <g id="hanger" sketch:type="MSLayerGroup" transform="translate(55.000000, 0.000000)" fill="#B2D3CB">
            <path d="M23.42,15.265 C23.408,19.263 22.527,23.328 21.458,27.074 C21.101,28.316 20.767,30.67 19.644,31.574 C18.007,32.888 15.599,31.146 16.349,29.179 L16.355,29.165 L16.375,29.11 C18.512,23.171 21.25,13.842 17.592,8.028 C15.865,5.286 12.297,4.473 9.256,4.917 C5.68,5.437 4.697,8.874 4.51,12.013 C3.979,20.833 7.016,30.025 9.311,38.429 C10.504,42.798 11.739,47.156 12.86,51.542 C13.447,53.837 15.269,58.3 15.322,61.388 C15.334,62.076 15.258,62.693 15.061,63.204 C14.307,65.165 11.35,64.87 11.008,62.794 C10.699,60.907 10.309,59.034 9.885,57.169 C8.916,52.921 7.766,48.716 6.61,44.515 C4.294,36.095 1.719,27.613 0.628,18.923 C0.434,17.38 0.272,15.646 0.253,13.876 C0.195,8.567 1.421,2.937 6.888,1.149 C8.192,0.723 9.508,0.514 10.795,0.504 C16.393,0.459 21.471,4.154 22.839,9.893 C23.253,11.646 23.426,13.449 23.42,15.265 L23.42,15.265 Z M11.838,216.5 L11.832,216.5 L11.832,216.506 L11.838,216.506 L11.838,216.5 L11.838,216.5 Z" id="Shape" sketch:type="MSShapeGroup"></path>
        </g>
        <path d="M92.0119593,191.346005 C82.3441469,199.464684 67.2159819,206.949538 50.5298285,196.796514" id="Path-10" stroke-opacity="0.172554348" stroke="#000000" stroke-width="3" sketch:type="MSShapeGroup"></path>
    </g>
</svg>