<?xml version="1.0" encoding="UTF-8" standalone="no"?>
<svg width="174px" height="217px" viewBox="0 0 174 217" version="1.1" xmlns="http://www.w3.org/2000/svg" xmlns:xlink="http://www.w3.org/1999/xlink" xmlns:sketch="http://www.bohemiancoding.com/sketch/ns">
    <!-- Generator: Sketch 3.2.1 (9977) - http://www.bohemiancoding.com/sketch -->
    <title>candy-cane</title>
    <desc>Created with Sketch.</desc>
    <defs></defs>
    <g id="Page-1" stroke="none" stroke-width="1" fill="none" fill-rule="evenodd" sketch:type="MSPage">
        <path d="M171.737689,96.1495627 C172.201689,95.9245627 172.559689,96.3975627 172.413689,96.8895627 C170.120689,104.592563 161.058689,112.209563 147.548689,113.350563 C147.645689,122.928563 145.965689,130.454563 140.653689,132.143563 C134.006689,134.260563 115.444689,135.106563 98.4486886,123.127563 C97.5106886,123.625563 96.4616886,123.953563 95.3356886,124.065563 L83.0776886,125.290563 C81.9526886,125.401563 80.8586886,125.288563 79.8296886,124.977563 C65.5386886,140.090563 47.1866886,142.932563 40.2516886,142.168563 C34.7136886,141.564563 31.5656886,134.522563 29.7696886,125.111563 C16.2286886,126.675563 5.79868855,120.929563 2.07968855,113.781563 C1.86268855,113.365563 2.10968855,112.885563 2.56868855,113.011563 C6.00668855,113.962563 14.7086886,112.761563 18.1056886,108.609563 C12.4646886,106.000563 6.62768855,97.2165627 5.24868855,86.9275627 C5.19568855,86.5405627 5.63368855,86.1775627 5.94568855,86.4175627 C10.1516886,89.6285627 20.4846886,96.2965627 29.0676886,99.6985627 C30.7866886,89.3765627 34.9926886,79.9305627 41.6576886,79.2645627 C51.7406886,78.2565627 72.1226886,92.9985627 80.1976886,105.688563 C80.4986886,105.624563 80.8016886,105.575563 81.1056886,105.543563 L93.3656886,104.318563 C93.6706886,104.287563 93.9756886,104.279563 94.2726886,104.269563 C99.6986886,90.2325627 116.763689,71.7615627 126.835689,70.7555627 C133.490689,70.0915627 139.481689,78.5075627 143.208689,88.2865627 C150.749689,83.3915627 159.315689,75.1225627 162.970689,71.0205627 C163.346689,70.5985627 164.025689,70.9135627 164.054689,71.4205627 C164.623689,81.6475627 160.683689,91.2315627 155.715689,94.8615627 C159.832689,98.2355627 168.489689,97.7295627 171.737689,96.1495627 L171.737689,96.1495627 Z" id="Path" fill="#999C2A" sketch:type="MSShapeGroup"></path>
        <g id="cane_white" sketch:type="MSLayerGroup" transform="translate(1.000000, 0.000000)" fill="#F1E8D8">
            <path d="M106.33,44.48 C103.542,32.392 97.962,20.728 88.507,12.455 C78.7,3.867 65.927,0.199 53.038,0.443 C40.39,0.664 27.955,5.07 18.679,13.818 C9.53,22.429 4.287,34.263 2.113,46.498 C0.844,53.65 0.539,60.932 0.898,68.189 C0.898,68.242 0.908,68.294 0.908,68.347 C1.637,76.546 7.048,89.595 22.25,87.238 C37.56,84.873 37.719,73.525 37.719,64.047 L37.73,64.047 C37.666,60.846 37.834,57.654 38.279,54.496 C38.976,49.572 40.402,43.961 44.269,40.527 C48.338,36.947 55.173,36.662 60.171,38.131 C65.305,39.641 67.852,44.629 69.372,49.383 C71.064,54.666 71.697,60.276 71.941,65.791 C72.446,77.646 71.074,89.562 69.087,101.227 C65.146,124.399 58.501,147.092 51.011,169.332 C48.338,177.258 45.538,185.129 42.622,192.957 C40.688,198.103 39.272,209.588 52.944,214.533 C56.62,215.863 59.858,216.461 62.696,216.429 C70.135,216.351 74.835,211.964 77.518,205.183 C77.623,204.929 77.719,204.663 77.814,204.4 C84.692,185.857 90.99,167.082 96.283,148.011 C102.866,124.302 108.264,99.8 108.952,75.109 C109.235,64.849 108.644,54.496 106.33,44.48 L106.33,44.48 Z" id="Shape" sketch:type="MSShapeGroup"></path>
        </g>
        <g id="cane_red" sketch:type="MSLayerGroup" transform="translate(134.000000, 136.000000)"></g>
        <path d="M52,164.617038 C55.452,149.773038 62.035,134.179038 73.96,121.392038 C76.389,126.712038 78.696,132.072038 80.929,137.437038 C84.986,147.183038 88.769,157.042038 92.322,166.984038 C81.86,179.187038 73.357,196.838038 68.709,210.685038 C67.602,209.001038 66.869,207.294038 66.434,205.917038 C63.899,197.956038 61.246,190.034038 58.458,182.149038 C56.382,176.287038 54.238,170.435038 52,164.617038 L52,164.617038 Z" id="Shape" fill="#D52048" sketch:type="MSShapeGroup" transform="translate(72.161000, 166.038538) rotate(38.000000) translate(-72.161000, -166.038538) "></path>
        <path d="M56.98231,53.652 C55.16231,51.457 53.48631,49.168 52.00131,46.748 C50.55731,44.391 49.14831,41.73 48.31331,38.949 C38.91131,36.943 22.72831,20.976 24.95131,-0.569 C17.45331,7.206 12.29531,17.079 10.95631,27.931 C9.40630996,40.4 12.92131,52.857 19.05231,63.663 C19.18631,63.909 19.33531,64.157 19.47931,64.393 C29.83731,68.103 46.37331,68.453 56.98231,53.652 L56.98231,53.652 Z" id="Path" fill="#D52048" sketch:type="MSShapeGroup" transform="translate(33.786785, 32.989955) rotate(39.000000) translate(-33.786785, -32.989955) "></path>
        <path d="M107.830941,44.802 C94.4979407,40.195 79.3789407,40.777 70.8719407,49.05 C72.1829407,53.804 72.7109407,58.79 72.9239407,63.693 C73.3669407,74.154 72.3529407,84.656 70.7359407,95 C81.7119407,85.217 99.0189407,75.273 109.954941,72.084 C110.166941,62.952 109.658941,53.751 107.830941,44.802 L107.830941,44.802 Z" id="Path" fill="#D52048" sketch:type="MSShapeGroup" transform="translate(90.367970, 68.462038) rotate(-1.000000) translate(-90.367970, -68.462038) "></path>
        <path d="M126.555505,70.5367685 C116.483505,71.5427685 99.4175052,90.0137685 93.9925052,104.050769 C93.6955052,104.060769 93.3895052,104.068769 93.0855052,104.099769 L80.8255052,105.324769 C80.5215052,105.355769 80.2185052,105.404769 79.9175052,105.469769 C71.8425052,92.7807685 51.4605052,78.0377685 41.3775052,79.0457685 C31.2235052,80.0597685 26.7555052,101.465769 28.1385052,115.301769 C29.5205052,129.147769 32.6735052,141.149769 39.9725052,141.947769 C46.9085052,142.711769 65.2595052,139.869769 79.5505052,124.756769 C80.5795052,125.067769 81.6735052,125.180769 82.7985052,125.069769 L95.0565052,123.844769 C96.1825052,123.733769 97.2315052,123.405769 98.1695052,122.906769 C115.165505,134.885769 133.727505,134.039769 140.374505,131.922769 C147.371505,129.693769 148.077505,117.307769 146.694505,103.459769 C145.313505,89.6247685 136.700505,69.5247685 126.555505,70.5367685 L126.555505,70.5367685 Z" id="Path" fill="#ACAF37" sketch:type="MSShapeGroup"></path>
        <path d="M92.7278924,104.329223 L80.4678924,105.554223 C80.1638924,105.585223 79.8608924,105.634223 79.5598924,105.699223 C75.3888924,106.572223 72.4648924,110.463223 72.8988924,114.804223 L73.1898924,117.728223 C73.5428924,121.249223 75.9988924,124.052223 79.1928924,124.986223 C80.2218924,125.297223 81.3158924,125.410223 82.4408924,125.299223 L94.6988924,124.074223 C95.8248924,123.963223 96.8738924,123.635223 97.8118924,123.136223 C100.756892,121.577223 102.622892,118.345223 102.269892,114.823223 L101.978892,111.899223 C101.548892,107.612223 97.9888924,104.393223 93.7968924,104.282223 C93.7418924,104.282223 93.6898924,104.280223 93.6348924,104.280223 C93.3388924,104.290223 93.0328924,104.298223 92.7278924,104.329223 L92.7278924,104.329223 Z" id="Path" fill="#B8BB4A" sketch:type="MSShapeGroup"></path>
        <g id="eyes" sketch:type="MSLayerGroup" transform="translate(149.000000, 95.500000) rotate(-97.000000) translate(-149.000000, -95.500000) translate(130.000000, -13.000000)" fill="#FFFFFF">
            <path d="M17.237,54.195 C27.518,53.168 36.695,60.675 37.722,70.963 C38.75,81.244 31.239,90.42 20.957,91.447 C10.67,92.474 1.496,84.965 0.468,74.683 C-0.559,64.396 6.951,55.222 17.237,54.195 L17.237,54.195 Z M0.468,21.013 C1.493,31.296 10.668,38.806 20.955,37.779 C31.239,36.754 38.751,27.576 37.724,17.293 C36.757,7.609 28.574,0.393 19.04,0.432 C18.443,0.434 17.841,0.465 17.234,0.526 C6.947,1.552 -0.56,10.724 0.468,21.013 L0.468,21.013 Z M19.1,216.425 L19.092,216.425 L19.092,216.431 L19.1,216.431 L19.1,216.425 L19.1,216.425 Z" id="Shape" sketch:type="MSShapeGroup"></path>
        </g>
        <circle id="Oval-2" fill="#000000" sketch:type="MSShapeGroup" cx="103.5" cy="105.5" r="4.5"></circle>
        <circle id="Oval-2" fill="#000000" sketch:type="MSShapeGroup" cx="69.5" cy="109.5" r="4.5"></circle>
    </g>
</svg>