<?xml version="1.0" encoding="UTF-8" standalone="no"?>
<svg width="121px" height="217px" viewBox="0 0 121 217" version="1.1" xmlns="http://www.w3.org/2000/svg" xmlns:xlink="http://www.w3.org/1999/xlink" xmlns:sketch="http://www.bohemiancoding.com/sketch/ns">
    <!-- Generator: Sketch 3.2.1 (9977) - http://www.bohemiancoding.com/sketch -->
    <title>Slice 1</title>
    <desc>Created with Sketch.</desc>
    <defs></defs>
    <g id="Page-1" stroke="none" stroke-width="1" fill="none" fill-rule="evenodd" sketch:type="MSPage">
        <g id="Cardinal" sketch:type="MSLayerGroup">
            <g id="Group" sketch:type="MSShapeGroup">
                <path d="M88.063,176.732 C90.024,175.709 91.924,174.601 93.702,173.392 L93.702,173.382 C97.513,170.79 100.8,167.767 103.173,164.37 C104.794,165.753 106.607,167.007 108.634,168.106 C131.372,152.489 114.245,118.106 106.773,110.631 C114.099,100.867 118.441,88.733 118.441,75.59 C118.441,75.149 118.441,74.709 118.433,74.279 C117.919,46.994 101.634,36.759 91.111,30.742 C82.603,25.883 69.115,12.42 63.031,2.203 C61.478,-0.406 58.629,-0.533 57.142,1.992 C51.119,12.232 37.496,25.849 28.929,30.742 C18.413,36.76 2.118,46.994 1.607,74.279 C1.597,74.709 1.597,75.148 1.597,75.59 C1.597,88.733 5.939,100.867 13.267,110.631 C5.792,118.106 -11.335,152.488 11.408,168.106 C13.431,167.006 15.246,165.752 16.867,164.37 C19.238,167.776 22.537,170.79 26.346,173.391 C28.125,174.606 30.026,175.715 31.987,176.739 C32.067,180.749 32.227,184.8 31.878,188.803 C31.675,191.117 31.358,193.955 29.374,195.483 C25.56,198.426 22.534,192.233 19.436,191.135 C16.04,189.93 11.682,191.639 9.295,194.123 C8.289,195.172 11.565,196.283 12.078,196.684 C13.422,197.725 14.277,199.19 15.551,200.28 C19.184,203.395 21.739,199.012 25.494,199.624 C27.027,199.864 28.685,201.56 26.859,202.894 C25.242,204.062 23.181,204.595 21.375,205.406 C20.064,205.996 18.445,206.724 17.686,208.021 C16.831,209.476 17.125,211.359 16.141,212.886 C14.039,216.146 23.491,215.111 24.866,214.644 C28.37,213.46 29.114,210.32 31.747,208.175 C37.997,203.087 47.499,212.765 53.222,206.642 L53.322,206.531 C54.043,205.767 54.656,205.117 55.191,204.574 C57.791,201.951 51.378,200.142 49.976,199.937 C47.992,199.646 45.972,199.906 44.097,200.607 C42.73,201.121 40.683,202.388 39.738,200.429 C39.236,199.394 39.55,197.618 39.59,196.511 C39.651,194.814 39.774,193.118 39.924,191.427 C40.238,187.847 40.668,184.273 41.262,180.73 C47.938,183.043 54.664,184.273 60.028,184.273 C65.383,184.273 72.114,183.041 78.792,180.726 C79.763,186.513 80.501,192.476 80.501,198.349 C80.501,199.443 80.62,200.626 79.517,201.245 C78.054,202.065 76.509,200.743 75.115,200.323 C71.818,199.337 68.377,199.903 65.42,201.596 C64.586,202.073 64.17,203.879 64.734,204.442 C65.302,205.01 65.955,205.704 66.734,206.53 L66.834,206.641 C72.055,212.227 80.688,204.498 86.723,207.192 C89.514,208.438 90.278,211.362 92.51,213.18 C95.149,215.338 98.789,215.475 102.026,215.092 C103.864,214.873 103.669,212.678 103.215,211.516 C102.498,209.664 102.908,208.051 101.154,206.77 C99.326,205.438 91.72,203.895 92.525,200.915 C92.886,199.583 94.74,199.487 95.869,199.487 C97.974,199.487 99.256,201.538 101.42,201.538 C104.973,201.538 106.516,197.214 109.406,195.772 C110.892,195.032 109.601,193.036 108.752,192.512 C107.008,191.434 104.924,190.785 102.865,190.785 C98.558,190.785 96.191,197.129 92.019,196.142 C89.101,195.453 88.499,191.878 88.236,189.406 C87.787,185.215 87.982,180.941 88.063,176.732 L88.063,176.732 Z" id="Shape" fill="#D52048"></path>
                <g transform="translate(7.000000, 176.000000)" id="Shape" fill="#E4CB8D">
                    <path d="M34.988,24.559 C34.541,24.797 33.531,24.405 33.504,23.829 C33.258,19.751 34.184,10.821 35.135,5.032 C32.947,4.309 30.748,3.466 28.606,2.503 C27.057,1.817 25.538,1.065 24.061,0.261 C24.237,9.337 24.346,16.124 22.332,18.286 C19.766,21.034 17.457,17.69 14.115,15.016 C11.111,12.625 3.974,14.045 0.705,18.598 C0.32,19.129 0.844,20.008 1.383,20.053 C3.885,20.264 5.862,22.535 6.852,23.817 C8.061,25.366 11.286,28.241 15.581,24.917 C16.661,24.075 17.917,24.495 18.886,24.606 C19.958,24.715 19.757,25.833 19.318,26.153 C16.964,27.856 9.683,29.139 9.463,32.93 C9.309,35.44 8.1,36.996 7.045,37.885 C6.211,38.61 6.881,39.278 7.568,39.424 C14.445,40.916 20.261,40.477 23.312,35.303 C26.664,29.635 31.398,31.649 35.906,32.756 C40.412,33.865 44.533,33.793 46.888,31.264 C48.482,29.571 49.581,28.397 50.433,27.801 C50.835,27.518 50.808,26.711 50.433,26.408 C46.639,23.342 41.143,21.299 34.988,24.559 L34.988,24.559 Z"></path>
                    <path d="M105.35,18.598 C102.071,14.045 94.936,12.625 91.93,15.016 C88.588,17.69 86.28,21.034 83.715,18.286 C81.699,16.124 81.811,9.337 81.985,0.261 C80.501,1.066 78.981,1.818 77.432,2.503 C75.289,3.466 73.1,4.31 70.911,5.032 C71.866,10.821 72.79,19.751 72.542,23.829 C72.515,24.405 71.507,24.798 71.058,24.559 C64.902,21.299 59.408,23.342 55.617,26.409 C55.242,26.712 55.213,27.518 55.617,27.802 C56.469,28.398 57.568,29.572 59.162,31.265 C61.516,33.794 65.637,33.867 70.144,32.757 C74.648,31.65 79.384,29.636 82.736,35.304 C85.787,40.478 91.603,40.917 98.482,39.425 C99.168,39.279 99.837,38.611 99.003,37.886 C97.95,36.997 96.739,35.441 96.583,32.931 C96.366,29.14 89.083,27.857 86.729,26.154 C86.29,25.834 86.088,24.716 87.161,24.607 C88.132,24.496 89.386,24.076 90.466,24.918 C94.763,28.242 97.987,25.367 99.196,23.818 C100.184,22.537 102.163,20.265 104.663,20.054 C105.203,20.008 105.725,19.129 105.35,18.598 L105.35,18.598 Z"></path>
                </g>
                <path d="M104.547,84.695 C100.266,77.707 97.074,70.277 98.365,64.502 C98.525,63.791 98.023,63.25 97.31,63.572 C92.015,65.955 79.964,65.773 73.406,72.33 C65.965,79.771 63.804,87.213 60.019,87.213 C56.232,87.213 54.074,79.772 46.632,72.33 C40.14,65.84 28.269,65.953 22.894,63.644 C22.105,63.306 21.576,63.98 21.736,64.798 C22.853,70.53 19.699,77.825 15.49,84.694 C11.318,91.503 11.597,105.301 29,114.51 C44.283,122.596 52.064,124.448 58.748,132.567 C59.174,133.087 60.891,133.055 61.332,132.522 C68.004,124.44 75.785,122.581 91.037,114.51 C108.439,105.303 108.719,91.504 104.547,84.695 L104.547,84.695 Z" id="Shape" fill="#433739"></path>
                <path d="M72.26,106.219 C72.26,106.219 66.307,100.953 60.018,100.953 C53.731,100.953 47.776,106.219 47.776,106.219 C47.776,106.219 56.231,117.194 60.018,117.198 L60.018,117.198 L60.02,117.198 C63.807,117.193 72.26,106.219 72.26,106.219 L72.26,106.219 Z" id="Shape" fill="#E4CB8D"></path>
                <g transform="translate(20.000000, 77.000000)" id="Shape">
                    <g>
                        <path d="M14.758,0.332 C22.401,0.332 28.604,6.531 28.604,14.18 C28.604,21.826 22.401,28.028 14.758,28.028 C7.108,28.028 0.904,21.827 0.904,14.18 C0.904,6.531 7.107,0.332 14.758,0.332 L14.758,0.332 Z" fill="#FFFFFF"></path>
                        <path d="M65.291,0.332 C57.646,0.332 51.441,6.531 51.441,14.18 C51.441,21.826 57.646,28.028 65.291,28.028 C72.937,28.028 79.139,21.827 79.139,14.18 C79.139,6.531 72.938,0.332 65.291,0.332 L65.291,0.332 Z" fill="#FFFFFF"></path>
                        <path d="M21.322,19.898 C23.765,19.898 25.748,17.919 25.748,15.476 C25.748,13.029 23.766,11.05 21.322,11.05 C18.875,11.05 16.898,13.029 16.898,15.476 C16.898,17.92 18.875,19.898 21.322,19.898 L21.322,19.898 Z" fill="#433739"></path>
                    </g>
                    <path d="M70.941,11.051 C68.498,11.051 66.517,13.03 66.517,15.477 C66.517,17.92 68.497,19.899 70.941,19.899 C73.385,19.899 75.367,17.92 75.367,15.477 C75.367,13.029 73.385,11.051 70.941,11.051 L70.941,11.051 Z" fill="#433739"></path>
                </g>
                <path d="M28.396,134.014 C29.73,138.321 28.804,148.928 22.65,157.93 M91.645,134.014 C90.307,138.321 91.233,148.928 97.389,157.93" id="Shape" stroke="#740A10"></path>
            </g>
        </g>
    </g>
</svg>