<?xml version="1.0" encoding="UTF-8" standalone="no"?>
<svg width="165px" height="226px" viewBox="0 0 165 226" version="1.1" xmlns="http://www.w3.org/2000/svg" xmlns:xlink="http://www.w3.org/1999/xlink" xmlns:sketch="http://www.bohemiancoding.com/sketch/ns">
    <!-- Generator: Sketch 3.2.1 (9977) - http://www.bohemiancoding.com/sketch -->
    <title>christmas-tree</title>
    <desc>Created with Sketch.</desc>
    <defs></defs>
    <g id="Page-1" stroke="none" stroke-width="1" fill="none" fill-rule="evenodd" sketch:type="MSPage">
        <g id="tree" sketch:type="MSLayerGroup" transform="translate(0.000000, 14.000000)">
            <path d="M164.536923,184.603488 C164.528923,185.237488 164.277923,185.878488 163.746923,186.250488 C149.601923,196.246488 128.316923,209.617488 82.5069231,209.617488 C36.5319231,209.617488 15.2689231,196.148488 1.12392307,186.142488 C-0.0330769279,185.324488 0.208923072,183.171488 1.42392307,182.814488 C13.2039231,179.408488 25.4769231,172.558488 34.9209231,159.398488 L34.9419231,159.359488 C23.1009231,154.652488 13.5209231,148.670488 8.14692307,142.698488 C7.28992307,141.743488 7.94592307,139.774488 9.01592307,139.630488 C19.3499231,138.317488 32.5679231,130.851488 41.9149231,121.511488 C31.8149231,116.677488 22.4449231,110.290488 15.5669231,102.765488 C14.7569231,101.876488 15.1129231,98.9454878 16.0399231,98.3554878 C53.6099231,74.3324878 75.5989231,17.7164878 81.7359231,1.0914878 C81.8839231,0.691487803 82.1979231,0.488487803 82.5099231,0.486487803 C82.8239231,0.483487803 83.1379231,0.681487803 83.2869231,1.0824878 C89.5299231,17.9774878 112.173923,76.3184878 150.969923,99.5824878 C151.122923,99.6764878 151.211923,100.005488 151.216923,100.324488 C151.219923,100.564488 151.175923,100.798488 151.075923,100.922488 C144.090923,109.248488 134.025923,116.281488 123.103923,121.512488 C132.472923,130.871488 145.730923,138.348488 156.082923,139.641488 C156.759923,139.729488 157.224923,140.623488 157.221923,141.511488 C157.220923,141.990488 157.081923,142.467488 156.768923,142.815488 C151.366923,148.748488 141.841923,154.671488 130.081923,159.361488 L130.099923,159.400488 C139.496923,172.504488 151.703923,179.343488 163.436923,182.777488 C164.153923,182.982488 164.546923,183.787488 164.536923,184.603488 L164.536923,184.603488 Z" id="Path" fill="#82873B" sketch:type="MSShapeGroup"></path>
            <path d="M155.861107,139.153354 C145.509107,137.860354 132.252107,130.383354 122.882107,121.023354 C133.804107,115.794354 143.868107,108.761354 150.854107,100.435354 C151.085107,100.146354 151.017107,99.2593538 150.748107,99.0953538 C111.952107,75.8313538 89.3091075,17.4903538 83.0651075,0.5953538 C82.9191075,0.2063538 82.6201075,0.00935379983 82.3161075,0.000353799827 C81.9941075,-0.00964620017 81.6661075,0.1923538 81.5131075,0.6043538 C75.3751075,17.2273538 53.3871075,73.8423538 15.8171075,97.8683538 C14.8901075,98.4583538 14.5351075,101.389354 15.3441075,102.276354 C22.2221075,109.803354 31.5921075,116.190354 41.6921075,121.022354 C32.3441075,130.363354 19.1271075,137.830354 8.79310749,139.142354 C7.72310749,139.287354 7.06610749,141.253354 7.92410749,142.210354 C13.2981075,148.183354 22.8781075,154.165354 34.7191075,158.872354 C48.5261075,164.360354 65.4081075,168.124354 82.2831075,168.124354 L82.2931075,168.124354 C99.1671075,168.124354 116.052107,164.360354 129.860107,158.872354 C141.620107,154.183354 151.144107,148.259354 156.547107,142.323354 C157.443107,141.334354 156.902107,139.287354 155.861107,139.153354 L155.861107,139.153354 Z" id="Path" fill="#8C904E" sketch:type="MSShapeGroup"></path>
            <path d="M150.258995,99.096058 C111.462995,75.832058 88.8199954,17.491058 82.5759954,0.596057975 C82.4299954,0.201057975 82.1229954,0.00405797462 81.8139954,5.79746228e-05 C81.4959954,-0.00394202538 81.1749954,0.199057975 81.0239954,0.605057975 C74.8859954,17.230058 52.8979954,73.845058 15.3279954,97.869058 C14.7549954,98.234058 14.3999954,99.495058 14.4039954,100.614058 C14.4079954,101.304058 14.5469954,101.940058 14.8549954,102.279058 C21.7329954,109.803058 31.1029954,116.190058 41.2029954,121.024058 C54.7979954,127.545058 69.7439954,131.280058 81.7939954,131.280058 C93.8549954,131.280058 108.799995,127.546058 122.393995,121.024058 C133.315995,115.794058 143.379995,108.760058 150.365995,100.435058 C150.596995,100.147058 150.528995,99.260058 150.258995,99.096058 L150.258995,99.096058 Z" id="Path" fill="#A4A774" sketch:type="MSShapeGroup"></path>
        </g>
        <g id="ornaments" sketch:type="MSLayerGroup" transform="translate(28.000000, 53.000000)" fill="#D52048">
            <path d="M21.695,117.722 C21.695,123.475 17.032,128.139 11.276,128.139 C5.521,128.139 0.855,123.475 0.855,117.722 C0.855,111.964 5.521,107.302 11.276,107.302 C17.032,107.302 21.695,111.964 21.695,117.722 L21.695,117.722 Z M35.616,0.487 C29.862,0.487 25.195,5.151 25.195,10.907 C25.195,16.665 29.862,21.329 35.616,21.329 C41.37,21.329 46.034,16.665 46.034,10.907 C46.034,5.151 41.37,0.487 35.616,0.487 L35.616,0.487 Z M79.279,130.32 C73.525,130.32 68.858,134.986 68.858,140.74 C68.858,146.496 73.525,151.16 79.279,151.16 C85.035,151.16 89.698,146.496 89.698,140.74 C89.698,134.986 85.035,130.32 79.279,130.32 L79.279,130.32 Z M96.7,73.139 C90.944,73.139 86.278,77.805 86.278,83.559 C86.278,89.315 90.944,93.981 96.7,93.981 C102.454,93.981 107.118,89.315 107.118,83.559 C107.118,77.805 102.454,73.139 96.7,73.139 L96.7,73.139 Z M24.701,186.479 L24.695,186.479 L24.695,186.486 L24.701,186.486 L24.701,186.479 L24.701,186.479 Z" id="Shape" sketch:type="MSShapeGroup"></path>
        </g>
        <g id="eyes" sketch:type="MSLayerGroup" transform="translate(148.500000, 110.750000) rotate(-90.000000) translate(-148.500000, -110.750000) translate(123.000000, 2.250000)">
            <path d="M28.7045916,36.6846175 C28.7045921,53.2150969 1.94903118,55.4848895 -10.5343415,50.6818232" id="Path-15" stroke-opacity="0.153504303" stroke="#000000" stroke-width="3" sketch:type="MSShapeGroup" transform="translate(9.085125, 44.793040) rotate(-270.000000) translate(-9.085125, -44.793040) "></path>
            <path d="M50.195,66.957 C50.195,76.395 42.542,84.055 33.099,84.055 C23.661,84.055 16.005,76.395 16.005,66.957 C16.005,57.516 23.661,49.862 33.099,49.862 C42.542,49.862 50.195,57.516 50.195,66.957 L50.195,66.957 Z M33.1,0.487 C23.664,0.487 16.008,8.141 16.008,17.583 C16.008,27.019 23.664,34.677 33.1,34.677 C42.54,34.677 50.196,27.019 50.196,17.583 C50.195,8.142 42.54,0.487 33.1,0.487 L33.1,0.487 Z M33.104,216.479 L33.098,216.479 L33.098,216.486 L33.104,216.486 L33.104,216.479 L33.104,216.479 Z" id="Shape" fill="#FFFFFF" sketch:type="MSShapeGroup"></path>
            <circle id="Oval-2" fill="#000000" sketch:type="MSShapeGroup" cx="35.75" cy="56.5" r="4.5"></circle>
            <circle id="Oval-2" fill="#000000" sketch:type="MSShapeGroup" cx="35.75" cy="7.5" r="4.5"></circle>
        </g>
        <g id="star" sketch:type="MSLayerGroup" transform="translate(64.000000, 0.000000)" fill="#E4CB8D">
            <path d="M18.514,0.487 L24.041,11.683 L36.4,13.48 L27.455,22.197 L29.566,34.506 L18.513,28.693 L7.46,34.506 L9.569,22.197 L0.628,13.48 L12.987,11.683 L18.514,0.487 L18.514,0.487 Z M18.518,216.479 L18.512,216.479 L18.512,216.486 L18.518,216.486 L18.518,216.479 L18.518,216.479 Z" id="Shape" sketch:type="MSShapeGroup"></path>
        </g>
    </g>
</svg>