<?xml version="1.0" encoding="UTF-8" standalone="no"?>
<svg width="163px" height="217px" viewBox="0 0 163 217" version="1.1" xmlns="http://www.w3.org/2000/svg" xmlns:xlink="http://www.w3.org/1999/xlink" xmlns:sketch="http://www.bohemiancoding.com/sketch/ns">
    <!-- Generator: Sketch 3.2.1 (9977) - http://www.bohemiancoding.com/sketch -->
    <title>Slice 1</title>
    <desc>Created with Sketch.</desc>
    <defs></defs>
    <g id="Page-1" stroke="none" stroke-width="1" fill="none" fill-rule="evenodd" sketch:type="MSPage">
        <g id="Elf" sketch:type="MSLayerGroup">
            <g id="Group" sketch:type="MSShapeGroup">
                <path d="M142.765,92.328 L142.775,92.338 C149.969,94.637 168.631,87.692 159.607,54.672 C159.284,53.496 157.914,53.258 157.464,54.412 C155.697,59.017 152.725,64.039 150.489,67.512 C148.793,70.153 147.682,68.811 147.682,67.231 C147.682,30.54 117.946,0.795 81.256,0.795 C44.565,0.795 14.82,30.539 14.82,67.231 C14.82,68.811 13.708,70.153 12.013,67.512 C9.778,64.039 6.803,59.018 5.036,54.412 C4.589,53.258 3.217,53.496 2.893,54.672 C-6.131,87.692 12.542,94.637 19.737,92.338 C23.676,101.965 29.8,110.471 37.506,117.207 L37.495,117.217 C20.87,124.381 3.352,140.506 7.978,151.256 C12.666,162.143 32.723,155.438 32.723,155.438 C34.802,167.165 35.446,191.524 32.723,193.948 C29.997,196.368 25.422,198.968 25.422,204.405 C25.422,209.854 51.747,215.708 70.109,211.944 C77.484,209.13 75.277,189.399 81.255,189.264 C87.234,189.409 84.953,206.803 92.389,211.944 C110.75,215.708 137.065,209.854 137.065,204.405 C137.065,198.967 132.501,196.368 129.767,193.948 C127.041,191.524 127.698,167.165 129.767,155.438 C129.767,155.438 149.822,162.143 154.52,151.256 C159.148,140.506 141.629,124.402 125.005,117.217 L124.994,117.207 C132.701,110.471 138.833,101.965 142.765,92.328 L142.765,92.328 Z" id="Shape" fill="#F1CEAE"></path>
                <path d="M148.919,193.469 C147.638,188.174 144.149,183.932 139.838,182.145 C138.969,181.784 138.035,183.055 138.413,183.766 C138.963,184.795 139.371,185.899 139.643,187.034 C140.118,189.018 140.224,191.194 139.6,193.159 C138.181,197.612 132.056,198.083 129.819,193.989 C129.798,193.977 129.789,193.958 129.768,193.948 C128.842,193.11 128.694,191.292 128.529,190.151 C128.359,189.012 128.254,187.862 128.175,186.713 C127.97,183.777 127.939,180.832 127.976,177.893 C128.055,171.356 128.437,164.786 129.323,158.307 C114.211,165.26 97.537,165.178 81.258,165.178 C64.971,165.178 48.289,165.264 33.173,158.307 C34.065,164.784 34.444,171.352 34.522,177.887 C34.556,180.825 34.524,183.77 34.321,186.703 C34.175,188.779 34.295,192.451 32.694,193.976 C30.457,198.091 24.342,197.607 22.913,193.158 C22.283,191.195 22.387,189.017 22.862,187.033 C23.101,186.039 23.445,185.068 23.893,184.15 C24.293,183.336 23.136,181.9 22.126,182.369 C16.954,184.767 13.654,190.549 13.133,196.148 C12.408,203.947 17.278,209.763 24.088,212.861 C31.707,216.328 39.984,214.549 47.983,213.924 C52.438,213.578 56.786,213.744 61.226,214.121 C64.343,214.387 67.628,214.385 70.638,213.422 C72.527,212.817 74.32,211.754 75.404,210.047 C76.946,207.621 76.495,205.315 75.883,202.701 C77.193,200.609 78.773,189.326 81.258,189.263 C83.743,189.326 85.314,200.609 86.623,202.71 C86.221,204.415 85.764,205.796 86.119,207.56 C86.381,208.853 86.962,210.062 87.861,211.031 C89.632,212.937 92.29,213.726 94.794,214.056 C98.38,214.529 101.911,213.949 105.493,213.761 C109.843,213.532 114.179,213.847 118.504,214.294 C126.431,215.114 134.133,215.708 141.212,211.37 C147.575,207.469 150.719,200.863 148.919,193.469" id="Shape" fill="#82873B"></path>
                <path d="M141.382,127.094 C136.433,123.145 130.662,119.662 125.007,117.217 L124.996,117.207 C113.31,127.459 98.006,133.666 81.257,133.666 C64.496,133.666 49.194,127.459 37.508,117.207 L37.497,117.217 C31.83,119.662 26.071,123.145 21.112,127.094 C18.926,128.83 16.9,130.662 15.101,132.533 L15.111,132.543 L26.517,156.924 L28.056,160.219 L33.171,158.307 C49.369,165.76 67.044,165.178 81.256,165.178 C95.458,165.178 113.122,165.76 129.321,158.307 L129.331,158.307 L134.446,160.219 L135.985,156.924 L147.399,132.553 L147.399,132.543 C145.591,130.662 143.564,128.83 141.382,127.094 L141.382,127.094 Z" id="Shape" fill="#BCBA51"></path>
                <path d="M125.007,117.217 L124.996,117.207 C113.31,127.459 98.006,133.666 81.257,133.666 C64.496,133.666 49.194,127.459 37.508,117.207 L37.497,117.217 L17.307,122.791 C17.774,124.008 19.137,125.576 21.113,127.094 C26.392,131.16 36.083,134.84 44.827,130.412 C43.653,141.682 50.234,149.125 50.234,149.125 C56.036,149.125 64.423,144.125 68.428,140.121 C68.428,147.223 81.247,154.844 81.247,154.844 C81.247,154.844 94.076,147.223 94.076,140.121 C98.068,144.125 106.469,149.125 112.27,149.125 C112.27,149.125 118.851,141.682 117.675,130.412 C126.409,134.83 136.099,131.16 141.381,127.094 C143.357,125.588 144.717,124.018 145.186,122.791 L125.007,117.217 L125.007,117.217 Z" id="Shape" fill="#82873B"></path>
                <g transform="translate(12.000000, 0.000000)">
                    <path d="M134.527,88.48 C134.194,88.48 133.863,88.492 133.53,88.523 C132.728,82.294 131.7,75.777 130.514,69.308 C133.28,70.859 135.078,71.845 135.702,71.845 C138.644,71.845 139.777,55.21 132.76,39.876 C131.99,39.345 131.084,38.794 130.077,38.222 C125.918,29.593 119.961,21.972 112.703,15.88 C100.956,5.982 85.798,0.025 69.246,0.025 C42.475,0.025 19.351,15.621 8.434,38.213 L8.434,38.223 L8.424,38.223 C7.414,38.795 6.511,39.346 5.741,39.877 C-1.277,55.211 -0.154,71.846 2.799,71.846 C5.741,71.846 34.249,50.274 69.245,50.274 C89.362,50.274 107.327,57.395 119.533,63.446 C123.318,70.983 125.781,82.825 127.124,90.78 C123.672,93.139 121.405,97.1 121.405,101.602 C121.405,108.86 127.28,114.733 134.525,114.733 C141.782,114.733 147.657,108.86 147.657,101.602 C147.659,94.355 141.784,88.48 134.527,88.48 L134.527,88.48 Z" id="Shape" fill="#BCBA51"></path>
                    <g transform="translate(0.000000, 21.000000)" id="Shape" fill="#FFFFFF">
                        <path d="M90.653,3.426 C83.333,1.899 75.962,0.942 69.247,0.942 C48.088,0.942 20.382,10.434 8.435,17.213 L8.435,17.223 L8.425,17.223 C7.415,17.795 6.512,18.346 5.742,18.877 C-1.276,34.211 -0.153,50.846 2.8,50.846 C5.742,50.846 34.25,29.274 69.246,29.274 C89.363,29.274 107.328,36.395 119.534,42.446 C119.274,41.907 118.994,41.397 118.714,40.909 C114.026,32.768 104.149,15.01 90.653,3.426 L90.653,3.426 Z"></path>
                        <path d="M132.761,18.877 C131.991,18.346 131.085,17.795 130.078,17.223 C127.852,15.955 125.087,14.604 121.907,13.221 C125.036,22.723 127.946,34.731 130.264,46.989 C130.347,47.436 130.431,47.874 130.514,48.309 C133.28,49.86 135.078,50.846 135.702,50.846 C138.646,50.846 139.778,34.211 132.761,18.877 L132.761,18.877 Z"></path>
                    </g>
                    <circle id="Oval" fill="#FFFFFF" cx="134.533" cy="101.607" r="14.426"></circle>
                </g>
                <g transform="translate(34.000000, 66.000000)" id="Shape">
                    <g>
                        <g>
                            <path d="M18.576,0.391 C28.742,0.391 36.994,8.639 36.994,18.813 C36.994,28.979 28.742,37.231 18.576,37.231 C8.403,37.231 0.152,28.979 0.152,18.813 C0.152,8.639 8.403,0.391 18.576,0.391 L18.576,0.391 Z" fill="#FFFFFF"></path>
                            <path d="M9.395,27.381 C12.168,27.381 14.418,25.135 14.418,22.363 C14.418,19.584 12.168,17.338 9.395,17.338 C6.617,17.338 4.373,19.584 4.373,22.363 C4.372,25.135 6.616,27.381 9.395,27.381 L9.395,27.381 Z" fill="#433739"></path>
                        </g>
                        <g transform="translate(56.000000, 0.000000)">
                            <path d="M18.902,0.391 C29.071,0.391 37.323,8.637 37.323,18.813 C37.323,28.981 29.071,37.233 18.902,37.233 C8.728,37.233 0.48,28.981 0.48,18.813 C0.48,8.637 8.729,0.391 18.902,0.391 L18.902,0.391 Z" fill="#FFFFFF"></path>
                            <path d="M9.717,17.338 C6.944,17.338 4.696,19.584 4.696,22.363 C4.696,25.134 6.944,27.381 9.717,27.381 C12.493,27.381 14.743,25.135 14.743,22.363 C14.743,19.584 12.493,17.338 9.717,17.338 L9.717,17.338 Z" fill="#433739"></path>
                        </g>
                    </g>
                    <path d="M69.023,44.25 C62.501,51.264 46.201,53.201 35.524,48.813" stroke="#CB8977" stroke-width="3"></path>
                </g>
                <g transform="translate(12.000000, 180.000000)" id="Shape" fill="#D52048">
                    <path d="M64.992,21.172 C66.978,20.121 66.976,21.75 66.197,22.529 C65.226,23.5 65.068,24.9 65.559,26.802 C66.034,28.648 65.559,36.95 47.996,35.042 C30.435,33.136 20.211,40.653 6.695,30.884 C-5.6,21.993 0.603,2.259 13.307,0.337 C14.566,0.146 14.737,1.728 13.834,2.942 C10.656,7.225 10.59,14.792 14.65,15.663 C18.917,16.577 21.193,12.448 20.384,9.425 C20.205,8.755 20.532,8.064 21.085,8.361 C26.375,11.209 30.567,19.043 42.563,20.939 C53.111,22.607 61.433,23.055 64.992,21.172 L64.992,21.172 Z"></path>
                    <path d="M73.521,21.172 C71.533,20.121 71.535,21.75 72.317,22.529 C73.286,23.5 73.444,24.9 72.955,26.802 C72.477,28.648 72.955,36.95 90.516,35.042 C108.079,33.136 118.301,40.653 131.817,30.884 C144.114,21.993 137.909,2.259 125.208,0.337 C123.946,0.146 123.778,1.728 124.678,2.942 C127.858,7.225 127.925,14.792 123.864,15.663 C119.595,16.577 117.319,12.448 118.128,9.425 C118.307,8.755 117.982,8.064 117.428,8.361 C112.14,11.209 107.945,19.043 95.949,20.939 C85.402,22.607 77.081,23.055 73.521,21.172 L73.521,21.172 Z"></path>
                </g>
            </g>
        </g>
    </g>
</svg>