<?xml version="1.0" encoding="UTF-8" standalone="no"?>
<svg width="160px" height="217px" viewBox="0 0 160 217" version="1.1" xmlns="http://www.w3.org/2000/svg" xmlns:xlink="http://www.w3.org/1999/xlink" xmlns:sketch="http://www.bohemiancoding.com/sketch/ns">
    <!-- Generator: Sketch 3.2.1 (9977) - http://www.bohemiancoding.com/sketch -->
    <title>Slice 1</title>
    <desc>Created with Sketch.</desc>
    <defs></defs>
    <g id="Page-1" stroke="none" stroke-width="1" fill="none" fill-rule="evenodd" sketch:type="MSPage">
        <g id="Gingerbread_Man" sketch:type="MSLayerGroup">
            <g id="Group" sketch:type="MSShapeGroup">
                <path d="M157.189,135.904 C155.398,130.183 150.572,125.859 145.543,122.916 C142.387,121.068 138.994,119.641 135.537,118.461 C133.961,117.922 131.984,117.746 131.133,116.127 C130.088,114.145 130.869,112.768 132.125,111.211 C142.215,98.707 147.613,82.66 147.021,66.598 C146.437,50.768 140.207,35.346 129.472,23.68 C116.839,9.95 98.548,1.772 79.867,1.772 L79.857,1.772 C63.878,1.772 48.076,7.633 35.98,18.079 C24.599,27.907 16.611,41.577 13.847,56.374 C11.107,71.048 13.456,86.552 20.242,99.831 C21.945,103.159 23.924,106.347 26.16,109.341 C27.045,110.525 28.945,112.087 29.144,113.587 C29.357,115.177 28.222,117.189 26.662,117.683 C20.158,119.697 13.514,122.451 8.398,127.072 C4.568,130.535 1.875,135.191 1.642,140.427 C1.371,146.536 4.015,153.743 9.369,157.105 C12.537,159.089 16.359,159.72 20.045,159.662 C22.09,159.631 24.127,159.394 26.137,159.039 C27.502,158.797 29.043,159.451 29.768,160.639 C30.709,162.182 30.196,164.518 29.942,166.192 C29.592,168.505 28.981,170.764 28.342,173.01 C27.18,177.098 25.908,181.125 24.389,185.096 C23.914,186.34 23.221,188.713 22.059,189.496 C19.827,191.492 17.274,193.281 15.713,195.902 C14.248,198.361 13.397,201.797 15.184,204.298 C16.881,206.673 19.795,208.323 22.352,209.612 C24.979,210.934 27.76,211.938 30.584,212.749 C42.973,216.302 56.875,217.317 69.07,212.515 L69.527,212.343 C70.519,211.954 71.56,211.579 72.338,210.816 C73.252,209.918 73.947,208.677 74.707,207.638 C76.113,205.714 76.984,202.966 79.766,202.771 L79.909,202.771 C81.434,202.857 82.657,203.769 83.44,205.044 C84.409,206.618 85.501,208.095 86.497,209.651 C87.364,211.001 88.726,211.727 90.173,212.321 C92.208,213.159 94.312,213.831 96.454,214.342 C105.056,216.406 114.046,216.002 122.671,214.295 C129.353,212.973 136.235,211.002 141.794,206.91 C143.105,205.947 144.437,204.822 145.118,203.308 C145.897,201.578 145.542,199.538 144.921,197.82 C143.612,194.195 140.446,191.937 137.657,189.494 C137.606,189.453 137.567,189.402 137.524,189.342 C136.188,187.594 135.506,185.461 134.723,183.434 C133.856,181.18 133.094,178.887 132.412,176.571 C131.109,172.149 130,167.639 129.529,163.044 C129.07,160.823 130.674,158.968 132.931,158.968 C134.831,158.968 136.786,159.525 138.706,159.611 C140.708,159.703 142.726,159.619 144.698,159.252 C147.846,158.664 150.856,157.277 153.026,154.869 C157.521,149.867 159.199,142.33 157.189,135.904 L157.189,135.904 Z" id="Shape" fill="#B97D6D"></path>
                <path d="M99.48,96.717 C97.154,107.229 76.798,110.969 64.33,105.842" id="Shape" stroke="#98675A" stroke-width="3"></path>
                <path d="M156.66,132.182 C151.838,123.795 142.099,119.323 132.988,116.58 C131.849,116.236 131.215,113.877 131.978,112.971 C140.867,102.442 146.451,89.295 147.765,75.549 C149.21,60.453 145.556,45.088 137.39,32.303 C124.951,12.826 102.982,0.764 79.869,0.76 L79.857,0.76 C64.841,0.762 50.054,5.795 38.169,14.981 C26.544,23.969 17.981,36.674 14.081,50.85 C8.126,72.5 13.442,96.129 27.913,113.164 C28.626,114.004 27.647,116.314 26.362,116.713 C15.182,120.176 2.1,126.723 0.716,139.283 C-0.013,145.892 3.04,154.328 8.829,157.955 C13.931,161.154 20.433,161.076 26.309,160.037 C27.36,159.851 29.227,160.475 29.227,162.42 C29.227,166.752 27.84,171.022 26.668,175.166 C25.961,177.662 25.16,180.137 24.248,182.564 C23.482,184.599 22.715,186.984 21.393,188.74 C18.645,191.162 15.678,193.217 14.164,196.703 C13.414,198.432 12.908,200.611 13.283,202.488 C13.66,204.386 15.033,205.894 16.49,207.076 C22.386,211.855 30.722,214.137 38.041,215.515 C46.406,217.091 55.186,217.316 63.498,215.324 C65.519,214.84 67.508,214.222 69.437,213.459 C71.421,212.672 72.701,212.283 73.869,210.518 C74.971,208.852 75.816,208.055 76.742,206.288 C77.346,205.142 78.305,203.892 79.84,203.778 C81.291,203.866 82.168,204.788 82.762,205.889 C83.717,207.66 84.555,208.487 85.639,210.19 C86.528,211.592 87.733,212.387 89.315,213.061 C91.389,213.944 93.536,214.653 95.719,215.204 C104.055,217.298 112.887,217.126 121.301,215.589 C128.684,214.239 136.922,211.968 142.949,207.3 C144.404,206.173 145.799,204.755 146.326,202.945 C146.883,201.041 146.392,198.742 145.66,196.949 C144.181,193.33 141.142,191.228 138.324,188.736 C137.103,187.123 136.388,184.947 135.666,183.074 C134.682,180.513 133.828,177.898 133.08,175.26 C131.937,171.237 130.949,167.072 130.529,162.881 C129.986,160.477 132.265,159.832 133.281,160.01 C140.388,161.266 148.726,161.156 153.773,155.545 C159.338,149.357 160.83,139.428 156.66,132.182 L156.66,132.182 Z M23.586,153.18 C21.621,153.465 19.672,153.651 17.621,153.451 C15.795,153.277 13.9,152.855 12.363,151.806 C10.763,150.714 9.853,148.884 9.084,147.161 C7.688,144.034 7.162,140.526 8.455,137.266 C9.904,133.604 12.906,130.85 16.348,128.723 C16.811,128.438 17.639,128.926 17.594,129.448 C17.506,130.45 17.457,131.468 17.457,132.503 C17.453,136.462 18.166,140.653 19.998,144.989 C20.937,147.212 22.166,149.468 23.719,151.768 C23.998,152.186 24.395,153.063 23.586,153.18 L23.586,153.18 Z M41.338,208.898 C37.375,208.273 33.455,207.308 29.678,205.957 C26.584,204.848 22.582,203.477 20.297,200.967 C20.602,197.758 24.004,195.881 26.182,193.963 L26.184,193.963 C27.051,193.178 27.737,192.174 28.315,191.092 C28.555,190.639 29.704,190.328 30.077,190.635 C31.081,191.455 32.169,192.231 33.329,192.977 C38.247,196.114 44.485,198.637 51.21,200.428 C55.847,201.66 60.712,202.533 65.517,202.959 C66.82,203.074 68.021,205.73 67.044,206.775 C58.959,210.045 49.855,210.238 41.338,208.898 L41.338,208.898 Z M71.916,196.674 C63.754,196.68 54.568,194.971 46.904,192.207 C43.07,190.83 39.615,189.191 36.871,187.436 C34.553,185.963 32.771,184.393 31.642,182.948 C32.201,181.339 32.718,179.718 33.199,178.085 C35.068,171.722 36.568,165.026 36.49,158.358 L36.49,158.358 C36.439,155.932 34.871,153.764 32.765,152.735 C29.513,149.006 27.39,145.592 26.058,142.434 C24.579,138.914 24.037,135.694 24.033,132.504 C24.031,129.893 24.424,127.293 25.013,124.649 C26.714,124.016 28.441,123.45 30.185,122.948 C31.941,122.444 34.078,122.262 35.562,121.128 C38.287,119.048 38.837,114.442 36.378,111.952 L36.376,111.952 C25.81,101.261 19.478,86.833 18.794,71.813 C18.105,56.682 23.116,41.631 32.79,29.971 C44.337,16.051 61.77,7.848 79.858,7.842 L79.866,7.842 C94.946,7.848 109.682,13.52 120.864,23.637 C131.93,33.647 139.071,47.596 140.647,62.438 C142.573,80.538 136.225,98.848 123.465,111.831 L123.465,111.829 C119.901,115.462 122.557,121.231 127.092,122.278 L127.09,122.286 C129.617,122.927 132.186,123.675 134.695,124.593 C135.293,127.257 135.689,129.876 135.689,132.505 C135.685,135.694 135.144,138.915 133.664,142.435 C132.34,145.574 130.238,148.962 127.019,152.665 C124.902,153.644 123.287,155.843 123.238,158.202 C123.056,166.485 125.322,174.968 128.006,182.737 C128.029,182.807 128.057,182.878 128.08,182.948 C126.953,184.393 125.168,185.964 122.851,187.436 C120.107,189.192 116.652,190.831 112.82,192.207 C105.154,194.971 95.97,196.68 87.808,196.674 C87.314,196.674 72.41,196.674 71.916,196.674 L71.916,196.674 Z M139.418,200.982 C137.178,203.398 133.422,204.724 130.402,205.826 C126.396,207.291 122.224,208.318 118.009,208.955 C109.603,210.226 100.64,209.996 92.673,206.771 C91.702,205.726 92.894,203.076 94.187,202.96 C98.998,202.536 103.869,201.661 108.517,200.427 C115.238,198.636 121.48,196.113 126.396,192.976 C127.539,192.242 128.615,191.474 129.607,190.665 C129.992,190.351 131.191,190.636 131.445,191.087 C131.775,191.675 132.131,192.245 132.515,192.788 C134.557,195.656 139.037,197.049 139.418,200.982 L139.418,200.982 Z M149.18,149.906 C146.678,153.951 140.817,153.91 136.334,153.308 C135.613,153.308 135.59,152.382 135.84,152.017 C137.473,149.628 138.756,147.29 139.727,144.99 C141.561,140.654 142.274,136.463 142.27,132.504 C142.27,131.484 142.223,130.483 142.137,129.494 C142.092,128.971 142.805,128.433 143.215,128.693 C144.26,129.353 145.266,130.068 146.223,130.847 C149.012,133.115 151.444,136.126 151.934,139.796 C152.412,143.381 151.023,146.902 149.18,149.906 L149.18,149.906 Z" id="Shape" fill="#EEE0C8"></path>
                <g transform="translate(35.000000, 59.000000)" id="Shape">
                    <path d="M16.953,0.852 C25.838,0.852 33.053,8.061 33.053,16.954 C33.053,25.841 25.838,33.052 16.953,33.052 C8.062,33.052 0.849,25.841 0.849,16.954 C0.85,8.061 8.063,0.852 16.953,0.852 L16.953,0.852 Z" fill="#FFFFFF"></path>
                    <path d="M69.748,0.852 C78.639,0.852 85.85,8.059 85.85,16.954 C85.85,25.841 78.639,33.052 69.748,33.052 C60.857,33.052 53.65,25.841 53.65,16.954 C53.65,8.059 60.857,0.852 69.748,0.852 L69.748,0.852 Z" fill="#FFFFFF"></path>
                    <path d="M16.111,24.281 C18.812,24.281 21,22.093 21,19.396 C21,16.691 18.812,14.505 16.111,14.505 C13.41,14.505 11.224,16.691 11.224,19.396 C11.225,22.094 13.41,24.281 16.111,24.281 L16.111,24.281 Z" fill="#433739"></path>
                    <path d="M68.906,14.506 C66.207,14.506 64.019,16.692 64.019,19.397 C64.019,22.094 66.207,24.282 68.906,24.282 C71.607,24.282 73.797,22.094 73.797,19.397 C73.797,16.691 71.607,14.506 68.906,14.506 L68.906,14.506 Z" fill="#433739"></path>
                </g>
                <g transform="translate(49.000000, 118.000000)" fill="#EEE0C8">
                    <circle id="Oval" cx="30.829" cy="38.426" r="8.349"></circle>
                    <circle id="Oval" cx="30.829" cy="60.941" r="8.349"></circle>
                    <path d="M57.205,0.635 C53.392,-0.955 44.498,3.535 37.957,9.574 C36.35,7.381 33.758,5.949 30.83,5.949 C27.9,5.949 25.309,7.381 23.703,9.574 C17.16,3.537 8.267,-0.955 4.451,0.635 C-0.07,2.518 -0.949,24.756 4.451,27.645 C8.314,29.711 18.205,23.502 23.537,19.786 C25.129,22.108 27.801,23.634 30.83,23.634 C33.859,23.634 36.531,22.109 38.123,19.786 C43.457,23.503 53.346,29.712 57.205,27.645 C62.611,24.756 61.73,2.518 57.205,0.635 L57.205,0.635 Z" id="Shape"></path>
                </g>
            </g>
        </g>
    </g>
</svg>