<?xml version="1.0" encoding="UTF-8" standalone="no"?>
<svg width="155px" height="217px" viewBox="0 0 155 217" version="1.1" xmlns="http://www.w3.org/2000/svg" xmlns:xlink="http://www.w3.org/1999/xlink" xmlns:sketch="http://www.bohemiancoding.com/sketch/ns">
    <!-- Generator: Sketch 3.2.1 (9977) - http://www.bohemiancoding.com/sketch -->
    <title>Slice 1</title>
    <desc>Created with Sketch.</desc>
    <defs></defs>
    <g id="Page-1" stroke="none" stroke-width="1" fill="none" fill-rule="evenodd" sketch:type="MSPage">
        <g id="Mrs_Claus" sketch:type="MSLayerGroup">
            <g id="Group" sketch:type="MSShapeGroup">
                <path d="M121.551,120.711 C132.143,111.445 139.758,98.861 142.779,84.576 C142.791,84.512 142.803,84.437 142.817,84.363 L143.832,84.576 C160.639,84.576 154.622,60.23 143.832,63.666 C142.404,50.23 136.959,38.002 128.728,28.18 C124.127,22.688 118.659,17.944 112.522,14.18 C102.425,7.985 90.548,4.41 77.839,4.41 C65.134,4.41 53.241,7.984 43.155,14.18 C37.025,17.944 31.54,22.674 26.949,28.166 C18.709,37.988 13.264,50.23 11.836,63.666 C1.061,60.254 -4.96,84.576 11.85,84.576 L12.853,84.363 C12.865,84.437 12.877,84.511 12.888,84.576 C15.912,98.861 23.54,111.457 34.126,120.711 C17.518,127.875 0.022,143.982 4.637,154.719 C9.327,165.594 29.36,158.899 29.36,158.899 C31.441,170.614 32.085,194.95 29.36,197.37 C26.637,199.79 22.071,202.386 22.071,207.819 C22.071,213.26 48.364,219.11 66.715,215.342 C71.144,211.416 71.871,202.535 77.84,202.399 C83.812,202.549 84.538,211.417 88.967,215.342 C107.307,219.11 133.598,213.26 133.598,207.819 C133.598,202.385 129.043,199.79 126.309,197.37 C123.589,194.95 124.241,170.614 126.309,158.899 C126.309,158.899 146.342,165.594 151.034,154.719 C155.659,143.982 138.161,127.889 121.551,120.711 L121.551,120.711 Z" id="Shape" fill="#F1CEAE"></path>
                <path d="M102.202,108.945 C99.814,119.734 78.922,123.574 66.122,118.312" id="Shape" stroke="#CB8977" stroke-width="3"></path>
                <path d="M142.332,55.094 C139.841,40.53 121.575,4.42 77.839,4.41 L77.839,4.41 L77.829,4.41 L77.82,4.41 L77.82,4.41 C34.084,4.42 15.818,40.529 13.327,55.094 C-5.265,65.678 0.586,85.19 9.588,86.92 C17.133,88.371 25.86,85.883 23.609,68.397 C35.38,69.938 49.188,63.032 49.921,47.971 C61.52,51.303 75.444,42.606 77.829,34.641 C80.215,42.606 94.141,51.303 105.738,47.971 C106.47,63.032 120.279,69.938 132.051,68.397 C129.799,85.883 138.527,88.372 146.072,86.92 C155.073,85.189 160.924,65.678 142.332,55.094 L142.332,55.094 Z" id="Shape" fill="#FFFFFF"></path>
                <g transform="translate(22.000000, 200.000000)" id="Shape" fill="#433739">
                    <path d="M3.517,0.635 C1.658,2.399 0.069,4.623 0.069,7.823 C0.069,13.264 26.368,19.112 44.711,15.341 C46.901,13.402 48.19,10.243 49.654,7.532 C25.173,10.781 3.517,3.906 3.517,0.635 L3.517,0.635 Z"></path>
                    <path d="M108.16,0.635 C108.16,3.906 86.514,10.781 62.024,7.531 C63.477,10.23 64.766,13.4 66.967,15.34 C85.31,19.111 111.598,13.264 111.598,7.822 C111.599,4.623 110.019,2.41 108.16,0.635 L108.16,0.635 Z"></path>
                </g>
                <g transform="translate(30.000000, 69.000000)" id="Shape">
                    <path d="M19.19,0.938 C29.347,0.938 37.592,9.178 37.592,19.34 C37.592,29.498 29.347,37.74 19.19,37.74 C9.027,37.74 0.787,29.498 0.787,19.34 C0.787,9.178 9.027,0.938 19.19,0.938 L19.19,0.938 Z" fill="#FFFFFF"></path>
                    <path d="M76.499,0.938 C86.658,0.938 94.904,9.176 94.904,19.34 C94.904,29.5 86.658,37.742 76.499,37.742 C66.335,37.742 58.096,29.5 58.096,19.34 C58.096,9.176 66.335,0.938 76.499,0.938 L76.499,0.938 Z" fill="#FFFFFF"></path>
                    <path d="M29.752,24.787 C32.523,24.787 34.771,22.541 34.771,19.773 C34.771,16.996 32.524,14.752 29.752,14.752 C26.979,14.752 24.735,16.996 24.735,19.773 C24.735,22.541 26.979,24.787 29.752,24.787 L29.752,24.787 Z" fill="#433739"></path>
                    <path d="M87.06,14.752 C84.289,14.752 82.043,16.996 82.043,19.773 C82.043,22.541 84.288,24.787 87.06,24.787 C89.832,24.787 92.079,22.541 92.079,19.773 C92.078,16.996 89.831,14.752 87.06,14.752 L87.06,14.752 Z" fill="#433739"></path>
                </g>
                <path d="M129.793,93.529 C129.497,93.181 129.061,92.978 128.605,92.978 L84.437,92.978 C81.705,88.189 73.985,88.199 71.25,92.978 L27.071,92.978 C26.124,92.978 25.379,93.857 25.535,94.792 C26.588,99.733 28.6,105.319 33.12,108.116 C35.924,109.852 39.04,109.596 42.205,109.596 L61.046,109.596 C64.39,109.596 66.989,107.895 68.993,105.297 C70.864,102.859 72.15,99.983 73.119,97.08 C73.406,96.223 73.536,95.07 74.068,94.318 C74.828,93.246 76.52,92.373 77.838,92.402 C79.142,92.39 80.764,93.213 81.547,94.236 C82.053,94.898 82.174,95.898 82.423,96.677 C83.393,99.698 84.706,102.714 86.645,105.249 C88.65,107.87 91.264,109.595 94.63,109.595 L114.009,109.595 C117.344,109.595 120.451,109.71 123.263,107.636 C125.681,105.855 127.308,103.181 128.447,100.447 C129.027,99.054 129.496,97.615 129.852,96.15 C130.055,95.316 130.426,94.275 129.793,93.529 M68.138,100.867 C67.223,102.578 66.072,104.303 64.476,105.451 C62.732,106.705 60.735,106.48 58.698,106.48 L40.575,106.48 C38.529,106.48 36.568,106.593 34.765,105.468 C31.601,103.497 29.968,99.542 29.029,96.095 L70.164,96.095 C69.732,97.389 69.057,99.16 68.138,100.867 M124.811,100.885 C123.98,102.485 122.898,104.03 121.434,105.112 C119.661,106.426 117.783,106.481 115.656,106.481 L97.446,106.481 C95.435,106.481 93.265,106.792 91.494,105.651 C88.346,103.622 86.65,99.505 85.512,96.096 L126.648,96.096 C126.298,97.377 125.71,99.168 124.811,100.885" id="Shape" fill="#B4C2C0"></path>
                <path d="M142.614,49.625 C144.887,38.969 139.175,31.18 132.165,28.844 C127.49,8.33 106.904,0.539 77.853,0.539 L77.832,0.539 C48.781,0.539 28.196,8.33 23.522,28.844 C16.511,31.18 10.798,38.969 13.072,49.625 C0.817,54.414 -3.576,70.357 6.384,77.139 C6.384,58.184 22.223,55.328 30.781,58.184 C39.35,61.041 49.227,60.782 54.94,55.069 C60.652,49.356 69.74,42.346 77.84,42.346 C85.943,42.346 95.03,49.356 100.742,55.069 C106.455,60.782 116.332,61.042 124.901,58.184 C133.46,55.329 149.298,58.184 149.298,77.139 C159.263,70.357 154.868,54.414 142.614,49.625 L142.614,49.625 Z" id="Shape" fill="#E1F1EC"></path>
                <path d="M142.614,49.625 C154.868,54.414 159.262,70.357 149.302,77.139 C149.302,58.184 133.463,55.328 124.905,58.184 C116.336,61.041 106.459,60.782 100.746,55.069 C95.034,49.356 85.946,42.346 77.844,42.346 C69.743,42.346 60.656,49.356 54.944,55.069 C49.231,60.782 39.354,61.042 30.785,58.184 C22.226,55.329 6.388,58.184 6.388,77.139 C-3.573,70.358 0.821,54.414 13.076,49.625 C15.84,48.545 18.997,48.025 22.487,48.316 C41.442,49.875 48.816,46.199 55.588,37.287 C62.994,27.545 74.782,26.635 77.846,26.635 C80.911,26.635 92.7,27.545 100.096,37.287 C106.877,46.199 114.251,49.875 133.206,48.316 C136.692,48.025 139.851,48.545 142.614,49.625 L142.614,49.625 Z" id="Shape" fill="#D5E4E0"></path>
                <path d="M143.839,148.422 C148.108,138.42 147.152,116.785 121.562,120.711 C120.293,121.811 118.996,122.871 117.644,123.879 C114.715,126.08 111.589,128.053 108.306,129.748 C106.812,130.525 105.274,131.242 103.705,131.896 L103.705,131.908 C100.705,139.209 93.361,145.689 77.833,145.689 C62.284,145.689 54.942,139.199 51.95,131.896 C50.391,131.232 48.855,130.515 47.359,129.736 C44.066,128.033 40.94,126.07 38.01,123.857 C36.672,122.859 35.383,121.81 34.125,120.711 C8.502,116.764 7.557,138.42 11.816,148.422 C16.781,160.065 25.859,161.924 28.714,160.791 C28.672,161.322 28.621,161.883 28.548,162.465 C28.246,164.947 27.633,167.844 26.834,170.908 C23.947,182.074 18.577,195.535 16.251,200.084 C40.14,211.125 57.224,210.086 77.831,210.086 C98.437,210.086 115.514,211.125 139.402,200.084 C137.076,195.535 131.706,182.074 128.817,170.908 C128.018,167.844 127.405,164.947 127.105,162.465 C127.032,161.883 126.979,161.322 126.938,160.791 C129.797,161.924 138.875,160.064 143.839,148.422 L143.839,148.422 Z" id="Shape" fill="#A21E25"></path>
                <path d="M129.567,169.869 C129.162,168.301 128.352,164.998 128.156,163.066 C128.124,162.785 127.687,162.38 127.48,162.412 C127.356,162.433 127.231,162.443 127.107,162.465 C123.066,163.026 119.586,163.492 116.532,163.899 L117.643,123.879 C114.714,126.08 111.588,128.053 108.305,129.748 L106.977,165.082 C96.467,166.254 91.481,166.203 77.832,166.203 C64.185,166.203 59.188,166.254 48.678,165.082 L47.359,129.736 C44.066,128.033 40.94,126.07 38.01,123.857 L39.122,163.898 C36.069,163.492 32.589,163.025 28.549,162.464 C28.424,162.443 28.3,162.433 28.175,162.411 C27.967,162.38 27.53,162.784 27.5,163.065 C27.303,164.997 26.492,168.299 26.087,169.868 C25.952,170.409 26.264,170.813 26.461,170.845 C26.585,170.866 26.71,170.886 26.835,170.908 C30.533,171.5 34.688,172.154 39.152,172.777 C39.152,182.644 40.504,199.086 77.811,199.097 L77.841,199.097 C115.151,199.085 116.5,182.644 116.5,172.777 C120.967,172.154 125.121,171.5 128.817,170.908 C128.943,170.887 129.067,170.867 129.192,170.845 C129.401,170.814 129.714,170.41 129.567,169.869 L129.567,169.869 Z" id="Shape" fill="#FFFFFF"></path>
            </g>
        </g>
    </g>
</svg>