<?xml version="1.0" encoding="UTF-8" standalone="no"?>
<svg width="173px" height="217px" viewBox="0 0 173 217" version="1.1" xmlns="http://www.w3.org/2000/svg" xmlns:xlink="http://www.w3.org/1999/xlink" xmlns:sketch="http://www.bohemiancoding.com/sketch/ns">
    <!-- Generator: Sketch 3.2.1 (9977) - http://www.bohemiancoding.com/sketch -->
    <title>Slice 1</title>
    <desc>Created with Sketch.</desc>
    <defs></defs>
    <g id="Page-1" stroke="none" stroke-width="1" fill="none" fill-rule="evenodd" sketch:type="MSPage">
        <g id="Mug" sketch:type="MSLayerGroup">
            <g id="Group" sketch:type="MSShapeGroup">
                <path d="M117.903,50.035 C104.993,47.937 87.825,46.781 69.536,46.781 C51.259,46.781 34.093,47.937 21.181,50.035 C6.077,52.494 2.038,55.435 2.038,56.785 L2.038,198.228 C2.038,199.947 7.278,204.249 21.331,208.521 C29.604,211.023 46.866,215.236 69.536,215.236 C92.22,215.236 109.481,211.023 117.753,208.521 C131.808,204.25 137.032,199.947 137.032,198.228 L137.032,56.785 C137.032,55.435 133.007,52.494 117.903,50.035 L117.903,50.035 Z" id="Shape" fill="#B97D6D"></path>
                <g transform="translate(0.000000, 35.000000)" id="Shape">
                    <path d="M143.194,50.736 C141.489,50.736 139.817,50.894 138.194,51.179 L138.194,21.784 C138.194,15.624 107.458,10.632 69.542,10.632 C31.628,10.632 0.892,15.624 0.892,21.784 L0.892,163.227 C0.892,169.387 31.628,181.391 69.542,181.391 C107.458,181.391 138.194,169.387 138.194,163.227 L138.194,113.247 C139.817,113.532 141.489,113.692 143.194,113.692 C159.337,113.692 172.423,96.911 172.423,80.481 C172.423,64.054 159.337,50.736 143.194,50.736 L143.194,50.736 Z M12.435,21.785 C12.435,18.935 38.003,16.625 69.542,16.625 C101.083,16.625 126.649,18.936 126.649,21.785 C126.649,24.637 101.083,30.246 69.542,30.246 C38.003,30.246 12.435,24.636 12.435,21.785 L12.435,21.785 Z M143.194,97.539 C141.432,97.539 139.751,97.189 138.194,96.58 L138.194,66.697 C139.751,66.086 141.432,65.736 143.194,65.736 C151.042,65.736 157.423,72.351 157.423,80.482 C157.423,88.615 151.042,97.539 143.194,97.539 L143.194,97.539 Z" fill="#ECDEC4"></path>
                    <g transform="translate(94.000000, 0.000000)">
                        <g transform="translate(15.000000, 26.000000)">
                            <path d="M39.048,8.642 C26.882,11.472 18.411,6.074 13.083,1.322 C12.192,0.527 11.052,1.283 11.108,2.388 C11.629,12.798 4.604,21.859 1.45,25.378 C0.55,26.386 1.091,26.964 1.62,27.019 C10.856,27.955 13.245,36.781 13.583,43.876 C13.616,44.528 14.468,44.987 14.896,44.644 C22.695,38.374 32.058,43.976 35.707,49.904 C36.701,51.515 37.381,51.156 37.594,49.418 C38.754,39.883 42.979,30.279 48.903,27.564 C49.973,27.072 49.868,26.414 48.829,26.113 C38.786,23.207 38.542,14.158 40.075,9.931 C40.374,9.109 39.726,8.486 39.048,8.642 L39.048,8.642 Z" fill="#82873B"></path>
                            <path d="M15.884,8.556 C16.413,20.622 31.032,22.913 34.47,40.88" stroke="#BCBA51"></path>
                        </g>
                        <path d="M28.628,2.642 C25.429,2.642 22.526,3.898 20.368,5.927 C18.649,2.56 15.157,0.249 11.116,0.249 C5.382,0.249 0.731,4.897 0.731,10.632 C0.731,15.29 3.801,19.234 8.03,20.548 C5.839,22.734 4.483,25.755 4.483,29.093 C4.483,35.757 9.887,41.163 16.555,41.163 C23.221,41.163 28.627,35.757 28.627,29.093 C28.627,28.298 28.547,27.525 28.4,26.773 C28.476,26.773 28.55,26.785 28.627,26.785 C35.293,26.785 40.699,21.379 40.699,14.713 C40.7,8.048 35.294,2.642 28.628,2.642 L28.628,2.642 Z" fill="#D52048"></path>
                    </g>
                </g>
                <g transform="translate(22.000000, 123.000000)" id="Shape">
                    <g>
                        <g>
                            <path d="M21.286,0.492 C32.571,0.492 41.729,9.646 41.729,20.935 C41.729,32.22 32.571,41.376 21.286,41.376 C9.997,41.376 0.843,32.22 0.843,20.935 C0.843,9.646 9.997,0.492 21.286,0.492 L21.286,0.492 Z" stroke="#7C7463" stroke-width="0.25" fill="#FFFFFF"></path>
                            <path d="M15.864,18.654 C18.944,18.654 21.44,16.164 21.44,13.086 C21.44,10.002 18.944,7.51 15.864,7.51 C12.784,7.51 10.292,10.002 10.292,13.086 C10.292,16.164 12.784,18.654 15.864,18.654 L15.864,18.654 Z" fill="#433739"></path>
                        </g>
                        <g transform="translate(69.000000, 0.000000)">
                            <path d="M20.563,0.492 C31.848,0.492 41.01,9.644 41.01,20.935 C41.01,32.224 31.848,41.38 20.563,41.38 C9.272,41.38 0.12,32.224 0.12,20.935 C0.12,9.644 9.272,0.492 20.563,0.492 L20.563,0.492 Z" stroke="#7C7463" stroke-width="0.25" fill="#FFFFFF"></path>
                            <path d="M15.14,7.509 C12.062,7.509 9.568,10.001 9.568,13.085 C9.568,16.163 12.062,18.653 15.14,18.653 C18.22,18.653 20.716,16.163 20.716,13.085 C20.716,10.001 18.22,7.509 15.14,7.509 L15.14,7.509 Z" fill="#433739"></path>
                        </g>
                    </g>
                    <path d="M80.175,43.826 C77.523,55.81 54.314,60.076 40.097,54.228" stroke="#CB8977" stroke-width="3"></path>
                </g>
                <path d="M81.704,57.214 C82.518,58.7 81.21,59.105 80.214,58.851 C61.739,54.138 64.456,40.658 74.446,33.597 C84.098,26.777 83.93,20.386 75.282,13.324 C74.495,12.681 74.708,11.451 75.651,11.586 C90.282,13.637 96.251,30.893 85.969,40.891 C78.558,48.099 80.001,54.095 81.704,57.214 L81.704,57.214 Z" id="Shape" fill="#D0DFDB"></path>
                <path d="M60.524,56.066 C61.514,57.88 59.92,58.375 58.706,58.064 C36.169,52.312 39.485,35.867 51.671,27.257 C63.444,18.939 63.239,11.14 52.689,2.525 C51.732,1.744 51.99,0.244 53.14,0.406 C70.988,2.908 78.269,23.957 65.726,36.154 C56.685,44.949 58.444,52.259 60.524,56.066 L60.524,56.066 Z" id="Shape" fill="#D0DFDB"></path>
            </g>
        </g>
    </g>
</svg>