<?xml version="1.0" encoding="UTF-8" standalone="no"?>
<svg width="160px" height="253px" viewBox="0 0 160 253" version="1.1" xmlns="http://www.w3.org/2000/svg" xmlns:xlink="http://www.w3.org/1999/xlink" xmlns:sketch="http://www.bohemiancoding.com/sketch/ns">
    <!-- Generator: Sketch 3.2.1 (9977) - http://www.bohemiancoding.com/sketch -->
    <title>Slice 1</title>
    <desc>Created with Sketch.</desc>
    <defs></defs>
    <g id="Page-1" stroke="none" stroke-width="1" fill="none" fill-rule="evenodd" sketch:type="MSPage">
        <g id="Nutcracker" sketch:type="MSLayerGroup">
            <g id="Group" sketch:type="MSShapeGroup">
                <path d="M122.297,142.645 C132.502,133.713 139.842,121.588 142.752,107.821 C142.764,107.76 142.773,107.69 142.787,107.618 L143.767,107.821 C159.962,107.821 154.165,84.362 143.767,87.673 C142.388,74.728 137.144,62.943 129.212,53.476 C124.778,48.185 119.507,43.613 113.595,39.986 C103.865,34.017 92.421,30.57 80.173,30.57 C67.929,30.57 56.47,34.017 46.751,39.986 C40.843,43.613 35.558,48.172 31.132,53.465 C23.193,62.93 17.946,74.729 16.569,87.674 C6.184,84.385 0.383,107.822 16.581,107.822 L17.548,107.619 C17.56,107.691 17.571,107.762 17.583,107.822 C20.497,121.59 27.847,133.728 38.05,142.646 C22.044,149.548 5.185,165.07 9.632,175.417 C14.152,185.894 33.456,179.442 33.456,179.442 C35.462,190.731 36.081,231.393 33.456,233.727 C30.831,236.057 26.433,238.561 26.433,243.797 C26.433,249.039 51.769,254.676 69.453,251.047 C73.721,247.262 74.422,235.703 80.174,235.57 C85.93,235.715 86.629,247.261 90.897,251.047 C108.569,254.676 133.905,249.039 133.905,243.797 C133.905,238.561 129.514,236.057 126.882,233.727 C124.261,231.393 124.89,190.731 126.882,179.442 C126.882,179.442 146.185,185.893 150.708,175.417 C155.166,165.068 138.303,149.561 122.297,142.645 L122.297,142.645 Z" id="Shape" fill="#EDC097"></path>
                <path d="M126.889,233.723 C126.1,233.012 125.598,213.149 125.348,209.475 C115.719,213.809 103.537,215.211 80.178,215.211 L80.168,215.211 C56.816,215.211 44.637,213.809 34.998,209.475 C34.748,213.149 34.248,233.012 33.457,233.723 C30.834,236.055 26.439,238.557 26.439,243.793 C26.439,249.037 51.773,254.67 69.459,251.039 C73.723,247.254 74.422,235.693 80.178,235.564 C85.934,235.705 86.633,247.253 90.899,251.039 C108.573,254.67 133.905,249.037 133.905,243.793 C133.904,238.557 129.521,236.055 126.889,233.723 L126.889,233.723 Z" id="Shape" fill="#433739"></path>
                <path d="M132.344,180.779 C135.227,177.908 144.145,165.675 144.145,157.699 C138.491,151.683 130.293,146.099 122.305,142.646 C111.045,152.503 96.313,158.48 80.178,158.48 C64.055,158.48 49.311,152.503 38.051,142.646 C30.072,146.087 21.865,151.673 16.201,157.687 L16.211,157.699 C16.211,165.676 25.119,177.908 27.992,180.779 C31.174,180.197 33.457,179.437 33.457,179.437 C34.217,183.73 34.777,189.787 35.037,195.763 L29.562,206.574 C31.314,207.664 33.107,208.625 34.998,209.474 C44.637,213.808 56.816,215.21 80.168,215.21 L80.178,215.21 C103.537,215.21 115.719,213.808 125.348,209.474 C127.241,208.613 129.022,207.652 130.784,206.574 L125.307,195.763 C125.569,189.779 126.129,183.73 126.889,179.437 C126.889,179.438 129.172,180.197 132.344,180.779 L132.344,180.779 Z" id="Shape" fill="#D52048"></path>
                <g transform="translate(25.000000, 116.000000)" id="Shape" fill="#EA9E89">
                    <path d="M14.893,0.373 C7.868,0.373 2,5.377 0.67,12.014 C4.053,17.498 8.236,22.434 13.051,26.647 C14.123,27.577 15.213,28.479 16.344,29.329 C23.67,28.608 29.405,22.413 29.405,14.886 C29.404,6.869 22.91,0.373 14.893,0.373 L14.893,0.373 Z"></path>
                    <path d="M95.455,0.373 C87.437,0.373 80.941,6.869 80.941,14.885 C80.941,22.412 86.675,28.608 94.011,29.328 C95.142,28.478 96.243,27.576 97.304,26.646 C102.128,22.419 106.302,17.488 109.675,12.013 C108.346,5.377 102.48,0.373 95.455,0.373 L95.455,0.373 Z"></path>
                </g>
                <path d="M126.719,185.666 C113.797,189.588 93.821,190.818 80.178,190.818 L80.168,190.818 C66.527,190.818 46.549,189.588 33.627,185.666 C33.217,185.545 33.027,186.174 33.027,186.557 L33.017,186.557 L33.517,196.373 C33.546,196.914 33.796,197.744 34.466,197.926 C47.398,201.59 66.825,202.828 80.167,202.828 L80.177,202.828 C93.519,202.828 112.947,201.59 125.878,197.926 C126.548,197.744 126.798,196.914 126.829,196.373 L127.329,186.605 L127.329,186.574 C127.33,186.205 127.139,185.533 126.719,185.666 L126.719,185.666 Z" id="Shape" fill="#82873B"></path>
                <path d="M80.174,132.777 C85.174,132.777 88.594,132.047 91.463,129.179 L80.174,103.615 L80.174,103.609 L80.174,103.613 L80.172,103.609 L80.172,103.615 L68.883,129.179 C71.75,132.046 75.172,132.777 80.172,132.777 L80.172,132.777 L80.174,132.777 L80.174,132.777 Z" id="Shape" fill="#F1CEAE"></path>
                <g transform="translate(34.000000, 93.000000)" id="Shape">
                    <path d="M18.568,0.717 C28.355,0.717 36.298,8.655 36.298,18.449 C36.298,28.238 28.355,36.179 18.568,36.179 C8.773,36.179 0.832,28.238 0.832,18.449 C0.832,8.654 8.773,0.717 18.568,0.717 L18.568,0.717 Z" fill="#FFFFFF"></path>
                    <path d="M73.779,0.717 C63.992,0.717 56.047,8.655 56.047,18.449 C56.047,28.238 63.992,36.179 73.779,36.179 C83.572,36.179 91.513,28.238 91.513,18.449 C91.514,8.654 83.572,0.717 73.779,0.717 L73.779,0.717 Z" fill="#FFFFFF"></path>
                    <path d="M26.459,22.428 C29.129,22.428 31.295,20.264 31.295,17.596 C31.295,14.922 29.129,12.76 26.459,12.76 C23.787,12.76 21.625,14.922 21.625,17.596 C21.625,20.264 23.787,22.428 26.459,22.428 L26.459,22.428 Z" fill="#433739"></path>
                    <path d="M81.684,12.76 C79.012,12.76 76.848,14.922 76.848,17.596 C76.848,20.264 79.012,22.428 81.684,22.428 C84.354,22.428 86.52,20.264 86.52,17.596 C86.52,14.922 84.354,12.76 81.684,12.76 L81.684,12.76 Z" fill="#433739"></path>
                </g>
                <g transform="translate(23.000000, 142.000000)" fill="#E4CB8D">
                    <path d="M70.975,58.365 C70.975,60.576 69.184,62.367 66.973,62.367 L47.373,62.367 C45.162,62.367 43.369,60.576 43.369,58.365 L43.369,50.373 C43.369,48.162 45.162,46.371 47.373,46.371 L66.973,46.371 C69.184,46.371 70.975,48.162 70.975,50.373 L70.975,58.365 L70.975,58.365 Z" id="Shape"></path>
                    <g>
                        <path d="M99.305,0.646 L99.295,0.646 C95.063,4.359 90.336,7.511 85.234,10.003 C87.144,12.898 92.709,14.989 99.295,14.989 C106.492,14.989 112.486,12.485 113.799,9.171 L113.799,9.163 C113.979,8.733 114.069,8.272 114.069,7.811 C114.068,3.857 107.463,0.646 99.305,0.646 L99.305,0.646 Z" id="Shape"></path>
                        <circle id="Oval" cx="80.529" cy="35.928" r="6.256"></circle>
                        <path d="M83.281,14.037 C79.828,14.037 77.025,16.84 77.025,20.293 C77.025,23.756 79.828,26.549 83.281,26.549 C86.734,26.549 89.537,23.756 89.537,20.293 C89.537,16.84 86.734,14.037 83.281,14.037 L83.281,14.037 Z" id="Shape"></path>
                        <path d="M29.123,10.004 C24.019,7.512 19.295,4.35 15.051,0.647 C6.893,0.647 0.28,3.858 0.28,7.813 C0.28,8.274 0.368,8.735 0.548,9.165 C1.851,12.487 7.845,14.991 15.052,14.991 C21.637,14.99 27.211,12.898 29.123,10.004 L29.123,10.004 Z" id="Shape"></path>
                        <path d="M37.32,20.293 C37.32,16.84 34.517,14.037 31.064,14.037 C27.611,14.037 24.808,16.84 24.808,20.293 C24.808,23.756 27.611,26.549 31.064,26.549 C34.517,26.549 37.32,23.756 37.32,20.293 L37.32,20.293 Z" id="Shape"></path>
                        <path d="M33.816,29.672 C30.365,29.672 27.562,32.475 27.562,35.928 C27.562,39.381 30.365,42.184 33.816,42.184 C37.271,42.184 40.072,39.381 40.072,35.928 C40.072,32.475 37.271,29.672 33.816,29.672 L33.816,29.672 Z" id="Shape"></path>
                    </g>
                </g>
                <g transform="translate(0.000000, 27.000000)" id="Shape" fill="#433739">
                    <path d="M142.549,37.895 C133.01,15.323 114.35,0.793 80.174,0.793 C45.996,0.793 27.338,15.322 17.799,37.895 C17.799,37.895 -6.154,91.959 2.133,105.778 C10.418,119.6 26.326,121.012 38.053,115.645 C22.158,89.213 23.35,64.809 30.069,42.711 C32.212,40.568 49.106,44.672 80.173,44.672 L80.173,44.672 L80.175,44.672 C111.241,44.672 128.136,40.568 130.279,42.711 C136.998,64.809 138.189,89.213 122.295,115.645 C134.024,121.012 149.93,119.6 158.217,105.778 C166.502,91.959 142.549,37.895 142.549,37.895 L142.549,37.895 Z"></path>
                    <path d="M60.822,59.67 C57.006,52.33 39.681,57.844 31.129,76.609 C35.82,78.615 67.512,72.539 60.822,59.67 L60.822,59.67 Z"></path>
                    <path d="M99.525,59.67 C92.834,72.539 124.527,78.615 129.218,76.609 C120.666,57.844 103.342,52.33 99.525,59.67 L99.525,59.67 Z"></path>
                    <path d="M80.174,106.889 C69.457,96.172 59.486,109.139 52.569,105.778 C64.331,123.434 78.001,109.948 80.174,109.946 C82.348,109.948 96.016,123.434 107.779,105.778 C100.861,109.139 90.889,96.172 80.174,106.889 L80.174,106.889 Z"></path>
                    <path d="M80.178,119.957 L80.178,119.984 L80.168,119.957 C76.164,119.957 71,120.611 65.324,125.236 C65.324,133.203 67.947,143.007 70.299,145.619 C72.651,148.231 76.504,147.844 80.168,147.844 L80.178,147.815 L80.178,147.844 C83.842,147.844 87.694,148.231 90.047,145.619 C92.399,143.008 95.022,133.203 95.022,125.236 C89.346,120.611 84.182,119.957 80.178,119.957 L80.178,119.957 Z"></path>
                </g>
                <g transform="translate(6.000000, 0.000000)" id="Shape">
                    <path d="M74.168,0.199 C33.482,0.199 0.492,4.834 0.492,10.558 L0.613,11.138 L7.859,45.97 L11.793,64.898 C27.557,73.394 52.77,74.775 74.168,74.775 C95.576,74.775 120.789,73.394 136.555,64.898 L140.487,45.97 L147.733,11.138 L147.854,10.558 C147.854,4.834 114.863,0.199 74.168,0.199 L74.168,0.199 Z" fill="#82873B"></path>
                    <path d="M147.732,11.139 L140.486,45.971 L132.56,24.541 L116.044,55.238 L97.196,28.715 L74.176,61.242 L74.166,61.242 L51.146,28.715 L32.298,55.238 L15.784,24.541 L7.856,45.971 L0.61,11.139 C2.762,16.584 34.87,20.918 74.165,20.918 C113.473,20.918 145.58,16.584 147.732,11.139 L147.732,11.139 Z" fill="#BCBA51"></path>
                </g>
            </g>
        </g>
    </g>
</svg>