<?xml version="1.0" encoding="UTF-8" standalone="no"?>
<svg width="145px" height="217px" viewBox="0 0 145 217" version="1.1" xmlns="http://www.w3.org/2000/svg" xmlns:xlink="http://www.w3.org/1999/xlink" xmlns:sketch="http://www.bohemiancoding.com/sketch/ns">
    <!-- Generator: Sketch 3.2.1 (9977) - http://www.bohemiancoding.com/sketch -->
    <title>Slice 1</title>
    <desc>Created with Sketch.</desc>
    <defs></defs>
    <g id="Page-1" stroke="none" stroke-width="1" fill="none" fill-rule="evenodd" sketch:type="MSPage">
        <g id="Penguin" sketch:type="MSLayerGroup">
            <g id="Group" sketch:type="MSShapeGroup">
                <path d="M133.23,54.468 C133.23,8.232 83.912,0.032 72.191,0.032 C60.466,0.032 11.148,8.231 11.148,54.468 C11.148,100.705 -0.348,124.837 0.269,142.437 C0.72,155.58 1.162,178.912 30.835,189.875 C31.245,190.027 31.667,190.182 32.087,190.318 L30.886,190.994 C27.351,192.609 20.017,193.687 15.833,193.996 C16.788,195.629 17.427,197.777 17.589,200.078 C17.765,202.543 17.384,204.742 16.513,206.406 C21.134,207.074 25.419,210.146 25.986,214.955 C29.129,214.615 32.058,212.705 35.152,210.68 C38.695,208.369 42.363,205.975 46.576,205.975 C46.914,205.975 47.254,205.987 47.594,206.018 C48.373,206.1 49.198,206.129 50.049,206.129 C55.649,206.129 62.449,204.568 65.039,201.074 C65.975,199.82 66.271,198.422 65.951,196.82 L65.767,195.783 C66.097,195.791 66.425,195.803 66.755,195.812 C68.521,195.863 70.329,195.884 72.191,195.884 C74.048,195.884 75.857,195.863 77.625,195.812 C77.994,195.802 78.363,195.791 78.725,195.773 L78.426,196.82 C78.108,198.422 78.406,199.82 79.342,201.074 C81.93,204.568 88.74,206.129 94.342,206.129 C95.196,206.129 96.016,206.1 96.797,206.018 C97.139,205.987 97.475,205.975 97.815,205.975 C102.028,205.975 105.684,208.37 109.229,210.68 C112.323,212.705 115.25,214.616 118.395,214.955 C118.959,210.146 123.243,207.074 127.866,206.406 C127.137,205.019 126.747,203.242 126.747,201.228 C126.747,198.558 127.427,195.927 128.556,193.996 C124.365,193.687 117.029,192.609 113.495,190.994 L112.333,190.306 C112.745,190.171 113.144,190.017 113.544,189.874 C143.22,178.911 143.659,155.579 144.122,142.436 C144.727,124.837 133.23,100.705 133.23,54.468 L133.23,54.468 Z" id="Shape" fill="#EDE2D5"></path>
                <path d="M133.23,54.468 C133.23,100.704 144.726,124.837 144.121,142.437 C143.658,155.58 143.219,178.912 113.543,189.875 C111.078,190.791 108.397,191.623 105.5,192.34 C118.375,174.936 121.928,155.158 116.535,141.801 C111.14,128.444 102.406,126.903 116.535,100.19 C130.662,73.475 119.625,44.452 105.5,36.487 C91.361,28.526 84.611,51.981 72.191,51.981 C59.767,51.981 53.017,28.526 38.878,36.487 C24.753,44.452 13.716,73.475 27.843,100.19 C41.972,126.903 33.238,128.444 27.843,141.801 C22.448,155.158 26.005,174.936 38.878,192.34 C35.982,191.623 33.302,190.791 30.835,189.875 C1.161,178.912 0.72,155.58 0.269,142.437 C-0.348,124.837 11.148,100.705 11.148,54.468 C11.148,8.231 60.466,0.032 72.191,0.032 C83.912,0.033 133.23,8.232 133.23,54.468 L133.23,54.468 Z" id="Shape" fill="#433739"></path>
                <path d="M38.879,192.339 C46.524,194.271 55.719,195.503 66.756,195.812 C69.457,204.742 55.719,207.812 47.5,207.042 C39.281,206.271 32.982,216.034 25.02,216.034 C25.02,210.382 19.368,207.3 14.624,207.3 C17.767,204.155 16.925,196.13 13.843,193.048 C17.314,193.048 27.2,191.755 30.837,189.874 C33.303,190.791 35.982,191.623 38.879,192.339 L38.879,192.339 Z" id="Shape" fill="#E4CB8D"></path>
                <path d="M130.539,193.048 C127.457,196.13 126.615,204.155 129.769,207.3 C125.009,207.3 119.359,210.382 119.359,216.034 C111.396,216.034 105.109,206.27 96.89,207.042 C88.669,207.812 74.921,204.741 77.624,195.812 C88.661,195.503 97.854,194.271 105.499,192.339 C108.395,191.622 111.077,190.79 113.542,189.874 C117.182,191.755 127.066,193.048 130.539,193.048 L130.539,193.048 Z" id="Shape" fill="#E4CB8D"></path>
                <path d="M72.191,107.89 L84.418,98.595 C80.924,95.101 76.455,93.253 72.186,93.253 C67.917,93.253 63.446,95.101 59.952,98.595 L72.182,107.89 L72.182,107.894 L72.186,107.892 L72.192,107.894 L72.192,107.89 L72.191,107.89 Z" id="Shape" fill="#E4CB8D"></path>
                <g transform="translate(25.000000, 64.000000)" id="Shape">
                    <g>
                        <path d="M18.846,0.859 C28.895,0.859 37.049,9.009 37.049,19.064 C37.049,29.111 28.895,37.265 18.846,37.265 C8.793,37.265 0.643,29.111 0.643,19.064 C0.643,9.009 8.793,0.859 18.846,0.859 L18.846,0.859 Z" fill="#FFFFFF"></path>
                        <path d="M28.768,21.367 C31.508,21.367 33.731,19.148 33.731,16.408 C33.731,13.662 31.508,11.443 28.768,11.443 C26.024,11.443 23.805,13.662 23.805,16.408 C23.805,19.148 26.023,21.367 28.768,21.367 L28.768,21.367 Z" fill="#433739"></path>
                    </g>
                    <g transform="translate(57.000000, 0.000000)">
                        <path d="M18.537,0.859 C28.586,0.859 36.744,9.007 36.744,19.064 C36.744,29.113 28.586,37.267 18.537,37.267 C8.482,37.267 0.332,29.113 0.332,19.064 C0.332,9.007 8.482,0.859 18.537,0.859 L18.537,0.859 Z" fill="#FFFFFF"></path>
                        <path d="M25.375,12.47 C22.633,12.47 20.41,14.689 20.41,17.435 C20.41,20.173 22.633,22.396 25.375,22.396 C28.115,22.396 30.34,20.173 30.34,17.435 C30.34,14.689 28.115,12.47 25.375,12.47 L25.375,12.47 Z" fill="#433739"></path>
                    </g>
                </g>
            </g>
        </g>
    </g>
</svg>