<?xml version="1.0" encoding="UTF-8" standalone="no"?>
<svg width="210px" height="222px" viewBox="0 0 210 222" version="1.1" xmlns="http://www.w3.org/2000/svg" xmlns:xlink="http://www.w3.org/1999/xlink" xmlns:sketch="http://www.bohemiancoding.com/sketch/ns">
    <!-- Generator: Sketch 3.2.1 (9977) - http://www.bohemiancoding.com/sketch -->
    <title>Slice 1</title>
    <desc>Created with Sketch.</desc>
    <defs></defs>
    <g id="Page-1" stroke="none" stroke-width="1" fill="none" fill-rule="evenodd" sketch:type="MSPage">
        <path d="M206.943,78.7265 C207.346,78.9605 207.561,79.4495 207.563,79.9375 C207.565,80.3495 207.417,80.7615 207.103,81.0235 C197.776,88.8225 188.658,141.6445 121.574,124.3325 C118.258,123.4775 113.967,127.5125 115.002,130.7325 C126.135,165.3105 111.178,205.3125 90.803,217.0005 C94.157,205.8125 47.688,165.0165 78.03,126.6955 C81.483,122.3305 79.831,117.7405 74.721,118.4845 C39.334,123.6305 27.658,91.9745 27.658,91.9745 C50.976,70.3025 72.779,77.4215 85.619,85.5365 C92.683,90.0035 91.133,86.6615 89.59,81.3175 C82.899,58.1515 95.358,23.4135 115.346,0.9995 C115.875,10.2555 162.807,34.4155 122.791,86.1445 C119.764,90.0565 123.139,91.8455 128.137,89.0215 C162.105,69.8105 181.933,64.1525 206.943,78.7265 L206.943,78.7265 Z" id="Path" fill="#BCBA51" sketch:type="MSShapeGroup"></path>
        <g id="red2" sketch:type="MSLayerGroup" transform="translate(14.000000, 4.000000)" fill="#A21E25">
            <path d="M121.715,126.546 C145.051,165.317 115.488,186.831 107.242,200.622 C106.439,201.962 103.701,203.251 101.527,201.077 C85.162,185.989 76.152,171.261 81.806,143.772 C82.531,138.165 79.132,136.684 76.111,141.415 C46.595,187.589 16.687,157.409 2.22,157.907 C1.255,157.94 0.079,156.546 1.447,152.518 C10.336,125.747 18.859,112.975 45.502,109.573 C49.006,109.126 49.727,106.493 46.58,104.745 C32.982,97.19 25.373,82.468 22.699,71.321 C19.185,56.675 21.254,43.546 14.06,34.137 C12.755,32.432 12.376,29.358 17.634,29.905 C32.751,31.477 64.638,37.921 84.773,64.264 C88.173,68.717 89.589,67.045 88.8,61.764 C82.847,22.076 123.489,14.524 131.318,0.881 C131.621,0.354 132.228,0.11 132.906,0.113 C133.897,0.119 135.04,0.654 135.603,1.609 C152.505,30.257 152.263,59.011 139.269,75.972 C137.759,77.941 139.779,80.38 142.374,80.132 C173.728,77.083 182.2,94.437 187.3,111.403 C190.107,120.741 191.893,129.96 195.909,135.598 C155.641,151.284 142.884,131.567 126.077,122.358 C123.063,120.707 120.199,124.035 121.715,126.546 L121.715,126.546 Z M102.441,216.109 L102.434,216.109 L102.434,216.115 L102.441,216.115 L102.441,216.109 L102.441,216.109 Z" id="Shape" sketch:type="MSShapeGroup"></path>
        </g>
        <g id="red1" sketch:type="MSLayerGroup" transform="translate(0.000000, 5.000000)" fill="#D52048">
            <path d="M183.656,143.378 C184.602,160.86 172.043,177.556 175.236,188.013 C132.984,178.958 133.177,155.476 124.209,138.534 C122.6,135.495 118.383,136.7 118.262,139.632 C116.42,184.847 79.897,186.548 65.426,193.528 C63.043,194.518 60.821,192.446 60.403,190.762 C55.036,169.162 55.616,151.905 75.46,132.063 C79.149,127.776 77.126,124.672 71.999,126.958 C21.95,149.282 13.579,107.624 1.224,100.081 C0.923,99.897 0.703,99.538 0.71,99.03 C0.721,98.147 1.413,96.811 3.542,95.157 C25.694,77.69 39.837,71.714 63.956,83.528 C67.13,85.085 69.181,83.284 67.515,80.092 C60.316,66.303 62.062,49.822 65.962,39.043 C71.085,24.879 80.034,15.051 79.202,3.238 C79.102,1.822 79.671,0.131 81.249,0.111 C82.059,0.103 83.133,0.535 84.519,1.67 C96.277,11.299 119.359,34.223 121.677,67.299 C122.07,72.889 124.171,72.272 126.415,67.428 C143.28,31.01 181.374,47.065 195.417,39.977 C196.753,39.303 198.685,41.079 198.593,42.942 C196.947,76.165 180.925,100.044 160.743,107.057 C158.403,107.871 158.747,111.02 161.05,112.241 C177.659,122.119 183.089,132.89 183.656,143.378 L183.656,143.378 Z M118.211,216.109 L118.204,216.109 L118.204,216.115 L118.211,216.115 L118.211,216.109 L118.211,216.109 Z" id="Shape" sketch:type="MSShapeGroup"></path>
        </g>
        <path d="M172.976127,109.535 C166.134127,108.529 157.566127,102.971 142.884127,103.572 C138.257127,103.76 137.519127,101.949 141.359127,99.463 C160.199127,87.254 158.088127,71.436 158.088127,71.436 C152.707127,66.791 134.127127,69.422 121.680127,81.848 C119.850127,83.678 117.950127,82.657 118.170127,80.25 C120.047127,59.807 102.678127,51.447 102.678127,51.447 C94.5021272,56.254 90.8891272,71.955 91.5861272,83.576 C91.7811272,86.808 89.9861272,87.629 88.2321272,85.924 C75.2111272,73.256 56.8201272,77.604 47.5051272,80.795 C48.2321272,90.705 54.4871272,101.483 64.6091272,105.734 C67.9841272,107.154 68.2401272,108.978 65.0991272,110.017 C44.1561272,116.972 43.6051272,132.326 43.6051272,132.326 C50.5911272,138.359 64.6521272,139.863 75.3821272,136.099 C78.1401272,135.13 78.9861272,137.16 77.7241272,139.607 C70.7081272,153.222 76.0931272,165 76.0931272,165 C89.3161272,164.031 100.034127,157.674 106.165127,140.365 C106.722127,138.787 109.089127,139.24 109.849127,140.986 C117.829127,159.328 131.226127,163.306 140.550127,163.609 C141.986127,163.656 143.632127,161.986 143.339127,161.138 C140.944127,154.294 144.655127,144.197 141.737127,134.743 C141.370127,133.542 142.516127,132.132 143.673127,132.37 C153.222127,134.358 164.380127,125.874 174.486127,113.622 C175.646127,112.207 174.713127,109.787 172.976127,109.535 L172.976127,109.535 Z" id="Path" fill="#BCBA51" sketch:type="MSShapeGroup"></path>
    </g>
</svg>