<?xml version="1.0" encoding="UTF-8" standalone="no"?>
<svg width="236px" height="253px" viewBox="0 0 236 253" version="1.1" xmlns="http://www.w3.org/2000/svg" xmlns:xlink="http://www.w3.org/1999/xlink" xmlns:sketch="http://www.bohemiancoding.com/sketch/ns">
    <!-- Generator: Sketch 3.2.1 (9977) - http://www.bohemiancoding.com/sketch -->
    <title>Slice 1</title>
    <desc>Created with Sketch.</desc>
    <defs></defs>
    <g id="Page-1" stroke="none" stroke-width="1" fill="none" fill-rule="evenodd" sketch:type="MSPage">
        <g id="brown_dark" sketch:type="MSLayerGroup" fill="#8B5E3C">
            <path d="M235.657,21.469 C235.657,4.121 229.888,0.565 225.914,0.435 C224.562,0.391 223.42,0.742 222.78,1.082 C217.061,4.129 223.553,15.138 214.915,16.823 C207.576,18.25 208.326,3.302 199.174,5.374 C189.699,7.52 199.528,19.151 191.663,23.272 C186.512,25.965 182.683,11.758 175.244,16.641 C170.611,19.688 175.45,29.56 178.109,33.101 C181.682,37.876 180.32,44.089 170.663,47.79 C168.582,45.312 166.329,42.983 163.915,40.827 C167.671,37.007 169.549,22.951 166.65,20.042 C163.774,17.166 151.734,21.146 147.819,30.042 C138.805,25.707 128.698,23.272 118.032,23.272 C107.365,23.272 97.267,25.697 88.256,30.032 C84.339,21.147 72.299,17.166 69.424,20.042 C66.528,22.95 68.405,36.985 72.149,40.815 C69.747,42.983 67.481,45.312 65.411,47.79 C55.754,44.089 54.391,37.876 57.965,33.101 C60.627,29.56 65.466,19.688 60.83,16.641 C53.394,11.758 49.563,25.965 44.412,23.272 C36.546,19.151 46.376,7.52 36.9,5.374 C27.748,3.302 28.499,18.25 21.159,16.823 C12.521,15.138 19.013,4.129 13.294,1.082 C12.682,0.756 11.606,0.42 10.331,0.431 C6.352,0.466 0.418,3.873 0.418,21.469 C0.418,44.699 26.825,57.147 58.759,57.179 C52.749,67.395 49.295,79.294 49.295,92.009 C49.295,108.813 55.324,124.212 65.336,136.154 C65.336,136.154 60.077,146.305 60.077,150.565 C59.478,150.983 58.114,151.96 58.017,152.035 C56.163,153.323 54.175,154.847 52.224,156.456 C50.946,157.507 49.669,158.592 48.446,159.664 C42.554,164.792 37.619,169.729 37.619,169.729 C37.619,169.729 39.583,185.706 53.887,192.917 C56.473,192.102 62.171,187.638 65.477,184.945 C66.956,183.733 67.956,182.874 67.956,182.874 C69.855,189.581 69.821,201.566 69.821,208.004 C69.821,214.077 68.373,225.987 67.129,235.151 C66.175,242.136 65.337,247.523 65.337,247.523 C67.744,249.931 85.455,252.536 97.972,252.426 C102.192,252.389 105.822,252.044 108.076,251.279 C108.076,245.001 108.634,241.074 109.343,238.424 C109.976,236.095 110.728,234.765 111.35,233.681 C112.67,231.385 115.117,229.282 118.036,229.282 L118.047,229.282 C120.964,229.282 123.412,231.385 124.731,233.681 C125.342,234.764 126.106,236.095 126.739,238.424 C127.447,241.075 128.005,245.001 128.005,251.279 C130.232,252.035 133.801,252.382 137.954,252.425 C150.479,252.557 168.326,249.941 170.743,247.523 C170.743,247.523 169.897,242.136 168.952,235.161 C167.707,225.997 166.259,214.077 166.259,208.003 C166.259,201.565 166.226,189.579 168.126,182.873 C168.126,182.873 169.124,183.731 170.604,184.944 C173.909,187.637 179.607,192.101 182.193,192.916 C196.497,185.706 198.461,169.728 198.461,169.728 C198.461,169.728 193.525,164.791 187.645,159.663 C186.411,158.59 185.134,157.505 183.858,156.455 C181.85,154.803 179.811,153.236 177.913,151.927 C177.871,151.894 176.605,150.971 176.004,150.564 C176.004,146.304 170.745,136.153 170.745,136.153 C180.757,124.211 186.786,108.812 186.786,92.008 C186.786,79.293 183.333,67.394 177.324,57.178 C209.25,57.147 235.657,44.699 235.657,21.469 L235.657,21.469 Z" id="Shape" sketch:type="MSShapeGroup"></path>
        </g>
        <g id="brown_medium" sketch:type="MSLayerGroup" transform="translate(48.000000, 19.000000)" fill="#A97C50">
            <path d="M139.52,140.977 C138.619,145.376 134.981,158.65 122.479,166.257 C121,165.045 120.002,164.186 120.002,164.186 C118.101,170.893 118.135,182.878 118.135,189.316 C118.135,195.389 119.582,207.31 120.827,216.474 C115.258,218.68 99.639,220.74 88.172,220.636 C84.35,220.602 80.988,220.326 78.614,219.737 C77.981,217.409 77.218,216.078 76.606,214.994 C75.289,212.698 72.84,210.595 69.923,210.595 L69.912,210.595 C66.993,210.595 64.547,212.698 63.226,214.994 C62.604,216.077 61.851,217.409 61.218,219.737 C58.638,220.378 54.892,220.648 50.655,220.64 C39.297,220.62 24.413,218.613 19.005,216.464 C20.25,207.3 21.698,195.39 21.698,189.317 C21.698,182.879 21.731,170.893 19.833,164.187 C19.833,164.187 18.833,165.045 17.354,166.258 C4.853,158.651 1.214,145.377 0.324,140.978 C1.549,139.905 2.825,138.821 4.103,137.77 C6.054,136.161 8.041,134.637 9.895,133.349 C9.992,133.273 11.356,132.297 11.956,131.879 C11.956,127.619 17.214,117.469 17.214,117.469 C7.203,105.526 1.173,90.128 1.173,73.323 C1.173,60.608 4.627,48.709 10.638,38.493 C12.591,35.167 14.811,32.034 17.29,29.104 C19.36,26.626 21.626,24.297 24.027,22.129 C20.284,18.299 18.407,4.264 21.302,1.356 C22.022,0.636 23.317,0.346 24.913,0.454 C29.695,0.779 37.198,4.684 40.135,11.345 C49.147,7.01 59.244,4.585 69.911,4.585 C80.576,4.585 90.684,7.02 99.698,11.356 C102.66,4.624 110.277,0.707 115.052,0.446 C116.587,0.362 117.828,0.656 118.528,1.356 C121.426,4.264 119.549,18.32 115.793,22.141 C118.208,24.297 120.461,26.626 122.542,29.104 C125.021,32.034 127.242,35.167 129.195,38.493 C135.204,48.709 138.658,60.608 138.658,73.323 C138.658,90.127 132.629,105.526 122.617,117.469 C122.617,117.469 127.875,127.619 127.875,131.879 C128.477,132.287 129.743,133.21 129.785,133.242 C131.683,134.551 133.723,136.117 135.73,137.77 C137.009,138.819 138.285,139.904 139.52,140.977 L139.52,140.977 Z M69.926,252.423 L69.919,252.423 L69.919,252.43 L69.926,252.43 L69.926,252.423 L69.926,252.423 Z" id="Shape" sketch:type="MSShapeGroup"></path>
        </g>
        <g id="brown_light" sketch:type="MSLayerGroup" transform="translate(60.000000, 89.000000)" fill="#C49A6C">
            <path d="M89.318,79.73 C91.699,99.838 86.216,123.413 58.211,123.413 C30.192,123.413 24.721,99.839 27.083,79.73 C15.311,75.363 5.117,68.946 0.244,61.682 C0.244,57.421 5.503,47.271 5.503,47.271 C18.11,62.315 37.039,71.875 58.2,71.875 C79.359,71.875 98.288,62.314 110.906,47.271 C110.906,47.271 116.165,57.421 116.165,61.682 C111.292,68.946 101.088,75.374 89.318,79.73 L89.318,79.73 Z M105.294,27.598 C105.294,42.602 84.211,54.765 58.202,54.765 C32.194,54.765 11.111,42.602 11.111,27.598 C11.111,12.593 32.194,0.431 58.202,0.431 C84.211,0.431 105.294,12.593 105.294,27.598 L105.294,27.598 Z M48.375,21.622 C48.375,18.322 45.699,15.647 42.4,15.647 C39.099,15.647 36.425,18.322 36.425,21.622 C36.425,24.922 39.099,27.598 42.4,27.598 C45.699,27.598 48.375,24.922 48.375,21.622 L48.375,21.622 Z M79.981,21.622 C79.981,18.322 77.305,15.647 74.006,15.647 C70.705,15.647 68.03,18.322 68.03,21.622 C68.03,24.922 70.705,27.598 74.006,27.598 C77.306,27.598 79.981,24.922 79.981,21.622 L79.981,21.622 Z M58.208,252.423 L58.201,252.423 L58.201,252.43 L58.208,252.43 L58.208,252.423 L58.208,252.423 Z" id="Shape" sketch:type="MSShapeGroup"></path>
        </g>
        <g id="scarf" sketch:type="MSLayerGroup" transform="translate(49.500000, 170.500000) rotate(-270.000000) translate(-49.500000, -170.500000) translate(14.000000, 44.000000)" fill="#BE1E2D">
            <path d="M30.823,22.053 C30.823,22.053 51.758,19.349 67.317,13.984 C69.917,16.584 70.809,19.501 70.836,22.672 C70.891,29.163 67.317,36.725 67.317,44.833 C67.317,44.833 49.879,42.591 37.251,42.591 C38.303,47.956 38.882,53.321 38.882,58.385 C38.882,80.082 28.334,107.337 14.89,116.351 C10.629,116.351 0.479,111.093 0.479,111.093 C15.523,98.485 25.083,79.556 25.083,58.395 C25.083,37.237 15.522,18.308 0.479,5.689 C0.479,5.689 10.629,0.431 14.89,0.431 C21.048,4.562 26.617,12.535 30.823,22.053 L30.823,22.053 Z M35.661,252.423 L35.654,252.423 L35.654,252.43 L35.661,252.43 L35.661,252.423 L35.661,252.423 Z" id="Shape" sketch:type="MSShapeGroup"></path>
        </g>
        <g id="eyes" sketch:type="MSLayerGroup" transform="translate(38.500000, 80.500000) rotate(-270.000000) translate(-38.500000, -80.500000) translate(19.000000, -46.000000)" fill="#E2E3E4">
            <path d="M19.343,54.085 C29.837,54.085 38.353,62.598 38.353,73.097 C38.353,83.592 29.836,92.107 19.343,92.107 C8.843,92.107 0.33,83.592 0.33,73.097 C0.331,62.598 8.844,54.085 19.343,54.085 L19.343,54.085 Z M2.819,16.952 C2.819,26.073 10.217,33.473 19.342,33.473 C28.463,33.473 35.865,26.073 35.865,16.952 C35.865,7.826 28.463,0.431 19.342,0.431 C10.217,0.431 2.819,7.826 2.819,16.952 L2.819,16.952 Z M19.35,252.423 L19.343,252.423 L19.343,252.43 L19.35,252.43 L19.35,252.423 L19.35,252.423 Z" id="Shape" sketch:type="MSShapeGroup"></path>
        </g>
        <g id="eyes_pupil" sketch:type="MSLayerGroup" transform="translate(88.000000, 71.000000)" fill="#000000">
            <circle id="Oval-1" sketch:type="MSShapeGroup" cx="7" cy="7" r="7"></circle>
            <circle id="Oval-2" sketch:type="MSShapeGroup" cx="56" cy="7" r="7"></circle>
        </g>
    </g>
</svg>