<?xml version="1.0" encoding="UTF-8" standalone="no"?>
<svg width="157px" height="217px" viewBox="0 0 157 217" version="1.1" xmlns="http://www.w3.org/2000/svg" xmlns:xlink="http://www.w3.org/1999/xlink" xmlns:sketch="http://www.bohemiancoding.com/sketch/ns">
    <!-- Generator: Sketch 3.2.1 (9977) - http://www.bohemiancoding.com/sketch -->
    <title>Slice 1</title>
    <desc>Created with Sketch.</desc>
    <defs></defs>
    <g id="Page-1" stroke="none" stroke-width="1" fill="none" fill-rule="evenodd" sketch:type="MSPage">
        <g id="Rudolph" sketch:type="MSLayerGroup">
            <g id="Group" sketch:type="MSShapeGroup">
                <path d="M120.213,57.469 L120.203,57.467 C120.203,57.467 117.303,53.264 115.398,51.072 C114.97,50.582 114.101,49.601 114.101,49.601 L114.736,48.958 C120.787,41.483 125.757,39.95 131.736,39.95 C133.023,39.95 134.312,40.013 135.681,40.085 C137.134,40.167 138.63,40.239 140.208,40.239 C142.122,40.239 143.874,40.122 145.569,39.878 C151.948,38.97 153.823,33.11 153.462,27.931 C153.144,23.513 151.13,19.794 149.052,19.794 C148.98,19.794 148.907,19.794 148.835,19.804 C147.048,20.011 146.712,21.544 146.403,24.757 C146.141,27.575 145.813,31.087 142.174,31.405 C142.067,31.413 141.949,31.413 141.84,31.413 C139.127,31.413 138.238,28.72 137.459,26.343 C136.615,23.784 135.988,22.234 134.428,22.234 C134.301,22.234 134.164,22.244 134.03,22.261 C132.143,22.525 131.844,24.23 131.516,26.978 C131.207,29.519 130.819,32.666 127.571,33.019 C127.399,33.039 127.237,33.048 127.071,33.048 C124.133,33.048 123.108,30.226 122.2,27.73 C121.331,25.345 120.714,23.894 119.407,23.894 C119.317,23.894 119.227,23.904 119.136,23.912 C117.404,24.131 115.898,25.246 116.54,31.914 C117.112,37.928 113.901,40.185 110.183,42.809 C109.81,43.063 108.249,44.116 108.249,44.116 C108.022,43.934 107.796,43.743 107.569,43.571 C105.483,41.911 103.28,40.395 100.973,39.044 C92.356,33.946 82.305,31.034 71.573,31.034 C63.692,31.034 56.171,32.612 49.323,35.47 L49.313,35.47 C49.032,35.589 48.741,35.706 48.461,35.833 C48.461,35.833 47.299,34.374 47.018,34.019 C44.161,30.49 41.684,27.433 43.879,21.818 C46.309,15.578 45.166,14.089 43.561,13.41 C43.317,13.31 43.09,13.256 42.873,13.256 C41.73,13.256 40.631,14.781 39.578,16.25 C38.244,18.092 36.74,20.188 34.48,20.188 C33.982,20.188 33.472,20.079 32.966,19.879 C29.925,18.645 30.417,15.506 30.816,12.983 C31.242,10.245 31.414,8.53 29.681,7.76 C29.345,7.614 29.038,7.541 28.747,7.541 C27.44,7.541 26.343,9.174 25.272,10.752 C24.002,12.631 22.688,14.57 20.6,14.57 C20.192,14.57 19.774,14.49 19.348,14.336 C15.938,13.039 16.573,9.565 17.09,6.779 C17.67,3.603 17.77,2.043 16.102,1.353 C15.875,1.263 15.637,1.218 15.393,1.218 C12.936,1.218 9.805,5.454 8.817,10.116 C8.272,12.655 7.682,18.86 13.78,21.563 C17.18,23.079 20.255,23.778 23.221,24.458 C30.125,26.036 36.112,27.396 40.965,38.718 L41.301,39.572 C41.047,39.717 40.793,39.881 40.539,40.043 C38.279,41.469 36.129,43.055 34.1,44.787 C33.719,45.107 33.37,45.4 33.377,45.402 L33.369,45.4 C33.24,36.123 20.437,26.099 0.689,28.164 C7.119,32.949 -1.653,55.223 23.994,55.855 L24.004,55.857 C23.994,55.855 21.375,59.808 19.893,62.722 C15.875,70.613 13.606,79.538 13.606,89.001 C13.606,106.39 21.262,121.993 33.391,132.614 C26.27,135.68 18.721,140.887 13.606,146.249 C8.526,151.329 0.961,151.647 7.637,162.315 C14.305,172.983 14.559,172.338 25.77,166.878 C27.848,166.425 29.227,165.962 29.227,165.962 C31.041,176.194 31.604,197.448 29.227,199.562 C26.85,201.676 22.86,203.943 22.86,208.689 C22.86,213.441 45.829,218.548 61.848,215.265 C65.721,211.835 66.356,204.079 71.563,203.962 C76.778,204.079 77.415,211.835 81.288,215.265 C97.308,218.548 120.276,213.441 120.276,208.689 C120.276,203.943 116.286,201.675 113.907,199.562 C111.532,197.449 112.093,176.195 113.907,165.962 C113.907,165.962 115.288,166.425 117.364,166.878 C128.575,172.339 128.831,172.983 135.499,162.315 C142.173,151.647 134.608,151.329 129.528,146.249 C124.413,140.888 116.864,135.681 109.745,132.614 C121.874,121.993 129.528,106.389 129.528,89.001 C129.528,82.351 128.438,76.034 126.376,70.087 C126.386,70.11 126.36,70.064 126.368,70.087 L126.376,70.087 C151.226,76.472 148.858,52.651 156.355,49.8 C137.918,42.428 122.869,48.578 120.213,57.469 L120.213,57.469 Z" id="Shape" fill="#B69450"></path>
                <path d="M43.916,12.574 C46.408,13.625 47.096,16.066 44.729,22.148 C42.354,28.228 45.891,30.918 49.325,35.47 C46.262,36.74 43.331,38.273 40.548,40.048 L40.538,40.038 C33.833,23.388 25.329,27.692 13.409,22.39 C1.489,17.099 10.63,-1.881 16.452,0.513 C21.563,2.615 14.317,11.454 19.677,13.48 C24.064,15.134 25.163,4.773 30.048,6.927 C34.943,9.083 28.534,17.103 33.312,19.031 C38.08,20.967 39.531,10.709 43.916,12.574 L43.916,12.574 Z" id="Shape" fill="#E8D5B4"></path>
                <path d="M148.736,18.902 C154.99,18.185 158.617,38.939 145.693,40.781 C132.779,42.629 125.783,36.172 114.781,50.357 C112.586,47.9 110.172,45.623 107.572,43.568 C112.129,40.125 116.254,38.5 115.638,32.004 C115.011,25.506 116.347,23.348 119.021,23.014 C123.755,22.418 122.347,32.68 127.472,32.119 C132.585,31.566 128.609,22.103 133.904,21.365 C139.199,20.627 137.425,30.892 142.105,30.5 C147.807,30.01 143.244,19.531 148.736,18.902 L148.736,18.902 Z" id="Shape" fill="#E8D5B4"></path>
                <path d="M100.939,163.91 C104.085,168.746 109.785,194.752 71.566,194.752 C33.357,194.752 39.054,168.746 42.203,163.91 C47.219,156.199 49.932,149.17 49.932,142.783 C56.618,145.486 63.918,146.965 71.575,146.965 C79.223,146.965 86.526,145.486 93.212,142.793 C93.211,149.178 95.922,156.199 100.939,163.91 L100.939,163.91 Z" id="Shape" fill="#E8D5B4"></path>
                <g transform="translate(28.000000, 84.000000)" id="Shape">
                    <path d="M18.891,0.83 C27.676,2.051 33.819,10.17 32.596,18.963 C31.373,27.75 23.25,33.889 14.465,32.666 C5.674,31.443 -0.465,23.324 0.758,14.537 C1.979,5.744 10.098,-0.393 18.891,0.83 L18.891,0.83 Z" fill="#FFFFFF"></path>
                    <path d="M72.059,8.221 C80.848,9.442 86.991,17.559 85.768,26.354 C84.547,35.141 76.422,41.282 67.633,40.059 C58.842,38.838 52.705,30.717 53.926,21.928 C55.148,13.133 63.268,6.998 72.059,8.221 L72.059,8.221 Z" fill="#FFFFFF"></path>
                    <path d="M12.34,16.303 C14.736,16.637 16.949,14.965 17.283,12.571 C17.617,10.169 15.943,7.96 13.547,7.626 C11.145,7.292 8.936,8.962 8.602,11.364 C8.268,13.76 9.938,15.971 12.34,16.303 L12.34,16.303 Z" fill="#433739"></path>
                    <path d="M66.715,15.014 C64.317,14.682 62.104,16.352 61.77,18.754 C61.436,21.149 63.11,23.361 65.508,23.695 C67.904,24.029 70.119,22.355 70.453,19.961 C70.785,17.559 69.111,15.348 66.715,15.014 L66.715,15.014 Z" fill="#433739"></path>
                </g>
                <path d="M76.887,115.762 C77.387,112.168 74.744,109.815 68.793,108.989 C62.84,108.161 59.658,109.704 59.158,113.298 C58.66,116.876 66.908,121.976 66.978,122.019 L66.978,122.021 L66.98,122.019 L66.982,122.021 L66.982,122.019 C67.063,121.994 76.389,119.34 76.887,115.762 L76.887,115.762 Z" id="Shape" fill="#D52048"></path>
                <g transform="translate(5.000000, 36.000000)" id="Shape" fill="#7A6024">
                    <path d="M21.68,16.307 C13.649,16.18 5.717,13.932 4.127,0.661 C20.133,0.824 21.68,16.307 21.68,16.307 L21.68,16.307 Z"></path>
                    <path d="M119.768,29.941 C119.768,29.941 125.481,15.468 140.922,19.675 C135.773,32.012 127.531,32.01 119.768,29.941 L119.768,29.941 Z"></path>
                    <path d="M112.367,130.877 C120.603,122.641 124.531,110.248 124.531,110.248 C129.611,115.328 137.176,115.646 130.502,126.314 C123.834,136.982 123.578,136.338 112.367,130.877 L112.367,130.877 Z"></path>
                    <path d="M8.609,110.248 C8.609,110.248 12.537,122.641 20.773,130.877 C9.562,136.338 9.308,136.982 2.64,126.314 C-4.035,115.646 3.529,115.328 8.609,110.248 L8.609,110.248 Z"></path>
                </g>
                <g transform="translate(10.000000, 26.000000)" id="Shape">
                    <path d="M119.115,42.205 C117.777,41.551 116.363,40.904 114.904,40.281 C101.793,34.713 84.115,30.322 66.228,29.531 C42.689,28.476 23.455,30.857 11.73,33.377 C10.201,33.703 8.8,34.031 7.537,34.359 C2.848,42.826 -4.106,61.312 3.131,70.287 C3.463,70.697 4.07,70.414 4.006,69.891 C3.838,68.453 3.719,67.004 3.66,65.547 C27.035,51.43 68.336,45.01 119.512,61.172 C119.555,62.514 119.549,63.867 119.496,65.225 C119.465,65.959 120.236,66.266 120.58,65.606 C121.154,64.502 121.559,63.264 121.816,61.915 C122.861,56.5 121.514,49.314 119.115,42.205 L119.115,42.205 Z" fill="#FFFFFF"></path>
                    <path d="M117.924,77.922 C124.934,66.016 122.721,49.248 119.674,40.895 C116.842,33.137 104.424,5.379 73.57,1.09 C37.783,-3.885 15.935,20.397 9.738,33.815 L9.736,33.823 C10.371,33.673 11.041,33.528 11.73,33.378 C23.455,30.858 42.689,28.478 66.228,29.532 C75.503,29.942 84.726,31.325 93.277,33.329 C101.343,39.001 106.644,47.515 104.16,56.759 C104.144,56.802 104.137,56.855 104.123,56.9 C101.742,66.056 106.043,75.045 109.611,79.478 C106.154,81.425 103.607,84.908 103.019,89.14 C102.019,96.337 107.048,102.98 114.246,103.982 C121.443,104.982 128.086,99.961 129.086,92.763 C130.084,85.584 125.09,78.945 117.924,77.922 L117.924,77.922 Z" fill="#A21E25"></path>
                    <path d="M118.084,76.799 C125.869,77.912 131.293,85.121 130.209,92.918 C129.123,100.736 121.908,106.189 114.092,105.104 C106.274,104.016 100.811,96.801 101.897,88.985 C102.536,84.387 105.299,80.602 109.055,78.489 C111.69,77.005 114.805,76.343 118.026,76.792 C118.045,76.793 118.064,76.797 118.084,76.799 L118.084,76.799 Z" fill="#F7F2E8"></path>
                </g>
            </g>
        </g>
    </g>
</svg>