<?xml version="1.0" encoding="UTF-8" standalone="no"?>
<svg width="149px" height="217px" viewBox="0 0 149 217" version="1.1" xmlns="http://www.w3.org/2000/svg" xmlns:xlink="http://www.w3.org/1999/xlink" xmlns:sketch="http://www.bohemiancoding.com/sketch/ns">
    <!-- Generator: Sketch 3.2.1 (9977) - http://www.bohemiancoding.com/sketch -->
    <title>Slice 1</title>
    <desc>Created with Sketch.</desc>
    <defs></defs>
    <g id="Page-1" stroke="none" stroke-width="1" fill="none" fill-rule="evenodd" sketch:type="MSPage">
        <g id="Santa_Claus" sketch:type="MSLayerGroup">
            <g id="Group" sketch:type="MSShapeGroup">
                <path d="M114.061,118.547 C124.043,109.813 131.221,97.951 134.071,84.484 C134.081,84.423 134.091,84.353 134.104,84.283 L135.063,84.484 C150.905,84.484 145.233,61.535 135.063,64.773 C133.715,52.109 128.584,40.582 120.825,31.322 C116.489,26.146 111.333,21.674 105.55,18.125 C96.032,12.287 84.837,8.916 72.857,8.916 C60.878,8.916 49.669,12.287 40.162,18.125 C34.383,21.674 29.213,26.133 24.885,31.311 C17.119,40.569 11.987,52.11 10.639,64.774 C0.483,61.557 -5.191,84.485 10.653,84.485 L11.598,84.284 C11.61,84.354 11.621,84.425 11.631,84.485 C14.481,97.952 21.672,109.825 31.652,118.548 C15.996,125.3 -0.498,140.484 3.853,150.605 C8.273,160.857 27.156,154.544 27.156,154.544 C29.119,165.587 29.724,194.232 27.156,196.513 C24.592,198.794 20.287,203.337 20.287,208.458 C20.287,213.587 45.072,219.103 62.369,215.55 C66.545,211.849 67.23,195.679 72.857,195.55 C74.763,195.599 76.103,197.486 77.205,200.103 C80.103,207.119 80.586,213.105 83.346,215.55 C100.633,219.103 125.416,213.587 125.416,208.458 C125.416,203.337 121.121,198.794 118.547,196.513 C115.983,194.232 116.596,165.587 118.547,154.544 C118.547,154.544 137.428,160.857 141.852,150.605 C146.213,140.482 129.717,125.313 114.061,118.547 L114.061,118.547 Z" id="Shape" fill="#F1CEAE"></path>
                <g transform="translate(28.000000, 70.000000)" id="Shape">
                    <path d="M17.85,0.686 C27.424,0.686 35.196,8.452 35.196,18.034 C35.196,27.61 27.425,35.378 17.85,35.378 C8.27,35.378 0.502,27.61 0.502,18.034 C0.502,8.451 8.27,0.686 17.85,0.686 L17.85,0.686 Z" fill="#FFFFFF"></path>
                    <path d="M9.203,25.125 C11.814,25.125 13.933,23.008 13.933,20.398 C13.933,17.781 11.814,15.668 9.203,15.668 C6.588,15.668 4.474,17.781 4.474,20.398 C4.475,23.008 6.588,25.125 9.203,25.125 L9.203,25.125 Z" fill="#433739"></path>
                    <path d="M75.787,0.686 C85.363,0.686 93.137,8.452 93.137,18.034 C93.137,27.61 85.364,35.38 75.787,35.38 C66.207,35.38 58.439,27.61 58.439,18.034 C58.439,8.451 66.207,0.686 75.787,0.686 L75.787,0.686 Z" fill="#FFFFFF"></path>
                    <path d="M67.139,15.668 C64.528,15.668 62.41,17.781 62.41,20.398 C62.41,23.007 64.527,25.125 67.139,25.125 C69.752,25.125 71.871,23.008 71.871,20.398 C71.871,17.781 69.752,15.668 67.139,15.668 L67.139,15.668 Z" fill="#433739"></path>
                </g>
                <path d="M114.068,118.549 C103.052,128.194 88.64,134.039 72.859,134.039 C57.086,134.039 42.664,128.193 31.65,118.549 C24.972,121.438 6.82,135.389 7.31,136.25 C8.386,138.229 9.699,140.795 11.099,143.506 C13.292,147.795 15.788,152.651 17.953,156.371 C18.531,157.32 18.932,157.398 19.391,157.398 C19.989,157.398 27.157,154.539 27.157,154.539 C28.675,163.057 29.38,182.043 28.438,191.324 C34.176,196.638 58.879,200.752 69.727,197.717 L69.737,197.717 C70.589,196.385 71.596,195.543 72.86,195.543 C74.133,195.543 75.2,196.639 75.954,197.736 L75.974,197.716 C86.812,200.761 111.533,196.638 117.271,191.323 C116.341,182.042 117.046,163.055 118.552,154.538 C118.552,154.538 125.73,157.397 126.327,157.397 C126.786,157.397 127.188,157.319 127.766,156.36 C129.928,152.649 132.426,147.794 134.62,143.505 C136.018,140.794 137.331,138.228 138.399,136.259 C138.896,135.389 120.754,121.438 114.068,118.549 L114.068,118.549 Z" id="Shape" fill="#A21E25"></path>
                <path d="M69.727,197.717 L69.737,197.717 C66.751,202.26 65.614,212.666 62.364,215.545 C45.073,219.1 20.284,213.588 20.284,208.457 C20.284,203.338 24.593,198.793 27.157,196.512 C27.745,195.994 28.165,194.084 28.438,191.324 C34.176,196.639 58.879,200.752 69.727,197.717 L69.727,197.717 Z" id="Shape" fill="#433739"></path>
                <path d="M118.543,196.512 C121.117,198.793 125.414,203.338 125.414,208.457 C125.414,213.588 100.635,219.1 83.344,215.545 C80.584,213.098 80.104,207.115 77.207,200.106 C76.824,199.206 76.424,198.403 75.973,197.717 C86.801,200.762 111.504,196.639 117.26,191.332 C117.535,194.084 117.955,195.994 118.543,196.512 L118.543,196.512 Z" id="Shape" fill="#433739"></path>
                <g transform="translate(6.000000, 128.000000)" id="Shape" fill="#FFFFFF">
                    <path d="M21.146,26.938 C17.33,21.235 10.582,7.313 7.203,1.458 C6.31,-0.155 4.9,1.854 3.256,3.509 C1.611,5.152 -0.517,6.999 0.455,8.736 C3.226,13.808 7.559,22.769 11.109,28.867 C12.338,30.906 13.515,30.531 16.437,29.781 C19.359,29.018 22.395,28.805 21.146,26.938 L21.146,26.938 Z"></path>
                    <path d="M112.57,26.938 C116.386,21.235 123.134,7.313 126.513,1.458 C127.406,-0.155 128.816,1.854 130.46,3.509 C132.103,5.152 134.235,6.999 133.261,8.736 C130.491,13.808 126.159,22.769 122.607,28.867 C121.378,30.906 120.203,30.531 117.279,29.781 C114.357,29.018 111.322,28.805 112.57,26.938 L112.57,26.938 Z"></path>
                    <path d="M111.758,32.613 C102.192,37.031 86.633,38.545 74.809,38.97 L74.809,5.529 C72.205,5.871 69.551,6.039 66.86,6.039 C64.167,6.039 61.505,5.871 58.899,5.529 L58.899,38.97 C47.081,38.544 31.516,37.031 21.95,32.613 C21.196,32.25 20.042,33.869 20.423,40.988 C20.786,47.66 22.763,51.25 22.841,51.287 C34.806,56.617 54.954,57.596 66.851,57.596 C78.755,57.596 110.869,51.287 110.878,51.274 C112.142,50.731 112.905,48.073 113.286,40.989 C113.668,33.869 112.512,32.25 111.758,32.613 L111.758,32.613 Z"></path>
                </g>
                <path d="M72.859,6.201 L72.849,6.201 C23.074,6.201 9.335,37.619 9.335,68.088 C9.335,83.283 9.825,98.254 13.89,108.955 C24.494,136.906 56.9,148.656 72.849,148.656 C88.808,148.656 121.204,136.906 131.818,108.955 C144.037,76.793 147.463,6.201 72.859,6.201 L72.859,6.201 Z M83.795,119.039 C80.367,117.814 75.59,117.941 72.859,117.941 C70.117,117.941 65.349,117.814 61.921,119.039 C58.495,120.262 16.827,102.924 16.827,73.268 C16.827,43.612 38.786,27.985 51.268,26.028 C63.752,24.069 66.043,37.288 72.858,37.288 C79.663,37.288 81.954,24.069 94.436,26.028 C106.918,27.985 128.889,43.612 128.889,73.268 C128.889,102.924 87.221,120.262 83.795,119.039 L83.795,119.039 Z" id="Shape" fill="#ECEADB"></path>
                <g transform="translate(23.000000, 60.000000)" id="Shape">
                    <path d="M58.066,56.295 C56.119,59.25 52.252,59.922 49.853,59.922 C47.454,59.922 43.589,59.25 41.642,56.295" stroke="#CB8977" stroke-width="3"></path>
                    <path d="M65.398,43.221 C53.785,39.19 52.171,45.157 49.855,45.157 C47.537,45.157 45.925,39.19 34.314,43.221 C22.701,47.254 20.927,50.963 12.543,48.061 C16.574,58.543 39.109,66.928 49.856,54.188 C60.602,66.928 83.137,58.543 87.169,48.061 C78.783,50.963 77.008,47.254 65.398,43.221 L65.398,43.221 Z" fill="#FFFFFF"></path>
                    <path d="M32.465,10.148 C32.088,6.658 31.334,3.675 29.817,1.244 C29.629,0.945 28.622,0.504 28.325,0.57 C17.686,2.972 9.282,6.873 1.452,12.998 C0.286,14.164 0.46,15.019 0.598,15.551 C1.268,18.127 2.225,20.858 3.487,23.362 C3.69,23.764 4.874,23.95 5.253,23.659 C12.868,17.833 21.052,14.083 31.329,11.735 C31.746,11.639 32.512,10.578 32.465,10.148 L32.465,10.148 Z" fill="#F2F1E6"></path>
                    <path d="M67.252,10.148 C67.629,6.658 68.383,3.675 69.902,1.244 C70.088,0.945 71.095,0.504 71.392,0.57 C82.031,2.972 90.435,6.873 98.267,12.998 C99.431,14.164 99.257,15.019 99.119,15.551 C98.451,18.127 97.494,20.858 96.23,23.362 C96.027,23.764 94.843,23.95 94.462,23.659 C86.851,17.833 78.665,14.083 68.388,11.735 C67.971,11.639 67.205,10.578 67.252,10.148 L67.252,10.148 Z" fill="#F2F1E6"></path>
                </g>
                <ellipse id="Oval" fill="#F3D6BB" cx="72.854" cy="100.436" rx="9.502" ry="7.021"></ellipse>
                <path d="M137.467,96.668 C138.309,89.48 138.867,82.873 139.192,76.781 C139.417,76.371 139.68,75.695 139.975,74.56 C140.641,65.757 140.395,57.915 139.241,51.267 C139.21,51.042 139.173,50.826 139.122,50.621 C139.034,50.24 138.927,49.877 138.8,49.545 C135.06,11.852 117.417,6.27 105.12,2.285 C88.475,-3.1 85.372,6.935 57.018,4.986 C28.664,3.029 14.038,32.451 10.856,44.56 C10.797,44.806 10.727,45.226 10.668,45.716 C10.355,45.843 10.043,45.98 9.729,46.116 C8.985,46.44 6.94,48.007 6.469,51.237 C5.315,57.915 5.069,65.757 5.735,74.559 C6.45,77.377 7.065,77.407 7.075,77.407 C7.096,77.407 7.175,77.399 7.311,77.329 C26.913,66.686 55.088,58.659 72.85,58.659 C87.899,58.659 110.436,64.415 128.881,72.649 C128.881,79.297 128.891,90.801 128.891,96.264 C122.811,97.869 118.336,103.401 118.336,109.981 C118.336,117.823 124.691,124.178 132.533,124.178 C140.375,124.178 146.73,117.823 146.73,109.981 C146.73,103.873 142.881,98.674 137.467,96.668 L137.467,96.668 Z" id="Shape" fill="#A21E25"></path>
                <path d="M140.209,51.102 C140.17,50.858 140.131,50.622 140.072,50.387 C139.386,47.313 137.398,45.698 136.42,45.246 C136.4,45.226 136.391,45.226 136.371,45.217 C117.367,36.914 90.148,30.434 72.85,30.434 C55.559,30.434 28.34,36.914 9.336,45.217 C8.289,45.678 6.018,47.508 5.5,51.102 C4.441,57.211 4.012,64.877 4.766,74.747 C4.766,74.757 4.766,74.757 4.774,74.767 C5.333,76.98 6.186,79.046 7.772,78.193 C26.813,67.855 55.079,59.64 72.85,59.64 C90.629,59.64 118.895,67.855 137.938,78.193 C139.524,79.047 140.366,76.98 140.934,74.767 C140.944,74.757 140.944,74.757 140.944,74.747 C141.697,64.877 141.266,57.211 140.209,51.102 L140.209,51.102 Z" id="Shape" fill="#FFFFFF"></path>
                <path d="M137.92,95.443 C143.834,97.634 148.035,103.31 148.035,109.982 C148.035,118.546 141.097,125.484 132.533,125.484 C123.969,125.484 117.031,118.546 117.031,109.982 C117.031,102.798 121.918,96.757 128.554,95.003 C129.827,94.661 131.154,94.48 132.533,94.48 C134.426,94.48 136.244,94.822 137.92,95.443 L137.92,95.443 Z" id="Shape" fill="#FFFFFF"></path>
            </g>
        </g>
    </g>
</svg>