<?xml version="1.0" encoding="UTF-8" standalone="no"?>
<svg width="288px" height="205px" viewBox="0 0 288 205" version="1.1" xmlns="http://www.w3.org/2000/svg" xmlns:xlink="http://www.w3.org/1999/xlink" xmlns:sketch="http://www.bohemiancoding.com/sketch/ns">
    <!-- Generator: Sketch 3.2.1 (9977) - http://www.bohemiancoding.com/sketch -->
    <title>Slice 1</title>
    <desc>Created with Sketch.</desc>
    <defs></defs>
    <g id="Page-1" stroke="none" stroke-width="1" fill="none" fill-rule="evenodd" sketch:type="MSPage">
        <g id="scalloped_bottom" sketch:type="MSLayerGroup" fill="#EEDC9E">
            <path d="M287.999,102.379 C287.999,100.566 260.478,85.279 275.462,63.451 C281.964,53.991 288.337,36.58 276.272,20.811 C266.275,7.767 246.962,8.224 233.436,21.75 C228.392,12.132 211.607,4.481 186.847,19.469 C162.085,34.456 146.384,0 143.999,0 C141.614,0 125.913,34.456 101.151,19.47 C76.392,4.482 59.62,12.133 54.563,21.751 C41.036,8.225 21.721,7.768 11.727,20.812 C-0.327,36.581 6.045,53.992 12.536,63.452 C27.522,85.279 0,100.565 0,102.379 C0,104.176 27.521,119.463 12.535,141.29 C6.045,150.752 -0.327,168.174 11.726,183.93 C21.72,196.974 41.035,196.519 54.562,182.992 C59.619,192.61 76.391,200.259 101.15,185.272 C125.912,170.287 141.613,204.741 143.998,204.741 C146.384,204.741 162.085,170.287 186.846,185.272 C211.606,200.258 228.391,192.61 233.435,182.992 C246.961,196.519 266.274,196.974 276.271,183.93 C288.336,168.174 281.963,150.752 275.461,141.29 C260.477,119.463 287.999,104.176 287.999,102.379 L287.999,102.379 Z" id="Shape" sketch:type="MSShapeGroup"></path>
        </g>
        <g id="scalloped_top" sketch:type="MSLayerGroup" fill="#6C9D31">
            <path d="M288,102.377 C288,100.953 271.031,91.224 270.994,76.543 C270.984,72.527 272.242,68.139 275.463,63.449 C279.299,57.869 283.09,49.523 283.077,40.379 C283.068,34.022 281.22,27.277 276.272,20.811 C271.404,14.46 264.328,11.311 256.788,11.311 C248.842,11.311 240.377,14.809 233.435,21.749 C230.442,16.042 223.309,11.027 212.831,11.025 C205.655,11.025 196.911,13.377 186.847,19.467 C182.425,22.144 178.288,23.243 174.468,23.243 C156.9,23.244 145.958,0 144,0 C142.037,0 131.098,23.244 113.53,23.244 C109.709,23.244 105.574,22.145 101.152,19.468 C91.088,13.377 82.343,11.026 75.172,11.026 C64.692,11.026 57.565,16.043 54.565,21.75 C47.623,14.81 39.159,11.312 31.211,11.312 C23.67,11.31 16.594,14.461 11.729,20.812 C6.786,27.277 4.94,34.021 4.931,40.379 C4.92,49.524 8.709,57.869 12.537,63.449 C15.758,68.138 17.014,72.527 17.004,76.543 C16.969,91.224 0,100.953 0,102.377 C0,103.787 16.969,113.514 17.004,128.193 C17.014,132.211 15.758,136.596 12.537,141.288 C8.709,146.869 4.92,155.221 4.931,164.364 C4.94,170.721 6.785,177.466 11.729,183.927 C16.594,190.278 23.67,193.43 31.211,193.43 C39.158,193.43 47.622,189.93 54.565,182.989 C57.565,188.698 64.694,193.713 75.172,193.713 C82.344,193.713 91.086,191.361 101.152,185.27 C105.574,182.594 109.709,181.496 113.53,181.496 C124.085,181.496 132.249,189.888 137.509,196.585 L137.566,196.66 C141.029,201.076 143.22,204.739 144,204.739 C144.777,204.739 146.971,201.076 150.431,196.66 L150.491,196.585 C155.749,189.886 163.915,181.496 174.471,181.496 C178.291,181.496 182.422,182.595 186.848,185.27 C196.911,191.362 205.658,193.713 212.832,193.713 C223.312,193.713 230.442,188.698 233.436,182.989 C240.377,189.93 248.842,193.43 256.789,193.43 C264.329,193.43 271.405,190.28 276.273,183.927 C281.22,177.465 283.069,170.721 283.078,164.364 C283.091,155.22 279.3,146.869 275.464,141.288 C272.243,136.597 270.985,132.211 270.995,128.193 C271.032,113.514 288,103.787 288,102.377 L288,102.377 Z M264.327,113.528 C261.68,118.598 260.419,123.856 260.585,129.155 C260.775,135.328 262.891,141.392 266.866,147.188 C269.872,151.558 271.915,156.766 272.477,161.486 C273.192,167.45 271.725,172.716 267.995,177.59 C264.566,182.066 260.009,183.007 256.789,183.007 C251.326,183.007 245.501,180.313 240.808,175.619 C238.841,173.647 236.181,172.563 233.438,172.563 C232.916,172.563 232.393,172.603 231.867,172.681 C228.59,173.18 225.744,175.209 224.205,178.147 C222.962,180.518 219.238,183.287 212.834,183.287 C206.863,183.287 199.746,180.888 192.248,176.35 C186.453,172.845 180.475,171.069 174.473,171.069 C166.164,171.069 158.17,174.425 150.711,181.047 C148.149,183.32 145.918,185.735 144.002,188.029 C142.083,185.734 139.85,183.32 137.289,181.047 C129.832,174.426 121.84,171.069 113.532,171.069 C107.527,171.069 101.549,172.845 95.758,176.35 C88.256,180.887 81.14,183.287 75.174,183.287 C68.772,183.287 65.043,180.514 63.795,178.141 C62.254,175.206 59.407,173.18 56.134,172.682 C55.61,172.604 55.087,172.565 54.567,172.565 C51.823,172.565 49.165,173.648 47.194,175.617 C42.501,180.313 36.674,183.008 31.214,183.008 C27.991,183.008 23.437,182.067 20.008,177.591 C16.282,172.725 14.82,167.453 15.53,161.487 C16.095,156.767 18.139,151.555 21.135,147.184 C25.114,141.393 27.229,135.327 27.419,129.156 C27.581,123.857 26.322,118.599 23.674,113.529 C21.338,109.058 18.235,105.326 15.313,102.37 C18.239,99.411 21.349,95.673 23.685,91.191 C26.329,86.12 27.583,80.866 27.419,75.57 C27.223,69.403 25.109,63.339 21.133,57.549 C18.136,53.184 16.095,47.973 15.529,43.257 C14.818,37.291 16.281,32.019 20.013,27.142 C23.435,22.674 27.99,21.737 31.21,21.737 C36.675,21.737 42.499,24.428 47.192,29.121 C49.163,31.091 51.821,32.175 54.563,32.175 C55.084,32.175 55.606,32.136 56.131,32.057 C59.405,31.558 62.252,29.534 63.793,26.601 C65.041,24.226 68.77,21.453 75.172,21.453 C81.139,21.453 88.258,23.851 95.755,28.389 C101.542,31.895 107.524,33.672 113.53,33.672 C121.838,33.672 129.83,30.316 137.287,23.695 C139.848,21.421 142.081,19.007 144,16.712 C145.916,19.006 148.147,21.42 150.707,23.692 C158.164,30.315 166.158,33.671 174.469,33.671 C180.473,33.671 186.451,31.894 192.246,28.388 C199.746,23.851 206.863,21.45 212.83,21.452 C219.236,21.453 222.96,24.221 224.203,26.592 C225.742,29.528 228.588,31.557 231.865,32.057 C232.387,32.136 232.912,32.175 233.435,32.175 C236.179,32.175 238.835,31.093 240.806,29.121 C245.499,24.429 251.325,21.737 256.787,21.737 C260.007,21.737 264.564,22.675 267.997,27.154 C271.724,32.024 273.19,37.295 272.476,43.259 C271.913,47.973 269.872,53.182 266.872,57.542 C262.891,63.338 260.777,69.402 260.583,75.569 C260.415,80.865 261.671,86.119 264.315,91.188 C266.651,95.671 269.76,99.408 272.684,102.369 C269.765,105.325 266.662,109.058 264.327,113.528 L264.327,113.528 Z" id="Shape" sketch:type="MSShapeGroup"></path>
        </g>
    </g>
</svg>