<?xml version="1.0" encoding="UTF-8" standalone="no"?>
<svg width="189px" height="217px" viewBox="0 0 189 217" version="1.1" xmlns="http://www.w3.org/2000/svg" xmlns:xlink="http://www.w3.org/1999/xlink" xmlns:sketch="http://www.bohemiancoding.com/sketch/ns">
    <!-- Generator: Sketch 3.2.1 (9977) - http://www.bohemiancoding.com/sketch -->
    <title>Slice 1</title>
    <desc>Created with Sketch.</desc>
    <defs></defs>
    <g id="Page-1" stroke="none" stroke-width="1" fill="none" fill-rule="evenodd" sketch:type="MSPage">
        <g id="Snowflake" sketch:type="MSLayerGroup">
            <g id="Group" sketch:type="MSShapeGroup">
                <path d="M188.2,158.959 C185.637,155.727 183.595,152.08 181.854,148.35 C181.438,147.455 181.143,146.248 180.389,145.569 C179.619,144.876 178.672,144.96 177.707,144.985 C176.285,145.024 174.852,145.108 173.422,145.096 C172.512,145.088 171.723,143.508 172.276,142.83 C173.034,141.9 173.846,141.016 174.727,140.205 C175.428,139.564 176.188,139.076 176.518,138.137 C176.825,137.26 176.809,136.235 176.455,135.373 C175.644,133.394 172.855,132.828 170.965,132.639 C169.975,132.539 168.975,132.53 167.979,132.582 C166.647,132.652 166.041,131.256 167.083,130.361 C169.294,128.463 171.511,126.548 173.257,124.23 L173.259,124.226 C174.697,122.308 173.032,119.412 170.775,119.238 L170.777,119.238 C164.72,118.787 158.548,121.004 153.207,123.666 C151.346,120.475 148.228,118.234 145.086,116.43 L145.084,116.428 C143.434,115.489 141.047,116.364 140.373,118.141 C139.633,120.088 138.926,121.745 136.977,122.784 C136.383,122.22 135.768,121.7 135.143,121.21 C137.375,118.147 138.709,114.388 138.709,110.31 C138.709,105.316 136.725,100.79 133.512,97.456 C134.737,96.64 135.938,95.708 137.065,94.632 C139.028,95.671 139.713,97.333 140.475,99.282 C141.18,101.083 143.643,101.86 145.289,100.911 L145.293,100.909 C148.393,99.108 151.455,96.868 153.287,93.714 C157.131,95.616 161.244,97.155 165.49,97.829 C166.652,98.013 167.824,98.128 168.998,98.147 C169.992,98.167 171.162,98.245 172.057,97.743 C173.719,96.817 174.325,94.35 173.129,92.827 L173.127,92.827 C171.418,90.657 169.32,88.837 167.215,87.036 C166.156,86.13 166.455,84.665 167.674,84.753 C169.699,84.899 171.748,84.794 173.645,84.142 C175.055,83.66 176.331,82.908 176.702,81.371 C176.979,80.137 176.706,78.693 175.671,77.881 L175.667,77.879 C174.501,76.979 173.462,75.904 172.513,74.758 C171.884,73.998 172.394,72.25 173.23,72.235 C174.972,72.2 176.726,72.321 178.464,72.35 C181.146,72.393 181.657,69.368 182.634,67.389 C183.718,65.201 184.913,63.067 186.263,61.034 C187.488,59.188 189.863,57.12 188.501,54.729 L188.497,54.721 C187.835,53.569 186.501,52.953 185.192,53.149 C180.883,53.778 176.467,53.684 172.143,53.256 C171.266,53.168 170.309,52.908 169.467,53.283 C168.528,53.701 168.143,54.679 167.684,55.531 C167.098,56.615 166.532,57.724 165.911,58.795 C165.417,59.647 163.483,59.453 163.141,58.524 C162.705,57.336 162.346,56.122 162.116,54.885 C161.942,53.953 161.768,53.217 161.053,52.535 C160.311,51.851 159.291,51.394 158.266,51.469 C156.346,51.61 154.672,53.602 153.653,55.063 C153.034,55.95 152.495,56.895 152.022,57.87 C151.51,58.921 150.211,58.946 150.002,57.864 C149.57,55.63 149.164,53.389 148.535,51.202 C148.125,49.766 147.732,47.911 146.232,47.243 C144.937,46.667 143.238,46.977 142.296,48.061 C140.321,50.348 139.269,53.776 138.525,56.645 C137.755,59.618 137.316,62.674 137.123,65.739 C135.168,65.749 133.246,66.212 131.42,66.895 C129.77,67.516 127.639,68.297 126.307,69.499 C124.979,70.692 124.85,73.011 126.102,74.298 C127.454,75.65 128.293,77.415 128.221,79.349 C124.657,80.396 121.561,82.197 119.094,84.064 L104.344,75.572 C104.789,72.107 104.694,68.57 103.871,65.166 C105.504,64.139 107.463,63.978 109.307,64.471 L109.309,64.471 C111.133,64.957 113.055,63.477 113.37,61.694 C113.403,61.524 113.425,61.354 113.427,61.18 C113.427,57.598 113.011,53.815 111.198,50.651 C116.184,47.335 121.184,43.073 123.813,37.571 L123.815,37.569 C124.85,35.385 122.69,32.698 120.358,33.034 L120.358,33.032 C120.348,33.034 120.34,33.036 120.333,33.036 L120.333,33.038 C117.339,33.472 114.476,34.526 111.616,35.53 C110.559,35.899 109.927,34.772 110.618,33.762 C112.171,31.504 113.399,28.942 113.247,26.268 L113.247,26.262 C113.13,24.192 110.601,22.569 108.673,23.358 L108.685,23.354 C107.177,23.973 105.56,24.35 103.933,24.598 C103.117,24.725 102.245,23.225 102.697,22.422 C103.513,20.975 104.445,19.588 105.295,18.174 C105.854,17.24 106.035,16.184 105.34,15.254 C104.477,14.098 103.647,12.916 102.854,11.709 C101.5,9.648 100.25,7.512 99.178,5.289 C98.266,3.396 97.711,0.732 95.133,0.664 L95.133,0.66 L95.063,0.658 L95.059,0.658 L95.045,0.658 C92.414,0.654 91.836,3.377 90.916,5.283 C89.842,7.51 88.594,9.646 87.236,11.711 C86.509,12.815 85.754,13.895 84.968,14.955 C84.175,16.025 84.099,17.019 84.788,18.17 C85.704,19.695 86.714,21.191 87.573,22.76 C87.952,23.453 86.944,24.719 86.118,24.588 C84.702,24.365 83.3,24.043 81.956,23.563 C80.177,22.93 78.173,23.254 77.181,25.073 C76.23,26.811 77.144,29.315 77.898,30.958 C78.377,31.985 78.953,32.962 79.591,33.897 C80.229,34.832 79.337,35.84 78.185,35.44 C75.956,34.665 73.73,33.876 71.429,33.352 C69.993,33.028 68.421,32.614 67.2,33.692 C66.126,34.641 65.667,36.313 66.3,37.633 C68.941,43.106 73.921,47.344 78.892,50.651 C77.062,53.837 76.667,57.633 76.665,61.243 L76.665,61.341 L76.669,61.341 C76.702,63.32 78.839,64.984 80.771,64.476 L80.783,64.474 C82.629,63.978 84.584,64.144 86.224,65.165 C85.394,68.569 85.3,72.11 85.745,75.577 L71.081,84.065 C68.573,82.137 65.388,80.264 61.712,79.184 C61.634,76.955 62.71,75.549 64.026,73.909 C65.235,72.401 64.68,69.864 63.026,68.917 L63.028,68.917 C59.917,67.136 56.448,65.606 52.798,65.589 C52.605,62.583 52.171,59.583 51.423,56.663 C51.028,55.124 50.544,53.608 49.929,52.143 C49.322,50.705 48.607,49.041 47.556,47.864 C46.536,46.725 44.747,46.634 43.462,47.348 C42.126,48.09 41.767,49.659 41.378,51.022 C40.81,53.006 40.425,55.034 40.038,57.059 C39.788,58.368 38.364,58.704 37.825,57.612 C37.36,56.674 36.839,55.764 36.235,54.907 C35.212,53.454 33.54,51.485 31.626,51.346 C29.722,51.209 28.14,52.612 27.851,54.422 C27.636,55.777 27.249,57.11 26.775,58.404 C26.431,59.336 24.539,59.605 24.062,58.791 C23.476,57.791 22.943,56.76 22.396,55.744 C21.935,54.892 21.541,53.797 20.658,53.287 C19.76,52.771 18.72,53.055 17.75,53.15 C13.432,53.578 9.021,53.677 4.715,53.052 L4.719,53.052 C3.42,52.863 2.092,53.462 1.426,54.609 L1.422,54.613 C0.76,55.756 0.887,57.226 1.713,58.256 L1.709,58.252 C4.27,61.484 6.307,65.133 8.043,68.867 C8.457,69.765 8.752,70.971 9.504,71.652 C10.272,72.343 11.215,72.263 12.178,72.236 C13.668,72.197 15.17,72.109 16.668,72.134 C17.514,72.146 18.422,73.38 18.014,73.904 C16.918,75.314 15.703,76.654 14.309,77.746 L14.311,77.744 C12.684,79.029 12.754,82.033 14.506,83.182 L14.51,83.184 C16.768,84.651 19.596,84.866 22.328,84.647 C23.549,84.549 24.193,85.682 23.338,86.424 C21.639,87.899 19.926,89.356 18.361,90.975 C17.4,91.971 16.076,93.155 16.07,94.645 C16.082,95.975 16.968,97.264 18.193,97.776 C19.603,98.36 21.601,98.065 23.078,97.905 C24.824,97.717 26.547,97.352 28.236,96.878 C31.142,96.06 33.961,94.925 36.664,93.583 C38.519,96.776 41.635,99.021 44.777,100.829 L44.779,100.831 C46.427,101.772 48.814,100.895 49.49,99.128 C50.236,97.177 50.939,95.521 52.894,94.483 C54.039,95.577 55.263,96.518 56.507,97.342 C53.23,100.686 51.202,105.26 51.202,110.313 C51.202,114.344 52.505,118.065 54.692,121.108 C54.047,121.612 53.415,122.147 52.807,122.729 C51.1,121.831 49.981,120.208 49.487,118.372 L49.487,118.374 C48.926,116.386 46.313,115.44 44.561,116.466 L44.569,116.458 C41.471,118.265 38.411,120.507 36.583,123.665 C32.743,121.769 28.636,120.235 24.392,119.563 C23.232,119.381 22.06,119.266 20.886,119.247 C19.888,119.231 18.712,119.151 17.81,119.653 C16.15,120.581 15.544,123.053 16.744,124.575 C18.58,126.897 20.865,128.815 23.119,130.743 C24.027,131.518 23.133,132.679 21.732,132.6 C19.168,132.459 16.56,132.743 14.453,134.12 L14.457,134.118 C12.727,135.257 12.58,138.245 14.223,139.526 C15.416,140.444 16.477,141.546 17.446,142.719 C18.053,143.455 17.444,145.157 16.579,145.168 C15.118,145.189 13.651,145.107 12.2,145.072 C11.22,145.049 10.253,144.959 9.477,145.664 C8.723,146.344 8.434,147.553 8.018,148.449 C6.291,152.181 4.264,155.83 1.713,159.066 L1.715,159.064 C0.895,160.089 0.762,161.552 1.418,162.693 L1.42,162.697 C2.738,164.99 5.41,164.117 7.535,163.957 C10.131,163.764 12.744,163.783 15.342,163.947 C17.547,164.088 20.42,165.154 21.719,162.799 C22.547,161.303 23.307,159.744 24.188,158.268 C24.627,157.53 26.346,157.741 26.665,158.569 C27.228,160.032 27.679,161.544 27.897,163.083 L27.895,163.079 C28.196,165.132 30.833,166.561 32.702,165.628 L32.712,165.622 C35.101,164.393 36.704,162.058 37.882,159.587 C38.407,158.482 39.745,158.665 39.978,159.866 C40.388,161.981 40.789,164.102 41.384,166.175 C41.796,167.605 42.191,169.462 43.689,170.128 C44.982,170.704 46.685,170.392 47.621,169.308 C49.6,167.023 50.646,163.589 51.389,160.72 C52.157,157.745 52.592,154.687 52.782,151.622 C56.475,151.599 59.971,150.026 63.11,148.208 L63.114,148.204 C64.86,147.186 65.196,144.493 63.796,143.054 L63.794,143.052 C62.444,141.706 61.595,139.935 61.667,138.003 C65.243,136.948 68.349,135.138 70.817,133.263 L85.624,141.507 C85.147,145.058 85.233,148.683 86.089,152.171 C84.261,153.337 82.433,153.165 80.403,152.825 C78.481,152.501 76.54,154.253 76.54,156.171 C76.569,159.765 76.966,163.528 78.792,166.7 C75.251,169.069 71.888,171.848 69.192,175.165 C68.51,176.005 67.878,176.882 67.307,177.8 C66.772,178.663 66.057,179.689 65.957,180.724 C65.764,182.703 67.664,184.624 69.654,184.347 L69.674,184.345 C72.408,183.943 75.035,183.029 77.649,182.101 C78.96,181.636 80.079,182.615 79.395,183.622 C78.196,185.393 77.221,187.329 76.891,189.407 C76.68,190.735 76.727,192.038 77.717,193.048 C78.645,193.966 80.086,194.507 81.354,194.001 L81.366,193.997 C82.944,193.343 84.641,192.956 86.345,192.704 C87.087,192.595 87.843,194.044 87.415,194.811 C86.589,196.295 85.638,197.717 84.772,199.166 C84.213,200.102 84.036,201.156 84.733,202.086 C85.598,203.24 86.43,204.418 87.227,205.625 C88.586,207.682 89.838,209.816 90.916,212.037 C91.84,213.941 92.42,216.656 95.045,216.658 L95.051,216.658 C96.375,216.66 97.576,215.81 98.055,214.584 L98.053,214.588 C99.567,210.766 101.69,207.186 104.039,203.824 C104.629,202.978 105.582,202.074 105.76,201.027 C105.942,199.943 105.256,199.08 104.719,198.213 C103.959,196.984 103.155,195.762 102.455,194.488 C102.084,193.814 102.916,192.556 103.652,192.66 C105.343,192.904 107.031,193.279 108.605,193.914 C110.539,194.676 113.085,193.101 113.209,191.016 L113.209,191.01 C113.33,188.572 112.328,186.246 110.98,184.153 C110.177,182.909 110.542,181.397 111.626,181.776 C114.583,182.811 117.544,183.891 120.646,184.272 L120.652,184.272 C122.619,184.504 124.136,182.538 124.004,180.69 C123.934,179.696 123.305,178.766 122.801,177.934 C122.196,176.936 121.508,175.985 120.77,175.082 C118.055,171.762 114.666,168.988 111.098,166.629 C112.901,163.473 113.297,159.717 113.303,156.145 L113.303,155.985 L113.303,155.973 C113.285,153.969 111.11,152.276 109.16,152.817 L109.178,152.813 C107.326,153.313 105.381,153.147 103.737,152.133 C104.536,148.811 104.633,145.365 104.219,141.981 L118.826,133.245 C121.332,135.161 124.512,137.024 128.176,138.095 C128.258,139.896 127.516,141.591 126.309,142.9 C125.036,144.281 124.789,146.351 126.172,147.814 C127.301,149.007 129.385,149.738 130.879,150.337 C132.858,151.128 134.965,151.677 137.108,151.685 C137.379,155.831 138.077,160.017 139.518,163.927 C139.891,164.939 140.321,165.931 140.817,166.89 C141.29,167.804 141.815,168.937 142.598,169.628 C144.18,171.026 147.028,170.368 147.817,168.405 L147.819,168.401 C148.964,165.52 149.479,162.436 150.048,159.381 C150.239,158.344 151.431,158.256 151.882,159.211 C152.398,160.303 152.986,161.359 153.681,162.346 C154.708,163.797 156.38,165.76 158.292,165.901 C160.194,166.04 161.782,164.635 162.067,162.827 C162.307,161.304 162.758,159.811 163.319,158.364 C163.616,157.593 165.344,157.581 165.811,158.368 C166.598,159.696 167.291,161.089 168.034,162.434 C168.534,163.34 169.083,164.139 170.206,164.247 C171.52,164.376 173.009,163.989 174.331,163.897 C176.981,163.713 179.651,163.674 182.304,163.86 C184.439,164.01 187.156,164.901 188.49,162.61 L188.494,162.604 C189.151,161.459 189.024,159.987 188.2,158.959 L188.2,158.959 Z" id="Shape" fill="#FFFFFF"></path>
                <path d="M186.353,160.422 C183.714,157.088 181.091,152.606 178.812,147.317 C175.158,147.368 171.179,147.776 168.294,146.797 C167.853,146.645 167.476,145.524 167.71,145.151 C169.398,142.471 171.829,139.432 174.124,137.628 C174.454,137.37 174.478,136.271 174.087,136.017 C170.55,133.716 162.956,135.576 159.673,136.488 C159.038,136.662 158.597,135.955 158.857,135.482 C161.023,131.554 168.267,126.966 171.373,122.818 C171.637,122.466 171.096,121.625 170.602,121.588 C163.883,121.086 156.118,124.776 153.229,126.303 C152.487,126.694 151.85,126.237 151.706,125.897 C150.179,122.286 146.165,119.764 143.915,118.473 C143.466,118.217 142.657,118.649 142.56,119.022 C141.091,124.571 136.388,125.536 136.388,125.536 C133.394,122.249 129.447,120.128 126.095,118.895 L125.927,98.647 C129.329,97.424 133.406,95.264 136.47,91.889 C136.47,91.889 141.165,92.834 142.654,98.383 C142.754,98.754 143.619,99.16 144.111,98.875 C146.345,97.578 150.179,95.115 151.722,91.635 C151.894,91.25 152.607,90.717 153.413,91.139 C156.393,92.694 164.087,96.28 170.737,95.744 C171.216,95.705 171.616,94.715 171.276,94.283 C168.098,90.24 161.165,85.806 158.969,81.982 C158.676,81.476 159.149,80.718 159.84,80.91 C163.188,81.828 170.649,83.596 174.139,81.312 C174.53,81.056 174.535,79.982 174.225,79.74 C171.926,77.963 169.477,74.922 167.77,72.238 C167.526,71.849 167.834,70.718 168.245,70.57 C171.134,69.55 175.149,69.959 178.839,69.998 C181.112,64.705 183.718,60.228 186.351,56.891 C186.609,56.561 186.617,56.178 186.453,55.893 C186.289,55.606 185.959,55.418 185.541,55.477 C181.332,56.092 176.141,56.116 170.424,55.436 C168.633,58.625 166.994,62.272 164.701,64.278 C164.349,64.585 163.189,64.346 162.984,63.96 C161.511,61.155 160.099,57.528 159.689,54.638 C159.63,54.224 158.689,53.652 158.275,53.863 C154.509,55.773 152.316,63.275 151.459,66.574 C151.293,67.211 150.459,67.236 150.18,66.775 C147.867,62.935 147.526,54.365 145.494,49.597 C145.32,49.193 144.322,49.24 144.043,49.652 C140.238,55.213 139.541,63.783 139.414,67.047 C139.383,67.885 138.666,68.207 138.301,68.16 C134.41,67.674 130.217,69.885 127.973,71.183 C127.526,71.445 127.496,72.361 127.768,72.63 C131.834,76.683 130.313,81.235 130.313,81.235 C125.915,82.192 122.057,84.592 119.305,86.901 L101.776,76.811 C102.421,73.252 102.59,68.643 101.202,64.297 C101.202,64.297 104.37,60.707 109.921,62.193 C110.292,62.295 111.075,61.748 111.075,61.177 C111.071,58.595 110.856,54.044 108.616,50.966 C108.368,50.626 108.264,49.741 109.03,49.253 C111.868,47.452 118.825,42.583 121.688,36.558 C121.893,36.126 121.237,35.283 120.694,35.361 C115.602,36.09 108.296,39.873 103.885,39.863 C103.299,39.861 102.881,39.074 103.393,38.57 C105.862,36.131 111.125,30.556 110.897,26.39 C110.872,25.925 109.944,25.382 109.579,25.529 C106.888,26.631 103.032,27.23 99.852,27.363 C99.395,27.383 98.569,26.549 98.649,26.121 C99.21,23.109 101.573,19.836 103.452,16.66 C100.009,12.043 97.434,7.551 95.862,3.599 C95.708,3.208 95.378,3.011 95.049,3.009 C94.719,3.007 94.391,3.202 94.235,3.593 C92.661,7.544 90.083,12.048 86.633,16.659 C88.498,19.805 90.836,23.052 91.422,26.038 C91.512,26.495 90.727,27.382 90.287,27.364 C87.123,27.237 83.277,26.645 80.568,25.553 C80.181,25.397 79.214,25.924 79.189,26.389 C78.959,30.604 84.355,36.26 86.781,38.653 C87.25,39.114 86.857,39.848 86.316,39.86 C81.836,39.942 74.246,35.948 69.101,35.321 C68.663,35.268 68.205,36.155 68.419,36.606 C71.333,42.68 78.401,47.571 81.165,49.317 C81.874,49.762 81.796,50.546 81.573,50.838 C79.204,53.961 79.018,58.697 79.02,61.293 C79.022,61.813 79.799,62.293 80.17,62.193 C85.713,60.701 88.895,64.295 88.895,64.295 C87.5,68.641 87.67,73.248 88.313,76.807 L70.862,86.907 C68.096,84.548 64.141,82.05 59.63,81.067 C59.63,81.067 58.099,76.53 62.161,72.463 C62.432,72.192 62.35,71.238 61.858,70.957 C59.618,69.672 55.565,67.584 51.782,67.986 C51.364,68.031 50.544,67.679 50.505,66.771 C50.36,63.414 49.618,54.957 45.829,49.466 C45.556,49.071 44.497,49.22 44.294,49.73 C42.382,54.503 42.013,62.726 39.798,66.539 C39.505,67.047 38.614,67.014 38.433,66.32 C37.552,62.963 35.355,55.619 31.63,53.738 C31.214,53.527 30.278,54.058 30.226,54.449 C29.835,57.332 28.427,60.97 26.958,63.791 C26.745,64.197 25.61,64.498 25.276,64.213 C22.952,62.225 21.294,58.541 19.481,55.326 C13.76,56.008 8.583,55.99 4.376,55.379 C3.96,55.318 3.626,55.506 3.462,55.791 C3.294,56.076 3.296,56.459 3.558,56.785 C6.195,60.123 8.81,64.607 11.083,69.9 C14.737,69.853 18.718,69.451 21.599,70.431 C22.042,70.583 22.417,71.706 22.183,72.077 C20.49,74.757 18.058,77.792 15.759,79.595 C15.429,79.853 15.407,80.952 15.794,81.208 C19.331,83.511 26.927,81.657 30.212,80.751 C30.843,80.577 31.284,81.284 31.025,81.759 C28.857,85.681 21.607,90.263 18.496,94.407 C18.23,94.759 18.771,95.598 19.269,95.636 C25.988,96.15 33.755,92.466 36.644,90.945 C37.386,90.554 38.023,91.011 38.167,91.353 C39.69,94.964 43.702,97.49 45.948,98.783 C46.401,99.043 47.208,98.609 47.305,98.236 C48.78,92.689 53.483,91.728 53.483,91.728 C56.555,95.109 60.637,97.265 64.046,98.484 L64.208,118.599 C60.755,119.81 56.548,122.001 53.403,125.468 C53.403,125.468 48.706,124.527 47.212,118.978 C47.112,118.609 46.247,118.201 45.755,118.49 C43.523,119.787 39.692,122.256 38.153,125.738 C37.981,126.121 37.268,126.656 36.46,126.234 C33.48,124.685 25.78,121.105 19.134,121.65 C18.655,121.689 18.255,122.679 18.593,123.111 C21.779,127.15 28.716,131.576 30.915,135.398 C31.21,135.906 30.735,136.662 30.044,136.47 C26.696,135.558 19.235,133.796 15.743,136.085 C15.352,136.337 15.348,137.415 15.659,137.655 C17.964,139.432 20.415,142.468 22.124,145.151 C22.368,145.538 22.061,146.672 21.651,146.817 C18.764,147.84 14.747,147.438 11.057,147.403 C8.789,152.7 6.192,157.178 3.561,160.518 C3.301,160.848 3.297,161.231 3.461,161.516 C3.623,161.801 3.957,161.993 4.371,161.928 C8.578,161.311 13.771,161.283 19.49,161.955 C21.275,158.764 22.912,155.115 25.203,153.107 C25.555,152.8 26.715,153.035 26.92,153.425 C28.397,156.226 29.813,159.851 30.225,162.741 C30.286,163.155 31.227,163.725 31.641,163.516 C35.403,161.602 37.588,154.096 38.442,150.797 C38.608,150.16 39.442,150.133 39.723,150.594 C42.039,154.432 42.389,163 44.428,167.766 C44.6,168.17 45.598,168.121 45.879,167.711 C49.674,162.143 50.363,153.576 50.486,150.311 C50.517,149.475 51.232,149.149 51.597,149.196 C55.49,149.676 59.679,147.464 61.921,146.161 C62.37,145.899 62.4,144.983 62.126,144.714 C58.056,140.665 59.571,136.11 59.571,136.11 C63.971,135.149 67.829,132.745 70.579,130.43 L88.2,140.241 C87.522,143.835 87.321,148.571 88.753,153.024 C88.753,153.024 85.593,156.622 80.04,155.147 C79.671,155.047 78.888,155.594 78.89,156.165 C78.9,158.747 79.124,163.3 81.37,166.372 C81.618,166.71 81.725,167.595 80.958,168.087 C78.126,169.894 71.181,174.776 68.331,180.808 C68.128,181.242 68.786,182.083 69.329,182.005 C74.419,181.265 81.718,177.464 86.128,177.466 C86.712,177.464 87.13,178.251 86.622,178.757 C84.159,181.2 78.905,186.788 79.145,190.95 C79.17,191.417 80.1,191.958 80.465,191.809 C83.154,190.704 87.008,190.094 90.186,189.954 C90.645,189.934 91.473,190.765 91.395,191.196 C90.84,194.208 88.483,197.487 86.612,200.667 C90.067,205.276 92.649,209.763 94.229,213.71 C94.387,214.101 94.715,214.296 95.045,214.296 C95.373,214.296 95.705,214.105 95.858,213.712 C97.424,209.759 99.995,205.245 103.43,200.628 C101.559,197.485 99.213,194.247 98.619,191.259 C98.527,190.802 99.31,189.913 99.75,189.931 C102.916,190.052 106.764,190.634 109.473,191.72 C109.862,191.876 110.827,191.345 110.852,190.88 C111.073,186.665 105.663,181.023 103.231,178.636 C102.764,178.173 103.153,177.439 103.694,177.427 C108.176,177.335 115.774,181.312 120.919,181.927 C121.357,181.978 121.815,181.089 121.599,180.642 C118.671,174.572 111.593,169.697 108.826,167.96 C108.117,167.513 108.191,166.731 108.414,166.439 C110.775,163.308 110.949,158.572 110.941,155.978 C110.939,155.458 110.16,154.978 109.791,155.078 C104.248,156.584 101.061,152.996 101.061,152.996 C102.411,148.758 102.27,144.275 101.659,140.758 L119.02,130.379 C121.788,132.734 125.745,135.225 130.256,136.199 C130.256,136.199 131.789,140.738 127.733,144.804 C127.462,145.079 127.544,146.029 128.038,146.314 C130.278,147.597 134.333,149.677 138.118,149.271 C138.534,149.226 139.354,149.578 139.395,150.488 C139.541,153.843 140.293,162.302 144.09,167.787 C144.363,168.182 145.422,168.031 145.625,167.521 C147.529,162.744 147.895,154.523 150.102,150.707 C150.395,150.199 151.286,150.23 151.467,150.924 C152.352,154.279 154.557,161.621 158.283,163.5 C158.701,163.709 159.635,163.176 159.687,162.787 C160.074,159.904 161.476,156.264 162.943,153.441 C163.156,153.035 164.291,152.732 164.625,153.015 C166.955,155.003 168.617,158.683 170.43,161.896 C176.151,161.21 181.328,161.22 185.537,161.828 C185.953,161.887 186.285,161.699 186.451,161.416 C186.616,161.133 186.614,160.75 186.353,160.422 L186.353,160.422 Z" id="Shape" fill="#BCE0D7"></path>
                <g transform="translate(51.000000, 91.000000)" id="Shape">
                    <path d="M18.745,0.766 C28.979,0.766 37.286,9.069 37.286,19.309 C37.286,29.545 28.979,37.85 18.745,37.85 C8.505,37.85 0.2,29.545 0.2,19.309 C0.2,9.069 8.505,0.766 18.745,0.766 L18.745,0.766 Z" fill="#FFFFFF"></path>
                    <path d="M69.165,0.766 C79.401,0.766 87.708,9.067 87.708,19.309 C87.708,29.547 79.401,37.852 69.165,37.852 C58.925,37.852 50.622,29.547 50.622,19.309 C50.622,9.067 58.925,0.766 69.165,0.766 L69.165,0.766 Z" fill="#FFFFFF"></path>
                    <path d="M27.294,23.75 C30.087,23.75 32.351,21.488 32.351,18.699 C32.351,15.9 30.087,13.638 27.294,13.638 C24.499,13.638 22.239,15.9 22.239,18.699 C22.239,21.489 24.499,23.75 27.294,23.75 L27.294,23.75 Z" fill="#433739"></path>
                    <path d="M77.712,13.639 C74.919,13.639 72.657,15.901 72.657,18.7 C72.657,21.489 74.919,23.751 77.712,23.751 C80.505,23.751 82.771,21.489 82.771,18.7 C82.771,15.901 80.505,13.639 77.712,13.639 L77.712,13.639 Z" fill="#433739"></path>
                </g>
            </g>
        </g>
    </g>
</svg>