<?xml version="1.0" encoding="UTF-8" standalone="no"?>
<svg width="164px" height="217px" viewBox="0 0 164 217" version="1.1" xmlns="http://www.w3.org/2000/svg" xmlns:xlink="http://www.w3.org/1999/xlink" xmlns:sketch="http://www.bohemiancoding.com/sketch/ns">
    <!-- Generator: Sketch 3.2.1 (9977) - http://www.bohemiancoding.com/sketch -->
    <title>Slice 1</title>
    <desc>Created with Sketch.</desc>
    <defs></defs>
    <g id="Page-1" stroke="none" stroke-width="1" fill="none" fill-rule="evenodd" sketch:type="MSPage">
        <g id="Snowman" sketch:type="MSLayerGroup">
            <g id="Group" sketch:type="MSShapeGroup">
                <path d="M159.289,124.641 L159.291,124.639 L153.617,125.192 L157.492,119.991 C158.646,118.444 158.314,116.192 156.769,115.042 C155.222,113.89 152.97,114.22 151.82,115.765 L147.55,121.495 L146.025,115.727 C145.527,113.864 143.566,112.719 141.699,113.213 C139.838,113.709 138.691,115.672 139.185,117.537 L142.152,128.742 L135.945,137.074 C135.945,137.074 135.435,137.568 135.185,136.99 C134.447,135.554 133.646,134.152 132.785,132.787 C132.785,132.787 132.785,132.787 132.785,132.779 C132.752,132.379 131.801,120.925 122.75,114.238 C128.547,106.058 131.957,96.06 131.957,85.269 C131.957,57.581 109.512,35.132 81.822,35.132 C54.142,35.132 31.695,57.581 31.695,85.269 C31.695,96.06 35.107,106.058 40.908,114.238 C31.045,121.65 30.871,132.402 30.871,132.779 C30.078,134.033 29.34,135.318 28.652,136.633 C28.314,137.526 27.5,136.795 27.5,136.795 L21.5,128.742 L24.469,117.537 C24.961,115.67 23.819,113.709 21.953,113.213 C20.088,112.719 18.127,113.865 17.631,115.727 L16.104,121.495 L11.836,115.765 C10.684,114.222 8.432,113.888 6.887,115.042 C5.342,116.192 5.01,118.444 6.162,119.991 L10.037,125.192 L4.361,124.639 L4.365,124.641 C2.445,124.44 0.689,125.905 0.5,127.815 C0.314,129.737 1.758,131.489 3.678,131.678 L15.744,132.854 L25.045,145.338 C23.471,150.34 22.619,155.631 22.619,161.113 C22.619,191.818 49.129,216.717 81.822,216.717 C114.525,216.717 141.037,191.819 141.037,161.113 C141.037,155.634 140.183,150.34 138.611,145.34 L147.91,132.854 L159.976,131.678 C161.9,131.489 163.333,129.737 163.156,127.817 L163.156,127.815 C162.965,125.904 161.209,124.439 159.289,124.641 L159.289,124.641 Z" id="Shape" fill="#F7F2E8"></path>
                <path d="M132.785,132.779 L132.785,132.787 C131.291,133.824 129.81,134.832 128.349,135.797 C133.451,140.49 133.294,147.94 127.486,156.979 C122.345,164.971 129.506,170.795 136.84,172.698 L126.623,187.889 C118.504,186.057 102.785,177.145 109.859,166.143 C115.461,157.428 115.798,150.188 111.25,145.481 C101.795,149.788 92.324,152.161 81.822,152.161 C63.488,152.161 48.297,144.923 30.871,132.788 C30.871,132.788 30.871,132.788 30.871,132.78 C30.871,132.403 31.045,121.651 40.908,114.239 C49.992,127.042 64.935,135.397 81.822,135.397 C98.715,135.397 113.662,127.042 122.75,114.239 C131.801,120.926 132.752,132.379 132.785,132.779 L132.785,132.779 Z" id="Shape" fill="#D52048"></path>
                <g transform="translate(1.000000, 114.000000)" id="Shape" fill="#433739">
                    <path d="M158.406,11.813 L151.377,12.497 C150.818,12.335 150.66,12.12 150.895,11.534 L150.895,11.534 L155.547,5.286 C156.324,4.241 156.11,2.765 155.065,1.985 C154.02,1.21 152.544,1.424 151.766,2.469 L146.856,9.059 C146.272,9.362 146.104,9.309 145.708,8.913 L145.708,8.913 L143.886,2.028 C143.554,0.77 142.263,0.02 141.003,0.352 C139.743,0.684 138.993,1.977 139.325,3.235 L142.44,14.991 L131.854,29.198 C131.079,30.243 131.293,31.719 132.338,32.499 C133.381,33.274 134.859,33.06 135.637,32.015 L146.276,17.734 L158.864,16.505 C160.161,16.38 161.108,15.228 160.983,13.931 C160.855,12.633 159.701,11.686 158.406,11.813 L158.406,11.813 Z"></path>
                    <path d="M3.25,11.813 L10.279,12.497 C10.838,12.335 10.994,12.12 10.761,11.534 L10.761,11.534 L6.107,5.286 C5.328,4.241 5.544,2.765 6.589,1.985 C7.634,1.21 9.11,1.424 9.89,2.469 L14.798,9.059 C15.384,9.362 15.55,9.309 15.946,8.913 L15.946,8.913 L17.768,2.028 C18.102,0.77 19.391,0.02 20.651,0.352 C21.909,0.684 22.659,1.977 22.327,3.235 L19.216,14.991 L29.798,29.198 C30.577,30.243 30.361,31.719 29.318,32.499 C28.273,33.274 26.795,33.06 26.017,32.015 L15.376,17.734 L2.792,16.505 C1.497,16.38 0.548,15.228 0.671,13.931 C0.799,12.633 1.951,11.686 3.25,11.813 L3.25,11.813 Z"></path>
                </g>
                <circle id="Oval" fill="#433739" cx="81.826" cy="167.586" r="10.609"></circle>
                <g transform="translate(46.000000, 84.000000)" id="Shape">
                    <path d="M54.264,30.234 C52.459,38.398 36.649,41.304 26.961,37.322" stroke="#656662" stroke-width="3"></path>
                    <g>
                        <path d="M14.15,0.719 C21.836,0.719 28.074,6.953 28.074,14.645 C28.074,22.331 21.836,28.567 14.15,28.567 C6.461,28.567 0.222,22.331 0.222,14.645 C0.223,6.953 6.461,0.719 14.15,0.719 L14.15,0.719 Z" stroke="#7C7463" stroke-width="0.25" fill="#FFFFFF"></path>
                        <path d="M21.055,20.336 C23.151,20.336 24.852,18.637 24.852,16.543 C24.852,14.441 23.151,12.744 21.055,12.744 C18.953,12.744 17.258,14.441 17.258,16.543 C17.258,18.637 18.953,20.336 21.055,20.336 L21.055,20.336 Z" fill="#433739"></path>
                        <path d="M60.658,0.719 C68.347,0.719 74.586,6.951 74.586,14.645 C74.586,22.331 68.348,28.569 60.658,28.569 C52.968,28.569 46.732,22.331 46.732,14.645 C46.732,6.951 52.969,0.719 60.658,0.719 L60.658,0.719 Z" stroke="#7C7463" stroke-width="0.25" fill="#FFFFFF"></path>
                        <path d="M67.561,12.744 C65.465,12.744 63.766,14.441 63.766,16.543 C63.766,18.637 65.465,20.336 67.561,20.336 C69.661,20.336 71.36,18.637 71.36,16.543 C71.359,14.441 69.66,12.744 67.561,12.744 L67.561,12.744 Z" fill="#433739"></path>
                    </g>
                    <path d="M55.146,38.033 C36.449,37.689 25.333,28.463 30.433,22.513 C35.503,16.599 44.833,20.23 56.224,36.128 C57.576,37.604 55.938,38.047 55.146,38.033 L55.146,38.033 Z" fill="#E19E3F"></path>
                </g>
                <g transform="translate(23.000000, 0.000000)" id="Shape">
                    <path d="M78.262,35.689 C76.524,31.947 69.616,32.355 61.756,34.242 L58.479,21.439 L53.268,1.091 C50.336,-0.77 33.311,4.753 25.248,7.96 C17.391,11.63 1.277,20.409 0.627,23.814 L11.863,41.558 L18.929,52.728 C12.163,57.152 7.132,61.908 8.663,65.728 C12.397,75.056 35.518,69.443 48.864,63.228 C62.541,57.781 82.482,44.799 78.262,35.689 L78.262,35.689 Z" fill="#433739"></path>
                    <path d="M61.756,34.242 L62.666,37.795 C55.422,44.342 48.465,48.295 43.309,50.354 C38.28,52.696 30.625,55.047 20.895,55.825 L18.93,52.729 L11.864,41.559 C22.93,41.041 31.569,38.471 37.079,35.909 C42.712,33.663 50.511,29.134 58.479,21.44 L61.756,34.242 L61.756,34.242 Z" fill="#82873B"></path>
                </g>
            </g>
        </g>
    </g>
</svg>