<?xml version="1.0" encoding="utf-8"?>
<!-- Generator: Adobe Illustrator 14.0.0, SVG Export Plug-In . SVG Version: 6.00 Build 43363)  -->
<!DOCTYPE svg PUBLIC "-//W3C//DTD SVG 1.1//EN" "http://www.w3.org/Graphics/SVG/1.1/DTD/svg11.dtd">
<svg version="1.1" id="Layer_1" xmlns="http://www.w3.org/2000/svg" xmlns:xlink="http://www.w3.org/1999/xlink" x="0px" y="0px"
	 width="26.994px" height="29.606px" viewBox="0 0 26.994 29.606" enable-background="new 0 0 26.994 29.606" xml:space="preserve">
<g>
	<path fill="#FFFFFF" d="M13.203,0c1.461-0.006,1.253,1.399,1.253,2.843c0.008,0.284,0.014,0.569,0.021,0.853
		c0.525-0.568,1.051-1.137,1.576-1.706c0.16-0.198,0.343-0.461,0.569-0.587c0.54-0.299,1.15,0.063,1.291,0.512
		c0.236,0.754-0.846,1.486-1.178,1.895c-0.76,0.84-1.52,1.681-2.278,2.521c0,0.6,0,1.2,0,1.8c0.379-0.296,0.613-0.851,1.082-1.042
		c0.643-0.262,1.172,0.27,1.217,0.815c0.039,0.48-0.406,0.756-0.627,1.004c-0.558,0.619-1.114,1.238-1.672,1.857
		c0.007,0.676,0.013,1.352,0.02,2.027c0.538-0.315,1.076-0.631,1.614-0.947c0.062-0.221,0.126-0.442,0.189-0.663
		c0.175-0.552,0.711-2.566,1.044-2.824c0.577-0.447,1.633-0.031,1.443,0.854c-0.139,0.448-0.278,0.896-0.418,1.346
		c0.562-0.322,1.128-0.645,1.691-0.967c-0.058-0.243,0.287-1.03,0.38-1.289c0.321-1.01,0.645-2.021,0.969-3.032
		c0.156-0.495,0.386-1.108,1.12-0.929c0.343,0.084,0.604,0.356,0.685,0.701c0.091,0.399-0.15,0.789-0.248,1.062
		c-0.229,0.732-0.456,1.465-0.684,2.198c0.802-0.418,3.18-2.395,3.894-0.814c0.731,1.619-1.956,2.107-2.658,2.805
		c0.014,0,0.024,0,0.037,0c0.832,0.373,2.458,0.294,3.135,0.777c0.354,0.253,0.427,0.973,0.096,1.308
		c-0.541,0.546-1.821,0.042-2.508-0.132c-1.025-0.215-2.053-0.43-3.077-0.645c-0.514,0.303-1.025,0.606-1.538,0.909
		c0.515,0.068,1.345,0.196,1.596,0.55c0.364,0.514,0.077,1.219-0.418,1.383c-0.457,0.152-2.389-0.384-2.925-0.511
		c-0.186-0.038-0.368-0.076-0.552-0.114c-0.582,0.334-1.164,0.669-1.747,1.004c0.013,0.006,0.024,0.012,0.039,0.019
		c0.512,0.303,1.023,0.606,1.538,0.909c0.239-0.05,0.48-0.101,0.722-0.151c0.544-0.138,2.695-0.697,3.114-0.455
		c0.448,0.259,0.604,1.099,0.133,1.459c-0.368,0.282-1.139,0.35-1.652,0.455c0.007,0.013,0.014,0.026,0.021,0.038
		c0.551,0.316,1.102,0.631,1.651,0.947c0.364-0.233,1.01-0.229,1.463-0.341c1.127-0.253,2.255-0.505,3.382-0.758
		c0.432-0.08,0.791,0.245,0.91,0.493c0.188,0.386,0.003,0.865-0.228,1.062c-0.337,0.287-2.668,0.726-3.287,0.815
		c0.007,0.013,0.013,0.025,0.021,0.038c0.359,0.208,0.721,0.417,1.082,0.625c0.765,0.454,2.521,1.139,1.425,2.464
		c-0.902,1.089-2.848-0.764-3.646-1.062c0,0.006,0,0.013,0,0.02c0.303,0.941,0.607,1.882,0.912,2.823
		c0.139,0.687-0.585,1.263-1.217,0.986c-0.636-0.28-0.943-1.983-1.178-2.729c-0.253-0.796-0.507-1.592-0.76-2.388
		c-0.531-0.31-1.063-0.619-1.596-0.929c0.083,0.453,0.479,0.923,0.36,1.479c-0.124,0.586-0.924,0.973-1.463,0.511
		c-0.351-0.3-0.811-2.173-1.006-2.748c-0.058-0.189-0.114-0.379-0.172-0.568c-0.569-0.322-1.14-0.645-1.71-0.967
		c0,0.48,0,0.96,0,1.44c0.685,0.739,1.367,1.478,2.053,2.217c0.152,0.194,0.317,0.531,0.209,0.872
		c-0.081,0.25-0.268,0.42-0.494,0.53c-0.863,0.418-1.322-0.662-1.768-1.004c0,0.6,0,1.2,0,1.8c0.761,0.84,1.521,1.681,2.279,2.521
		c0.329,0.407,1.418,1.145,1.178,1.895c-0.143,0.447-0.75,0.813-1.291,0.512c-0.228-0.126-0.41-0.389-0.569-0.587
		c-0.532-0.569-1.063-1.137-1.597-1.706c0,0.79,0,1.58,0,2.369c0,0.364,0.046,0.819-0.057,1.099
		c-0.145,0.39-0.496,0.677-0.949,0.758c-0.863,0.156-1.266-0.532-1.311-1.25c0-1.011,0-2.021,0-3.032c-0.007,0-0.014,0-0.021,0
		c-0.057,0.05-0.114,0.102-0.171,0.151c-0.658,0.721-1.316,1.441-1.976,2.161c-0.554,0.358-1.242,0-1.367-0.531
		c-0.134-0.567,0.271-0.804,0.494-1.08c0.722-0.802,1.442-1.604,2.165-2.406c0.104-0.13,0.863-0.882,0.854-0.929
		c0.067-0.242,0.036-1.821-0.019-1.896c-0.131,0.28-0.943,1.118-1.254,1.213c-0.596,0.183-1.24-0.305-1.141-0.929
		c0.081-0.5,0.445-0.686,0.703-1.004c0.576-0.644,1.152-1.288,1.729-1.933c-0.006-0.43-0.013-0.859-0.02-1.289
		c-0.443,0.265-0.886,0.531-1.329,0.796c-0.393,0.779-0.639,2.938-1.254,3.335c-0.65,0.42-1.325-0.125-1.367-0.777
		c-0.021-0.339,0.246-0.94,0.38-1.27c-0.006-0.006-0.013-0.013-0.019-0.019c-0.521,0.297-1.039,0.594-1.558,0.891
		c-0.405,1.257-0.812,2.515-1.217,3.771c-0.204,0.639-0.262,1.299-0.969,1.44c-0.555,0.11-1.124-0.417-0.988-1.062
		c0.299-0.941,0.597-1.882,0.894-2.824c-0.938,0.537-1.874,1.074-2.812,1.611c-0.65,0.267-1.3-0.152-1.5-0.587
		c-0.336-0.729,0.146-1.287,0.59-1.554c0.866-0.511,1.733-1.023,2.602-1.535c-0.577-0.077-2.973-0.55-3.268-0.814
		c-0.266-0.239-0.433-0.788-0.171-1.175c0.257-0.378,0.765-0.417,1.292-0.284c1.038,0.234,2.076,0.468,3.114,0.701
		c0.412,0.102,0.957,0.102,1.291,0.304c0.558-0.329,1.115-0.657,1.672-0.986c-0.562-0.075-1.528-0.216-1.805-0.606
		c-0.312-0.441-0.111-1.099,0.285-1.308c0.458-0.241,2.448,0.296,3.021,0.436c0.271,0.057,0.544,0.114,0.816,0.17
		c0.367-0.215,0.733-0.43,1.102-0.644c-0.006-0.013-0.013-0.025-0.02-0.038c-0.309-0.108-1.079-0.763-1.367-0.72
		c-0.811,0.177-1.621,0.354-2.431,0.531c-0.321,0.076-0.76,0.219-1.083,0.038c-0.458-0.255-0.62-1.088-0.152-1.459
		c0.325-0.257,0.999-0.323,1.463-0.417c-0.513-0.303-1.025-0.606-1.538-0.909c-1.076,0.227-2.153,0.454-3.229,0.682
		c-0.627,0.148-1.707,0.59-2.261,0.171c-0.41-0.312-0.383-1.084,0.02-1.384c0.229-0.171,0.545-0.184,0.874-0.265
		c0.76-0.17,1.52-0.341,2.278-0.511c-0.013-0.02-0.024-0.038-0.037-0.058c-0.285-0.164-0.569-0.328-0.854-0.492
		C1.995,9.66,0.79,9.194,0.437,8.663c-0.255-0.38-0.222-1.019,0.037-1.364C0.711,6.981,1.318,6.69,1.862,6.92
		C2.811,7.469,3.76,8.019,4.71,8.568c0-0.019,0-0.038,0-0.057c-0.228-0.727-0.456-1.453-0.684-2.18
		C3.923,6.015,3.71,5.65,3.797,5.27c0.089-0.377,0.396-0.615,0.799-0.682C5.374,4.458,5.513,5.279,5.678,5.8
		C6.11,7.158,6.539,8.517,6.97,9.875c0.558,0.315,1.113,0.631,1.672,0.947c0-0.006,0-0.012,0-0.019
		c-0.146-0.467-0.291-0.935-0.438-1.402C8.093,8.692,8.948,8.177,9.552,8.548c0.531,0.325,0.933,2.292,1.18,2.995
		c0.057,0.195,0.112,0.392,0.17,0.587c0.404,0.234,0.811,0.468,1.216,0.702c0-0.044,0-0.089,0-0.133c0-0.575,0-1.149,0-1.725
		c0.034-0.2-0.41-0.494-0.531-0.644c-0.469-0.525-0.938-1.049-1.406-1.573c-0.191-0.206-0.549-0.458-0.475-0.91
		c0.101-0.608,0.764-1.069,1.387-0.663c0.336,0.366,0.671,0.733,1.008,1.099c0.029-0.054,0.031-0.073,0.019-0.133
		c0.007-0.6,0.014-1.2,0.02-1.8c-0.341-0.183-0.812-0.826-1.062-1.137C10.302,4.38,9.531,3.546,8.758,2.712
		c-0.223-0.293-0.196-0.82,0.02-1.099c0.233-0.302,0.815-0.417,1.196-0.17c0.716,0.771,1.432,1.542,2.146,2.312
		c0.007,0,0.014,0,0.021,0c-0.034-0.599-0.159-2.813,0.246-3.335C12.591,0.153,12.857,0.139,13.203,0z"/>
</g>
</svg>
