<?xml version="1.0" encoding="UTF-8" standalone="no"?>
<svg width="130px" height="217px" viewBox="0 0 130 217" version="1.1" xmlns="http://www.w3.org/2000/svg" xmlns:xlink="http://www.w3.org/1999/xlink" xmlns:sketch="http://www.bohemiancoding.com/sketch/ns">
    <!-- Generator: Sketch 3.2.1 (9977) - http://www.bohemiancoding.com/sketch -->
    <title>Slice 1</title>
    <desc>Created with Sketch.</desc>
    <defs></defs>
    <g id="Page-1" stroke="none" stroke-width="1" fill="none" fill-rule="evenodd" sketch:type="MSPage">
        <g id="Stocking" sketch:type="MSLayerGroup">
            <g id="Group" sketch:type="MSShapeGroup">
                <path d="M124.844,106.269 C124.424,105.058 124.016,103.859 123.625,102.669 C116.541,81.341 113.6,63.823 112.523,55.911 L112.4,54.864 C114.275,53.598 115.16,52.303 115.16,50.79 C115.16,46.352 114.027,41.935 112.933,37.651 C111.96,33.833 111.038,30.233 111.038,26.987 C111.038,24.674 111.599,22.141 112.142,19.684 C113.218,14.838 114.238,10.258 111.314,7.346 C107.306,3.336 102.365,1.547 95.281,1.547 C85.666,1.547 72.297,4.783 51,10.762 C13.631,21.244 5.557,26.149 5.557,38.356 C5.557,53.54 8.614,79.876 12.383,83.635 C13.088,84.34 14.25,84.682 15.946,84.682 L16.278,86.301 C22.971,118.701 23.876,144.559 14.118,158.496 C12.936,160.191 11.766,161.896 10.651,163.619 C2.549,176.081 -3.173,189.077 2.864,199.532 C9.272,210.612 35.987,224.979 56.055,210.442 C57.532,209.385 58.969,208.157 60.36,206.766 C72.68,194.457 87.141,182.051 98.68,173.213 C106.201,167.463 112.487,163.239 116.114,161.544 C125.318,157.261 135.383,136.591 124.844,106.269 L124.844,106.269 Z" id="Shape" fill="#D52048"></path>
                <path d="M10.65,163.621 C30.597,171.056 48.906,190.268 56.054,210.444 C35.986,224.981 9.271,210.614 2.863,199.534 C-3.174,189.079 2.549,176.083 10.65,163.621 L10.65,163.621 Z" id="Shape" fill="#A21E25"></path>
                <path d="M124.844,106.269 C135.383,136.591 125.319,157.261 116.114,161.546 C112.487,163.241 106.202,167.465 98.68,173.215 C82.752,138.142 100.061,108.437 123.625,102.669 C124.016,103.859 124.424,105.058 124.844,106.269 L124.844,106.269 Z" id="Shape" fill="#A21E25"></path>
                <path d="M112.523,55.912 C104.994,60.607 86.302,63.414 62.796,71.412 C38.747,79.6 23.732,85.512 16.257,85.637 C14.163,85.684 12.659,85.266 11.706,84.313 C7.366,79.973 4.604,51.743 4.604,38.358 C4.604,24.971 14.563,20.001 50.741,9.852 C86.921,-0.308 102.155,-3.164 111.989,6.672 C116.913,11.594 111.989,20.324 111.989,26.988 C111.989,33.652 116.112,42.22 116.112,50.791 C116.113,52.818 114.855,54.455 112.523,55.912 L112.523,55.912 Z" id="Shape" fill="#FFFFFF"></path>
                <g transform="translate(28.000000, 76.000000)" id="Shape">
                    <path d="M61.004,37.947 C60.934,48.074 42.943,55.525 30.461,53.265" stroke="#A21E25" stroke-width="3"></path>
                    <g>
                        <g transform="translate(0.000000, 11.000000)">
                            <path d="M13.449,0.56 C22.553,-1.389 31.523,4.415 33.472,13.525 C35.423,22.63 29.615,31.601 20.511,33.548 C11.4,35.497 2.433,29.693 0.484,20.589 C-1.467,11.478 4.34,2.511 13.449,0.56 L13.449,0.56 Z" fill="#FFFFFF"></path>
                            <path d="M27.898,18.685 C30.382,18.154 31.966,15.71 31.435,13.23 C30.9,10.74 28.456,9.16 25.972,9.691 C23.486,10.222 21.906,12.666 22.439,15.156 C22.971,17.636 25.412,19.216 27.898,18.685 L27.898,18.685 Z" fill="#433739"></path>
                        </g>
                        <g transform="translate(51.000000, 0.000000)">
                            <path d="M13.816,0.562 C22.923,-1.387 31.894,4.416 33.843,13.527 C35.794,22.634 29.986,31.603 20.878,33.552 C11.769,35.503 2.802,29.697 0.853,20.589 C-1.098,11.478 4.707,2.513 13.816,0.562 L13.816,0.562 Z" fill="#FFFFFF"></path>
                            <path d="M26.338,9.695 C23.856,10.224 22.274,12.668 22.807,15.158 C23.338,17.64 25.782,19.219 28.264,18.687 C30.75,18.156 32.334,15.712 31.803,13.232 C31.27,10.742 28.824,9.164 26.338,9.695 L26.338,9.695 Z" fill="#433739"></path>
                        </g>
                    </g>
                </g>
            </g>
        </g>
    </g>
</svg>