<?xml version="1.0" encoding="UTF-8" standalone="no"?>
<svg width="357px" height="181px" viewBox="0 0 357 181" version="1.1" xmlns="http://www.w3.org/2000/svg" xmlns:xlink="http://www.w3.org/1999/xlink" xmlns:sketch="http://www.bohemiancoding.com/sketch/ns">
    <!-- Generator: Sketch 3.2.1 (9977) - http://www.bohemiancoding.com/sketch -->
    <title>Slice 1</title>
    <desc>Created with Sketch.</desc>
    <defs></defs>
    <g id="Page-1" stroke="none" stroke-width="1" fill="none" fill-rule="evenodd" sketch:type="MSPage">
        <g id="tag1_bottom" sketch:type="MSLayerGroup" transform="translate(179.000000, 91.000000) rotate(-90.000000) translate(-179.000000, -91.000000) translate(88.500000, -87.500000)" fill="#66AF15">
            <path d="M180.425,52.9136899 C179.293,47.3660775 177.271,42.4983876 174.218,39.0016434 C171.303,35.6533721 167.46,33.6385814 162.763,33.381876 C162.648,29.251 162.026,25.6002326 160.965,22.4476124 C159.198,17.185845 156.223,13.3505271 152.585,10.8917054 C148.943,8.42594574 144.64,7.28811628 140.087,7.28672868 C133.742,7.29089147 126.902,9.49717054 120.656,13.5656047 C117.426,15.6733643 114.409,16.5086977 111.614,16.5100853 C105.623,16.5156357 100.579,12.6095504 97.014,8.62575969 C95.235,6.63733333 93.834,4.64335659 92.883,3.15307752 C92.407,2.40793798 92.045,1.78906977 91.803,1.36168992 C91.681,1.148 91.591,0.981488372 91.532,0.87048062 L91.468,0.746984496 L91.45,0.713682171 C91.253,0.327930233 90.932,0.0975891473 90.592,0.0975891473 C90.25,0.0975891473 89.929,0.327930233 89.732,0.713682171 L89.715,0.746984496 C89.503,1.15632558 87.369,5.15399225 83.829,8.99624806 C80.284,12.8496047 75.371,16.5142481 69.567,16.5086977 C66.773,16.5073101 63.756,15.6705891 60.527,13.5642171 C54.278,9.49439535 47.44,7.28672868 41.094,7.28534109 C35.029,7.28950388 29.388,9.30290698 25.201,13.8084341 C23.11,16.0605039 21.395,18.9397674 20.218,22.4462248 C19.158,25.5974574 18.536,29.2496124 18.42,33.3804884 C13.722,33.6371938 9.878,35.6519845 6.962,38.9974806 C3.83,42.5844186 1.773,47.608907 0.658,53.3355194 C0.648,53.3882481 0.661,53.4409767 0.654,53.495093 C0.646,53.5700233 0.622,53.6407907 0.622,53.7157209 L0.622,302.545147 L0.658,302.925349 C1.772,308.651961 3.83,313.67645 6.962,317.260612 C9.879,320.607496 13.722,322.623674 18.42,322.88038 C18.536,327.012643 19.158,330.662023 20.218,333.813256 C21.984,339.076411 24.959,342.910341 28.598,345.369163 C32.239,347.837698 36.543,348.97414 41.094,348.975527 C47.441,348.972752 54.279,346.76231 60.527,342.695264 C63.757,340.588891 66.774,339.752171 69.568,339.752171 C75.558,339.743845 80.602,343.651318 84.168,347.636496 C85.947,349.623535 87.349,351.618899 88.3,353.107791 C88.775,353.85293 89.139,354.471798 89.38,354.900566 C89.501,355.112868 89.592,355.27938 89.651,355.391775 L89.716,355.515271 L89.733,355.548574 C89.93,355.934326 90.251,356.164667 90.593,356.164667 C90.933,356.164667 91.254,355.934326 91.451,355.548574 L91.469,355.515271 C91.681,355.104543 93.815,351.108264 97.355,347.26462 C100.898,343.411264 105.813,339.748008 111.615,339.753558 C114.409,339.754946 117.425,340.591667 120.655,342.696651 C126.904,346.766473 133.742,348.97414 140.089,348.976915 C146.152,348.97414 151.795,346.959349 155.982,342.452434 C158.073,340.200364 159.789,337.321101 160.965,333.814643 C162.026,330.663411 162.648,327.014031 162.763,322.881767 C167.46,322.625062 171.301,320.608884 174.217,317.262 C177.269,313.766643 179.293,308.898953 180.425,303.348566 C180.542,303.108512 180.623,302.83793 180.623,302.546535 L180.623,53.7171085 C180.624,53.4257132 180.542,53.1537442 180.425,52.9136899 L180.425,52.9136899 Z" id="Shape" sketch:type="MSShapeGroup"></path>
        </g>
        <g id="tag1_top" sketch:type="MSLayerGroup" transform="translate(179.000000, 91.000000) rotate(-90.000000) translate(-179.000000, -91.000000) translate(94.000000, -75.000000)" fill="#F3FCEA">
            <path d="M169.932839,49.037623 C167.885521,38.6883312 162.469335,31.2422964 152.955262,31.2422964 C152.955262,14.703452 144.111714,7.21969382 133.29559,6.78007019 C127.123304,6.52906395 120.308659,8.57048461 114.128791,12.532901 C97.1176332,23.4509468 84.9712942,0 84.9712942,0 C84.9712942,0 72.823872,23.4509468 55.8137979,12.532901 C49.7400868,8.63867706 43.0521802,6.6001582 36.964387,6.76991386 C26.0031095,7.07460351 16.9862429,14.5409509 16.9862429,31.2422964 C7.4732536,31.2422964 2.04840159,38.6883312 0,49.0347212 L0.339053251,49.037623 L0,49.037623 L0,282.963828 C2.04840159,293.311669 7.4732536,300.757704 16.9862429,300.757704 C16.9862429,316.990407 25.5080701,324.501733 36.0533845,325.189461 C42.3805731,325.601517 49.4356971,323.557195 55.8137979,319.46855 C72.8249552,308.549053 84.9712942,332 84.9712942,332 C84.9712942,332 97.1176332,308.549053 114.128791,319.46855 C120.309742,323.430966 127.124387,325.473838 133.296673,325.221381 C144.112797,324.778855 152.955262,317.295097 152.955262,300.759154 C162.469335,300.759154 167.886604,293.311669 169.932839,282.965279 L170,282.965279 L170,49.037623 L169.932839,49.037623 L169.932839,49.037623 Z" id="Shape" sketch:type="MSShapeGroup"></path>
        </g>
    </g>
</svg>